<svg width="11" height="19" viewBox="0 0 11 19" fill="none" xmlns="http://www.w3.org/2000/svg">
<g clip-path="url(#clip0_2956_16446)">
<path d="M1.25559 12.7629C2.47842 12.8692 3.6994 12.7336 4.86539 12.3617C4.92363 12.343 4.9898 12.3262 5.04246 12.3716C5.09536 12.419 5.11149 12.5111 5.12244 12.5924C5.37544 14.4562 5.62762 16.3211 5.88063 18.1849C6.59955 18.1081 7.30987 17.9613 8.00602 17.746C8.06154 17.7286 8.12227 17.7068 8.14985 17.6419C8.17315 17.589 8.16856 17.5204 8.16266 17.4568C7.9911 15.5676 7.55127 13.7162 7.11414 11.8788C8.16483 11.718 9.21563 11.5582 10.2673 11.3973C10.3672 11.3821 10.4794 11.3568 10.5301 11.2449C10.5935 11.1045 10.5252 10.9159 10.4569 10.7667C9.0047 7.58099 7.02673 4.86348 5.07034 2.18079C4.74797 1.73899 4.4125 1.28438 3.99413 1.03886C3.91343 0.992083 3.81935 0.953675 3.74602 1.00593C3.69128 1.04532 3.66284 1.12665 3.63972 1.20444C3.29237 2.34253 3.22852 3.67642 2.97026 4.86699C2.60759 6.53738 2.24492 8.20778 1.88332 9.879L1.2576 12.7636L1.25559 12.7629Z" fill="black" stroke="#8D8D8D" stroke-width="0.521688" stroke-linecap="round" stroke-linejoin="round"/>
</g>
<defs>
<clipPath id="clip0_2956_16446">
<rect width="9.95499" height="17.8518" fill="white" transform="translate(0.627686 0.564941)"/>
</clipPath>
</defs>
</svg>
