<svg width="1728" height="734" viewBox="0 0 1728 734" fill="none" xmlns="http://www.w3.org/2000/svg">
<g opacity="0.2">
<rect x="605" y="289" width="518" height="174" rx="87" fill="#EAF9FF"/>
<path d="M1008.7 309.492C1008.39 298.451 1007.93 288.012 1001.74 277.547C994.076 264.614 978.689 254.331 961.623 252.36C946.627 250.625 930.318 255.203 919.486 265.355C916.948 267.108 914.722 269.183 912.827 271.529C911.731 272.899 910.775 274.346 909.967 275.873C909.949 275.899 909.941 275.925 909.923 275.951C909.854 276.021 909.784 276.091 909.715 276.178C908.489 277.87 907.515 279.719 906.846 281.655C906.194 283.547 905.663 285.701 906.976 287.472C908.098 288.98 909.897 289.861 911.653 290.637C913.705 291.553 915.843 292.338 918.043 292.905C919.095 293.175 920.173 293.393 921.26 293.559C921.772 293.716 922.294 293.821 922.833 293.864C922.946 293.934 923.068 293.995 923.207 294.03C924.441 294.405 925.737 294.728 927.032 294.71C927.267 294.658 927.51 294.64 927.754 294.623C928.153 294.597 928.536 294.492 928.91 294.353C929.657 294.073 930.188 293.585 930.622 292.966C931.135 292.233 931.518 291.414 932.005 290.672C932.361 289.887 932.761 289.111 933.178 288.352C937.899 283.948 941.124 277.878 947.992 276.588C958.059 274.704 964.092 280.041 973.212 285.073C980.827 289.277 983.983 301.591 982.27 310.068C980.766 317.516 979.741 324.99 976.341 332.472C974.968 335.49 974.446 338.647 969.787 340.845C964.623 343.269 955.321 344.699 948.783 343.435C945.766 342.851 941.976 341.237 939.977 339.388C935.378 335.15 933.526 330.039 931.587 324.833C930.935 321.135 930.648 317.376 930.066 313.661C929.84 312.205 929.579 310.731 929.214 309.292C929.136 308.751 929.066 308.21 929.023 307.661C929.023 307.495 929.023 307.321 929.023 307.155C929.023 306.213 929.075 305.236 928.892 304.303C928.892 304.295 928.892 304.286 928.892 304.277C928.597 303.614 928.249 302.96 927.936 302.306C927.919 302.289 927.893 302.271 927.867 302.245C927.623 302.088 927.371 301.94 927.11 301.8C926.441 301.434 925.78 301.068 925.18 300.614C924.546 300.274 923.885 299.969 923.207 299.716C923.042 299.576 922.85 299.454 922.616 299.385C921.503 299.027 920.39 298.669 919.277 298.312C919.13 298.26 918.982 298.207 918.834 298.155C916.469 297.361 913.974 296.681 911.445 296.48C909.871 296.193 908.185 296.01 906.594 296.184C906.185 296.228 905.785 296.297 905.394 296.402C905.394 296.385 905.394 296.376 905.403 296.358C904.525 296.943 903.586 297.483 902.916 298.26C902.447 298.809 902.099 299.446 901.821 300.1C900.969 305.603 900.769 311.193 901.273 316.74C901.499 319.225 901.777 321.772 902.638 324.118C902.638 324.153 902.655 324.187 902.664 324.222C902.699 324.371 902.76 324.493 902.829 324.597C902.829 324.615 902.847 324.641 902.855 324.658C903.864 330.144 905.681 335.664 907.889 340.496C913.522 352.845 923.842 361.261 936.977 364.889C951.652 368.944 968.135 366.092 980.193 361.296C992.25 356.508 996.684 350.639 1002.15 341.01C1007.61 331.374 1008.99 320.533 1008.68 309.484L1008.7 309.492ZM911.123 284.637C910.81 284.018 910.697 283.312 910.706 282.623C910.784 283.285 910.923 283.957 911.123 284.637ZM906.42 301.574C906.359 301.652 906.298 301.722 906.237 301.8C906.255 301.722 906.281 301.652 906.298 301.574C906.333 301.574 906.376 301.574 906.411 301.574H906.42Z" fill="#5377FC"/>
<path d="M1074.17 432.43C1059.81 443.38 1048.89 445.079 1033.62 434.497C1029.46 431.615 1025.61 428.829 1021.38 433.017C1017.17 437.186 1019.72 441.12 1022.65 445.334C1032.85 459.998 1032.04 474.943 1020.99 485.928C1009.41 497.439 993.925 498.718 979.75 488.618C975.843 485.832 972.066 483.931 967.88 485.657C963.329 487.532 965.818 492.113 965.67 495.591C965.505 499.481 955.237 511.841 951.869 511.684C948.005 511.508 946.152 508.363 944.612 505.297C939.208 494.61 942.567 476.459 951.216 469.1C962.416 459.578 977.365 458.535 988.852 466.481C989.609 467.006 990.218 467.812 991.027 468.207C995.335 470.3 1000.21 474.829 1004.39 470.081C1008.32 465.631 1005.99 460.559 1002.24 455.925C994.229 446.017 994.647 425.965 1002.48 417.809C1014.55 405.247 1031.08 403.573 1044.15 413.727C1048.04 416.749 1052.34 419.044 1056.93 416.915C1061.45 414.822 1060.26 410.669 1059.31 406.403C1058.19 401.392 1070.7 389.855 1075.44 390.915C1077.37 391.344 1078.38 392.974 1079.32 394.656C1086.23 406.964 1084.13 422.609 1074.18 432.412L1074.17 432.43Z" fill="#373E51"/>
<path d="M791.461 482.688C787.048 483.111 783.411 484.493 779.175 483.178L780.04 483.267C772.167 483.334 764.65 479.925 758.085 475.736L758.95 475.825C749.969 469.631 742.118 460.919 741.542 449.445L741.453 450.314C741.631 448.576 740.944 446.749 740.256 444.922C738.704 443.006 743.295 440.845 740.012 438.751C742.63 430.24 743.695 419.813 751.324 413.575C752.366 411.926 753.408 410.278 754.362 409.498L753.408 410.278C762.856 403.349 773.08 397.379 785.1 399.496L784.235 399.406C792.108 399.34 798.85 401.791 805.414 405.98L804.549 405.891C811.202 409.211 814.994 414.87 818.786 420.529L818.01 419.571C820.338 422.445 819.895 426.79 821.358 429.575L821.447 428.706C822.822 432.36 820.737 435.657 822.201 438.442L822.289 437.573C822.023 440.18 820.892 442.697 820.626 445.304L820.715 444.435C821.402 446.262 818.719 446.864 818.541 448.601L819.406 448.691C817.499 450.25 816.456 451.899 813.773 452.5L814.638 452.589C811.178 452.233 808.406 453.703 805.989 451.698L806.854 451.787C805.035 452.478 803.483 450.561 801.753 450.383L802.618 450.472C799.158 450.116 796.741 448.11 793.459 446.016L794.324 446.105C792.683 445.058 790.177 443.922 788.624 442.005L789.401 442.964C785.342 439.911 783.014 437.037 779.909 433.205L780.685 434.163C779.222 431.378 779.577 427.902 779.843 425.295L779.754 426.164C779.843 425.295 779.932 424.426 780.885 423.647C780.885 423.647 775.607 423.981 780.797 424.516C780.797 424.516 781.75 423.736 781.839 422.867C781.839 422.867 776.561 423.201 781.75 423.736C782.615 423.825 782.704 422.956 783.658 422.176C783.658 422.176 778.379 422.51 783.569 423.045C784.434 423.134 785.387 422.355 786.252 422.444L785.387 422.355C788.758 423.58 791.175 425.585 792.639 428.37L791.863 427.412C792.639 428.37 793.326 430.197 794.103 431.155L793.326 430.197C794.701 433.851 795.211 437.416 794.856 440.892L794.945 440.023C795.455 443.588 793.459 446.016 791.374 449.313C790.509 449.224 790.243 451.831 788.424 452.521L789.378 451.742C785.741 453.123 782.791 456.331 778.467 455.885L779.332 455.974C775.872 455.618 772.412 455.261 769.042 454.036C769.042 454.036 769.374 459.338 769.906 454.125C763.165 451.674 760.415 444.366 758.442 438.016C757.244 432.624 752.765 425.138 745.491 427.901C738.704 443.006 749.126 460.763 762.344 468.272C775.561 475.781 792.438 473.13 803.194 461.946C810.047 454.75 812.753 445.371 812.864 435.724C813.064 425.208 807.986 415.025 798.916 409.7C792.352 405.511 783.614 405.489 776.251 409.12C766.027 415.091 762.19 426.988 764.585 437.771C770.505 456.821 788.557 468.34 806.187 475.426C815.524 478.144 825.481 474.78 831.558 466.626C832.601 464.978 833.732 462.46 834.774 460.811C843.557 443.278 841.362 421.978 829.032 405.78C823.599 399.074 817.213 393.147 809.783 388.869C802.354 384.591 793.794 382.831 785.145 381.939C773.812 381.649 763.079 384.055 751.99 389.936C730.589 402.657 720.408 425.315 723.202 449.311C725.751 467.134 735.575 482.196 750.345 491.621C751.986 492.668 754.492 493.804 756.133 494.852C763.651 498.261 771.257 500.801 779.13 500.734C787.092 499.799 793.679 495.21 796.207 487.568C796.385 485.83 795.609 484.872 794.921 483.045C794.145 482.087 793.369 481.129 791.461 482.688Z" fill="#FFC240"/>
<path d="M824.045 469.504C823.654 470.342 823.222 471.141 822.76 471.901C821.658 471.401 820.33 471.22 818.758 471.55C810.662 473.209 804.96 479.145 797.222 481.315C796.97 481.386 796.712 481.429 796.461 481.491C792.458 481.834 788.328 481.619 784.257 481.085C782.946 480.915 781.67 480.66 780.406 480.372C776.336 479.145 772.357 477.453 768.616 475.917C767.887 475.613 767.184 475.479 766.507 475.427C760.734 472.909 755.014 470.291 748.715 469.071C742.21 467.812 739.955 475.772 742.726 480.211C752.374 495.632 778.718 499.981 795.355 499.597C812.841 499.196 829.19 490.757 836.76 474.485C840.489 466.476 827.741 461.561 824.044 469.513L824.045 469.504Z" fill="#FFC240"/>
<path d="M751.582 287.43C744.99 289.647 738.163 291.15 731.436 292.961C735.238 286.901 739.572 281.954 744.455 277.62C749.624 273.036 749.522 269.582 743.395 266.421C739.064 261.275 734.633 261.084 730.101 265.849C729.187 266.809 728.513 267.994 727.729 269.073C727.356 269.092 727.119 269.283 727.026 269.642C725.346 270.33 724.174 271.504 723.521 273.208C721.155 273.854 720.404 277.212 716.422 276.964C718.259 269.877 719.935 263.069 721.798 256.319C722.763 252.849 722.53 250.425 718.108 249.942C716.338 249.75 714.631 249.224 713.024 248.463C706.652 245.43 704.269 248.034 703.152 254.411C702.012 260.904 699.823 267.208 698.089 273.598C695.276 268.314 694.065 263.405 692.647 258.56C688.732 245.163 692.103 246.327 677.467 249.805C672.863 250.9 672.318 252.973 673.621 257.116C675.788 263.993 677.424 271.04 679.285 278.017C674.358 275.067 670.692 271.414 666.969 267.814C657.585 258.72 657.676 258.822 648.733 268.762C646.379 271.376 646.033 273.151 648.687 275.575C653.406 279.902 657.965 284.408 662.592 288.832C662.716 289.567 662.807 290.076 662.931 290.812C662.743 291.188 662.554 291.555 662.364 291.923C655.286 291.305 648.758 288.396 641.858 287.025C640.127 286.678 637.659 284.882 637.4 288.705L637.575 288.82C637.29 289.44 637.005 290.059 636.712 290.68C636.707 290.664 636.714 290.653 636.717 290.634C636.177 291.882 635.491 293.089 635.116 294.383C632.436 303.741 632.472 303.704 641.731 306.122C647.458 307.618 653.15 309.251 658.854 310.827L658.887 312.165C654.363 313.627 649.838 315.089 645.322 316.549C642.496 316.686 639.845 317.481 637.305 318.689C629.307 321.538 635.531 325.94 636.117 329.725C636.245 330.205 636.374 330.686 636.502 331.167C636.444 336.654 639.232 336.744 643.628 335.543C679.463 325.761 715.347 316.165 751.222 306.498C764.642 302.886 762.319 304.605 759.592 292.119C758.493 287.052 756.546 285.759 751.59 287.427L751.582 287.43Z" fill="#A0DEF5"/>
</g>
</svg>
