<svg width="621" height="290" viewBox="0 0 621 290" fill="none" xmlns="http://www.w3.org/2000/svg">
<rect x="51.5" y="67" width="518" height="174" rx="87" fill="#EAF9FF"/>
<path d="M455.199 87.4924C454.894 76.4515 454.434 66.0123 448.235 55.547C440.576 42.6136 425.189 32.3314 408.123 30.3604C393.127 28.6249 376.818 33.2035 365.986 43.3549C363.448 45.1078 361.222 47.1835 359.327 49.5294C358.231 50.8986 357.275 52.3463 356.467 53.8725C356.449 53.8987 356.441 53.9249 356.423 53.951C356.354 54.0208 356.284 54.0906 356.215 54.1778C354.989 55.8697 354.015 57.7185 353.346 59.6546C352.694 61.5471 352.163 63.7012 353.476 65.4716C354.598 66.9804 356.397 67.8612 358.153 68.6374C360.205 69.5531 362.343 70.338 364.543 70.9048C365.595 71.1752 366.673 71.3932 367.76 71.5589C368.272 71.7159 368.794 71.8206 369.333 71.8642C369.446 71.9339 369.568 71.995 369.707 72.0299C370.941 72.4049 372.237 72.7276 373.532 72.7101C373.767 72.6578 374.01 72.6403 374.254 72.6229C374.653 72.5967 375.036 72.4921 375.41 72.3525C376.157 72.0735 376.688 71.5851 377.122 70.9659C377.635 70.2333 378.018 69.4135 378.505 68.6722C378.861 67.8873 379.261 67.1112 379.678 66.3524C384.399 61.9483 387.624 55.8784 394.492 54.5877C404.559 52.7039 410.592 58.0412 419.712 63.0733C427.327 67.2769 430.483 79.5911 428.77 88.068C427.266 95.5158 426.241 102.99 422.841 110.472C421.468 113.49 420.946 116.647 416.287 118.845C411.123 121.269 401.821 122.699 395.283 121.435C392.266 120.851 388.476 119.237 386.477 117.388C381.878 113.15 380.026 108.039 378.087 102.833C377.435 99.1351 377.148 95.3763 376.566 91.6611C376.34 90.2046 376.079 88.7308 375.714 87.2918C375.636 86.7511 375.566 86.2104 375.523 85.6609C375.523 85.4952 375.523 85.3208 375.523 85.1551C375.523 84.2132 375.575 83.2365 375.392 82.3033C375.392 82.2946 375.392 82.2859 375.392 82.2772C375.097 81.6144 374.749 80.9603 374.436 80.3062C374.419 80.2888 374.393 80.2713 374.367 80.2451C374.123 80.0882 373.871 79.9399 373.61 79.8004C372.941 79.4341 372.28 79.0678 371.68 78.6143C371.046 78.2742 370.385 77.9689 369.707 77.716C369.542 77.5765 369.35 77.4544 369.116 77.3846C368.003 77.0271 366.89 76.6695 365.777 76.3119C365.63 76.2596 365.482 76.2073 365.334 76.1549C362.969 75.3613 360.474 74.6811 357.945 74.4805C356.371 74.1927 354.685 74.0096 353.094 74.184C352.685 74.2276 352.285 74.2974 351.894 74.402C351.894 74.3846 351.894 74.3758 351.903 74.3584C351.025 74.9427 350.086 75.4834 349.416 76.2596C348.947 76.809 348.599 77.4457 348.321 78.0998C347.469 83.6028 347.269 89.193 347.773 94.7396C347.999 97.2251 348.277 99.7717 349.138 102.118C349.138 102.153 349.155 102.187 349.164 102.222C349.199 102.371 349.26 102.493 349.329 102.597C349.329 102.615 349.347 102.641 349.355 102.658C350.364 108.144 352.181 113.664 354.389 118.496C360.022 130.845 370.342 139.261 383.477 142.889C398.152 146.944 414.635 144.092 426.693 139.296C438.75 134.508 443.184 128.639 448.652 119.01C454.112 109.374 455.494 98.5333 455.181 87.4837L455.199 87.4924ZM357.623 62.6372C357.31 62.018 357.197 61.3116 357.206 60.6227C357.284 61.2855 357.423 61.957 357.623 62.6372ZM352.92 79.5736C352.859 79.6521 352.798 79.7219 352.737 79.8004C352.755 79.7219 352.781 79.6521 352.798 79.5736C352.833 79.5736 352.876 79.5736 352.911 79.5736H352.92Z" fill="#5377FC"/>
<path d="M389.815 33.9884C391.136 33.2122 392.762 32.8198 393.797 31.7645C394.831 30.7093 395.196 29.0348 395.84 27.6918C396.483 26.3487 397.552 25.2412 397.848 23.8458C398.143 22.4504 397.596 20.9242 397.648 19.4939C397.709 17.7672 398.317 15.9793 398.022 14.27C397.726 12.5607 396.57 11.1304 395.796 9.55189C395.005 7.93849 394.44 6.01112 393.066 4.72912C391.693 3.44712 389.824 3.07211 388.059 2.40059C386.294 1.72906 384.355 0.699973 382.408 0.787184C380.356 0.883116 378.644 2.08663 377.227 3.34247C373.228 6.89195 370.281 11.1915 369.594 16.0317C368.898 20.9068 370.55 25.8865 373.297 30.3953C374.932 33.0814 377.444 35.4623 380.678 36.1338C383.686 36.753 386.903 35.7065 389.824 33.9797L389.815 33.9884Z" fill="white"/>
<path d="M394.327 7.65945C392.188 5.13905 387.589 5.06056 384.651 6.84838C381.704 8.64493 380.191 11.7671 379.504 14.8369C378.374 19.8603 379.183 25.372 382.617 29.5232C384.034 31.2326 386.129 32.7762 388.546 32.7064C390.302 32.6541 393.014 31.7558 394.127 30.5698C395.24 29.3837 395.979 28.2936 396.596 26.8546C398.065 23.4359 398.091 19.4765 397.987 15.8311C397.882 12.1857 396.326 8.43563 393.11 6.11581" fill="black"/>
<path d="M425.571 33.9884C426.892 33.2122 428.518 32.8198 429.553 31.7645C430.587 30.7093 430.952 29.0348 431.596 27.6918C432.239 26.3487 433.308 25.2412 433.604 23.8458C433.899 22.4504 433.352 20.9242 433.404 19.4939C433.465 17.7672 434.073 15.9793 433.778 14.27C433.482 12.5607 432.326 11.1304 431.552 9.55189C430.778 7.97337 430.196 6.01112 428.822 4.72912C427.449 3.44712 425.58 3.07211 423.815 2.40059C422.05 1.72906 420.112 0.699973 418.164 0.787184C416.113 0.883116 414.4 2.08663 412.983 3.34247C408.984 6.89195 406.037 11.1915 405.35 16.0317C404.655 20.9068 406.306 25.8865 409.053 30.3953C410.688 33.0814 413.2 35.4623 416.434 36.1338C419.442 36.753 422.659 35.7065 425.58 33.9797L425.571 33.9884Z" fill="white"/>
<path d="M430.083 7.65945C427.945 5.13905 423.346 5.06056 420.407 6.84838C417.46 8.64493 415.948 11.7671 415.261 14.8369C414.131 19.8603 414.939 25.372 418.373 29.5232C419.79 31.2326 421.885 32.7762 424.302 32.7064C426.058 32.6541 428.84 32.096 429.953 30.9099C431.066 29.7238 431.3 29.2878 431.917 27.8488C433.387 24.4301 433.847 19.4765 433.743 15.8311C433.639 12.1857 432.083 8.43563 428.866 6.11581" fill="black"/>
<path d="M406.054 10.5112C403.429 16.7904 403.916 23.9941 407.089 29.9767C408.436 32.5058 410.366 34.5553 412.974 35.8024C415.548 37.0234 418.408 37.4594 421.233 37.0583C424.302 36.6222 427.075 35.1135 429.362 33.0553C431.865 30.7965 433.491 27.8401 434.256 24.5609C435.786 18.0027 434.934 10.2583 430.3 5.11287C427.997 2.55759 424.85 0.804645 421.459 0.237774C418.069 -0.329098 414.565 0.0284675 411.949 2.28723C410.836 3.24655 412.453 4.85124 413.557 3.90064C415.426 2.29595 418.19 2.07793 420.538 2.39189C423.163 2.74945 425.667 3.87447 427.632 5.6623C432.178 9.78738 433.213 16.2672 432.413 22.1277C432.013 25.0493 431.005 27.936 429.04 30.1686C427.24 32.2093 424.867 33.8576 422.224 34.5553C417.773 35.7327 412.401 34.189 409.845 30.1773C406.228 24.4999 405.681 17.3224 408.262 11.1304C408.497 10.5636 408.01 9.87459 407.471 9.72633C406.819 9.54319 406.306 9.95308 406.072 10.52L406.054 10.5112Z" fill="black"/>
<path d="M370.298 10.5112C367.673 16.7904 368.159 23.9941 371.333 29.9767C372.68 32.5058 374.61 34.5553 377.218 35.8024C379.826 37.0495 382.651 37.4594 385.477 37.0583C388.546 36.6222 391.319 35.1135 393.605 33.0553C396.109 30.7965 397.735 27.8401 398.5 24.5609C400.03 18.0027 399.178 10.2583 394.544 5.11287C392.24 2.55759 389.093 0.804645 385.703 0.237774C382.312 -0.329098 378.809 0.0284675 376.192 2.28723C375.079 3.24655 376.696 4.85124 377.8 3.90064C379.67 2.29595 382.434 2.07793 384.781 2.39189C387.407 2.74945 389.911 3.87447 391.875 5.6623C396.422 9.78738 397.456 16.2672 396.657 22.1277C396.257 25.0493 395.248 27.936 393.284 30.1686C391.484 32.2093 389.111 33.8576 386.468 34.5553C382.017 35.7327 376.644 34.189 374.088 30.1773C370.472 24.4999 369.924 17.3224 372.506 11.1304C372.741 10.5636 372.254 9.87459 371.715 9.72633C371.063 9.54319 370.55 9.95308 370.315 10.52L370.298 10.5112Z" fill="black"/>
<path d="M520.673 210.43C506.306 221.38 495.385 223.079 480.122 212.497C475.963 209.615 472.108 206.829 467.879 211.017C463.667 215.186 466.217 219.12 469.149 223.334C479.348 237.998 478.539 252.943 467.487 263.928C455.914 275.439 440.425 276.718 426.25 266.618C422.343 263.832 418.566 261.931 414.38 263.657C409.829 265.532 412.318 270.113 412.17 273.591C412.005 277.481 401.737 289.841 398.369 289.684C394.505 289.508 392.652 286.363 391.112 283.297C385.708 272.61 389.067 254.459 397.716 247.1C408.916 237.578 423.865 236.535 435.352 244.481C436.109 245.006 436.718 245.812 437.527 246.207C441.835 248.3 446.708 252.829 450.893 248.081C454.818 243.631 452.486 238.559 448.735 233.925C440.729 224.017 441.147 203.965 448.979 195.809C461.048 183.247 477.581 181.573 490.652 191.727C494.541 194.749 498.84 197.044 503.435 194.915C507.951 192.822 506.759 188.669 505.81 184.403C504.688 179.392 517.201 167.855 521.943 168.915C523.866 169.344 524.876 170.974 525.816 172.656C532.733 184.964 530.628 200.609 520.681 210.412L520.673 210.43Z" fill="#373E51"/>
<path d="M510.448 190.141C511.771 189.361 513.398 188.967 514.434 187.907C515.469 186.847 515.835 185.165 516.479 183.816C517.122 182.467 518.193 181.354 518.489 179.953C518.784 178.551 518.236 177.018 518.288 175.581C518.349 173.847 518.959 172.051 518.663 170.334C518.367 168.617 517.209 167.18 516.435 165.595C515.643 163.974 515.078 162.038 513.703 160.75C512.328 159.463 510.457 159.086 508.69 158.411C506.924 157.737 504.983 156.703 503.034 156.791C500.981 156.887 499.266 158.096 497.848 159.357C493.845 162.923 490.895 167.242 490.208 172.104C489.52 176.966 491.165 182.003 493.915 186.532C495.551 189.23 498.066 191.621 501.303 192.296C504.313 192.918 507.533 191.867 510.457 190.132L510.448 190.141Z" fill="white"/>
<path d="M514.869 164.567C512.728 162.036 508.125 161.957 505.184 163.753C502.234 165.557 500.72 168.694 500.032 171.777C498.901 176.823 499.71 182.36 503.148 186.529C504.566 188.246 506.663 189.797 509.082 189.727C510.84 189.674 513.555 188.772 514.669 187.581C515.783 186.389 516.522 185.294 517.14 183.849C518.611 180.415 518.637 176.438 518.532 172.776C518.428 169.114 516.87 165.347 513.651 163.017" fill="black"/>
<path d="M546.239 190.141C547.561 189.361 549.189 188.967 550.224 187.907C551.26 186.847 551.625 185.165 552.269 183.816C552.913 182.467 553.983 181.354 554.279 179.953C554.575 178.551 554.027 177.018 554.079 175.581C554.14 173.847 554.749 172.051 554.453 170.334C554.157 168.617 553 167.18 552.225 165.595C551.451 164.009 550.868 162.038 549.493 160.75C548.118 159.463 546.247 159.086 544.481 158.411C542.714 157.737 540.774 156.703 538.825 156.791C536.771 156.887 535.057 158.096 533.638 159.357C529.636 162.923 526.686 167.242 525.998 172.104C525.302 177.001 526.955 182.003 529.705 186.532C531.341 189.23 533.856 191.621 537.093 192.296C540.104 192.918 543.323 191.867 546.247 190.132L546.239 190.141Z" fill="white"/>
<path d="M550.659 164.567C548.519 162.036 543.915 161.957 540.974 163.753C538.024 165.557 536.51 168.694 535.823 171.777C534.691 176.823 535.501 182.36 538.938 186.529C540.356 188.246 542.453 189.797 544.873 189.727C546.63 189.674 549.415 189.114 550.529 187.922C551.643 186.731 551.877 186.293 552.495 184.847C553.966 181.413 554.427 176.438 554.323 172.776C554.218 169.114 552.661 165.347 549.441 163.017" fill="black"/>
<path d="M526.703 166.558C524.075 172.866 524.563 180.102 527.739 186.111C529.087 188.652 531.019 190.71 533.63 191.963C536.206 193.19 539.068 193.628 541.896 193.225C544.968 192.787 547.744 191.271 550.033 189.204C552.539 186.935 554.166 183.965 554.932 180.671C556.463 174.083 555.611 166.304 550.973 161.136C548.667 158.569 545.516 156.808 542.123 156.239C538.729 155.669 535.222 156.029 532.603 158.297C531.489 159.261 533.108 160.873 534.213 159.918C536.084 158.306 538.851 158.087 541.2 158.403C543.828 158.762 546.334 159.892 548.301 161.688C552.852 165.831 553.888 172.34 553.087 178.227C552.687 181.162 551.677 184.061 549.711 186.304C547.909 188.354 545.534 190.01 542.889 190.71C538.433 191.893 533.055 190.342 530.497 186.313C526.877 180.61 526.329 173.4 528.913 167.18C529.148 166.611 528.661 165.919 528.122 165.77C527.469 165.586 526.956 165.998 526.721 166.567L526.703 166.558Z" fill="black"/>
<path d="M490.913 166.558C488.285 172.866 488.772 180.102 491.948 186.111C493.297 188.652 495.229 190.71 497.839 191.963C500.45 193.216 503.278 193.628 506.106 193.225C509.178 192.787 511.954 191.271 514.242 189.204C516.748 186.935 518.376 183.965 519.141 180.671C520.673 174.083 519.82 166.304 515.182 161.136C512.876 158.569 509.726 156.808 506.332 156.239C502.939 155.669 499.432 156.029 496.812 158.297C495.699 159.261 497.317 160.873 498.422 159.918C500.293 158.306 503.06 158.087 505.41 158.403C508.038 158.762 510.544 159.892 512.511 161.688C517.062 165.831 518.097 172.34 517.297 178.227C516.896 181.162 515.887 184.061 513.92 186.304C512.119 188.354 509.743 190.01 507.098 190.71C502.643 191.893 497.265 190.342 494.707 186.313C491.087 180.61 490.538 173.4 493.123 167.18C493.358 166.611 492.871 165.919 492.331 165.77C491.678 165.586 491.165 165.998 490.93 166.567L490.913 166.558Z" fill="black"/>
<path d="M237.961 260.688C233.548 261.111 229.911 262.493 225.675 261.178L226.54 261.267C218.667 261.334 211.15 257.925 204.585 253.736L205.45 253.825C196.469 247.631 188.618 238.919 188.042 227.445L187.953 228.314C188.131 226.576 187.444 224.749 186.756 222.922C185.204 221.006 189.795 218.845 186.512 216.751C189.13 208.24 190.195 197.813 197.824 191.575C198.866 189.926 199.908 188.278 200.862 187.498L199.908 188.278C209.356 181.349 219.58 175.379 231.6 177.496L230.735 177.406C238.608 177.34 245.35 179.791 251.914 183.98L251.049 183.891C257.702 187.211 261.494 192.87 265.286 198.529L264.51 197.571C266.838 200.445 266.395 204.79 267.858 207.575L267.947 206.706C269.322 210.36 267.237 213.657 268.701 216.442L268.789 215.573C268.523 218.18 267.392 220.697 267.126 223.304L267.215 222.435C267.902 224.262 265.219 224.864 265.041 226.601L265.906 226.691C263.999 228.25 262.956 229.899 260.273 230.5L261.138 230.589C257.678 230.233 254.906 231.703 252.489 229.698L253.354 229.787C251.535 230.478 249.983 228.561 248.253 228.383L249.118 228.472C245.658 228.116 243.241 226.11 239.959 224.016L240.824 224.105C239.183 223.058 236.677 221.922 235.124 220.005L235.901 220.964C231.842 217.911 229.514 215.037 226.409 211.205L227.185 212.163C225.722 209.378 226.077 205.902 226.343 203.295L226.254 204.164C226.343 203.295 226.432 202.426 227.385 201.647C227.385 201.647 222.107 201.981 227.297 202.516C227.297 202.516 228.25 201.736 228.339 200.867C228.339 200.867 223.061 201.201 228.25 201.736C229.115 201.825 229.204 200.956 230.158 200.176C230.158 200.176 224.879 200.51 230.069 201.045C230.934 201.134 231.887 200.355 232.752 200.444L231.887 200.355C235.258 201.58 237.675 203.585 239.139 206.37L238.363 205.412C239.139 206.37 239.826 208.197 240.603 209.155L239.826 208.197C241.201 211.851 241.711 215.416 241.356 218.892L241.445 218.023C241.955 221.588 239.959 224.016 237.874 227.313C237.009 227.224 236.743 229.831 234.924 230.521L235.878 229.742C232.241 231.123 229.291 234.331 224.967 233.885L225.832 233.974C222.372 233.618 218.912 233.261 215.542 232.036C215.542 232.036 215.874 237.338 216.406 232.125C209.665 229.674 206.915 222.366 204.942 216.016C203.744 210.624 199.265 203.138 191.991 205.901C185.204 221.006 195.626 238.763 208.844 246.272C222.061 253.781 238.938 251.13 249.694 239.946C256.547 232.75 259.253 223.371 259.364 213.724C259.564 203.208 254.486 193.025 245.416 187.7C238.852 183.511 230.114 183.489 222.751 187.12C212.527 193.091 208.69 204.988 211.085 215.771C217.005 234.821 235.057 246.34 252.687 253.426C262.024 256.144 271.981 252.78 278.058 244.626C279.101 242.978 280.232 240.46 281.274 238.811C290.057 221.278 287.862 199.978 275.532 183.78C270.099 177.074 263.713 171.147 256.283 166.869C248.854 162.591 240.294 160.831 231.645 159.939C220.312 159.649 209.579 162.055 198.49 167.936C177.089 180.657 166.908 203.315 169.702 227.311C172.251 245.134 182.075 260.196 196.845 269.621C198.486 270.668 200.992 271.804 202.633 272.852C210.151 276.261 217.757 278.801 225.63 278.734C233.592 277.799 240.179 273.21 242.707 265.568C242.885 263.83 242.109 262.872 241.421 261.045C240.645 260.087 239.869 259.129 237.961 260.688Z" fill="#FFC240"/>
<path d="M270.545 247.504C270.154 248.342 269.722 249.141 269.26 249.901C268.158 249.401 266.83 249.22 265.258 249.55C257.162 251.209 251.46 257.145 243.722 259.315C243.47 259.386 243.212 259.429 242.961 259.491C238.958 259.834 234.828 259.619 230.757 259.085C229.446 258.915 228.17 258.66 226.906 258.372C222.836 257.145 218.857 255.453 215.116 253.917C214.387 253.613 213.684 253.479 213.007 253.427C207.234 250.909 201.514 248.291 195.215 247.071C188.71 245.812 186.455 253.772 189.226 258.211C198.874 273.632 225.218 277.981 241.855 277.597C259.341 277.196 275.69 268.757 283.26 252.485C286.989 244.476 274.241 239.561 270.544 247.513L270.545 247.504Z" fill="#FFC240"/>
<path d="M220.289 171.597C221.683 170.959 223.34 170.735 224.477 169.79C225.614 168.844 226.147 167.214 226.924 165.941C227.701 164.669 228.877 163.675 229.313 162.315C229.749 160.956 229.36 159.379 229.557 157.959C229.793 156.245 230.581 154.526 230.46 152.793C230.34 151.059 229.336 149.516 228.726 147.864C228.117 146.212 227.737 144.197 226.501 142.779C225.265 141.361 223.444 140.795 221.756 139.945C220.069 139.095 218.245 137.871 216.299 137.758C214.248 137.643 212.422 138.667 210.884 139.773C206.544 142.899 203.175 146.881 201.999 151.633C200.811 156.418 201.948 161.549 204.222 166.323C205.574 169.167 207.832 171.797 210.981 172.798C213.91 173.723 217.217 173.01 220.299 171.589L220.289 171.597Z" fill="white"/>
<path d="M227.326 144.802C225.455 142.071 220.888 141.522 217.782 143.002C214.668 144.489 212.845 147.445 211.849 150.433C210.214 155.322 210.457 160.896 213.451 165.384C214.687 167.233 216.615 168.986 219.026 169.164C220.778 169.292 223.568 168.675 224.796 167.608C226.024 166.54 226.87 165.53 227.63 164.159C229.44 160.904 229.869 156.962 230.136 153.319C230.403 149.676 229.237 145.78 226.273 143.139" fill="black"/>
<path d="M255.863 175.264C257.256 174.626 258.914 174.402 260.05 173.457C261.187 172.511 261.721 170.88 262.497 169.608C263.274 168.336 264.451 167.342 264.887 165.982C265.323 164.622 264.933 163.046 265.131 161.626C265.367 159.912 266.154 158.193 266.034 156.46C265.914 154.726 264.909 153.183 264.3 151.531C263.677 149.842 263.311 147.864 262.075 146.446C260.839 145.027 259.017 144.462 257.33 143.612C255.643 142.762 253.819 141.538 251.872 141.425C249.821 141.31 247.995 142.334 246.457 143.44C242.118 146.566 238.748 150.547 237.572 155.299C236.384 160.085 237.521 165.216 239.795 169.99C241.148 172.834 243.405 175.464 246.554 176.464C249.484 177.39 252.791 176.677 255.872 175.256L255.863 175.264Z" fill="white"/>
<path d="M262.9 148.469C261.029 145.738 256.461 145.189 253.356 146.668C250.241 148.156 248.419 151.112 247.423 154.1C245.787 158.989 246.031 164.563 249.025 169.051C250.261 170.9 252.188 172.653 254.6 172.831C256.352 172.959 259.176 172.688 260.404 171.62C261.632 170.553 261.91 170.142 262.67 168.772C264.48 165.517 265.442 160.628 265.71 156.986C265.977 153.343 264.81 149.447 261.846 146.806" fill="black"/>
<path d="M238.835 149.871C235.584 155.858 235.335 163.085 237.883 169.372C238.967 172.03 240.678 174.269 243.146 175.779C245.614 177.289 248.383 177.988 251.235 177.878C254.332 177.758 257.245 176.539 259.729 174.723C262.45 172.729 264.368 169.95 265.463 166.762C267.652 160.384 267.593 152.581 263.506 146.979C261.474 144.197 258.522 142.128 255.206 141.216C251.984 140.33 248.369 140.3 245.536 142.282C244.331 143.124 245.776 144.888 246.972 144.055C248.994 142.647 251.767 142.714 254.07 143.267C256.646 143.893 259.022 145.27 260.795 147.253C264.899 151.829 265.269 158.391 263.877 164.148C263.181 167.018 261.884 169.791 259.703 171.814C257.705 173.663 255.176 175.061 252.475 175.485C247.927 176.202 242.739 174.113 240.605 169.854C237.584 163.827 237.77 156.619 240.969 150.715C241.26 150.174 240.846 149.438 240.324 149.235C239.694 148.985 239.142 149.341 238.851 149.882L238.835 149.871Z" fill="black"/>
<path d="M203.261 146.205C200.01 152.192 199.762 159.419 202.31 165.705C203.393 168.363 205.105 170.603 207.572 172.113C210.008 173.593 212.809 174.321 215.661 174.211C218.759 174.091 221.671 172.872 224.155 171.056C226.876 169.062 228.794 166.283 229.889 163.095C232.079 156.718 232.019 148.914 227.933 143.313C225.901 140.53 222.948 138.461 219.633 137.549C216.411 136.663 212.795 136.633 209.962 138.615C208.758 139.457 210.203 141.222 211.398 140.388C213.421 138.981 216.193 139.047 218.497 139.6C221.072 140.226 223.449 141.604 225.222 143.586C229.325 148.162 229.695 154.725 228.303 160.482C227.608 163.351 226.311 166.124 224.129 168.147C222.131 169.996 219.602 171.394 216.902 171.819C212.354 172.535 207.166 170.446 205.031 166.187C202.011 160.16 202.196 152.952 205.395 147.048C205.686 146.507 205.272 145.771 204.751 145.568C204.121 145.319 203.569 145.674 203.278 146.215L203.261 146.205Z" fill="black"/>
<path d="M198.082 65.4297C191.49 67.6472 184.663 69.1504 177.936 70.9612C181.738 64.9008 186.072 59.9544 190.955 55.6195C196.124 51.0361 196.022 47.5822 189.895 44.4207C185.564 39.2746 181.133 39.084 176.601 43.8487C175.687 44.8091 175.013 45.9943 174.229 47.0733C173.856 47.0923 173.619 47.2828 173.526 47.6424C171.846 48.3297 170.674 49.5043 170.021 51.2082C167.655 51.8541 166.904 55.2124 162.922 54.964C164.759 47.8774 166.435 41.0691 168.298 34.319C169.263 30.8491 169.03 28.4249 164.608 27.9424C162.838 27.7498 161.131 27.2235 159.524 26.4625C153.152 23.4302 150.769 26.0342 149.652 32.4115C148.512 38.9036 146.323 45.2079 144.589 51.5977C141.776 46.3145 140.565 41.4046 139.147 36.5596C135.232 23.1631 138.603 24.3265 123.967 27.805C119.363 28.8998 118.818 30.9727 120.121 35.1162C122.288 41.9931 123.924 49.04 125.785 56.0175C120.858 53.0667 117.192 49.4144 113.469 45.814C104.085 36.7199 104.176 36.8222 95.2332 46.762C92.8791 49.3761 92.5334 51.1511 95.187 53.5747C99.9056 57.902 104.465 62.4078 109.092 66.832C109.216 67.5672 109.307 68.0763 109.431 68.8115C109.243 69.1876 109.054 69.5552 108.864 69.9229C101.786 69.3052 95.2583 66.3962 88.3579 65.0255C86.6269 64.6776 84.1588 62.8823 83.9001 66.7047L84.075 66.8204C83.7901 67.4397 83.5052 68.0589 83.2119 68.6805C83.2074 68.6636 83.2136 68.6529 83.2175 68.6338C82.6774 69.8824 81.9911 71.0889 81.6163 72.3835C78.9363 81.7408 78.9716 81.7042 88.2305 84.122C93.9584 85.6185 99.6505 87.2512 105.354 88.8265L105.387 90.165C100.863 91.6272 96.338 93.0893 91.8217 94.5492C88.9958 94.6859 86.3455 95.4808 83.8054 96.689C75.8072 99.5383 82.0308 103.94 82.6172 107.725C82.7455 108.205 82.8737 108.686 83.002 109.167C82.9441 114.654 85.7316 114.744 90.1278 113.543C125.963 103.761 161.847 94.1645 197.722 84.4984C211.142 80.8858 208.819 82.6052 206.092 70.1188C204.993 65.0523 203.046 63.7589 198.09 65.4275L198.082 65.4297Z" fill="#A0DEF5"/>
<path d="M133.198 95.5195C134.274 94.425 135.743 93.6226 136.47 92.3327C137.197 91.0428 137.118 89.3279 137.393 87.8613C137.668 86.3947 138.415 85.0452 138.341 83.6184C138.266 82.1916 137.343 80.8575 137.025 79.4603C136.638 77.7739 136.764 75.8861 136.038 74.3093C135.311 72.7325 133.825 71.6495 132.67 70.3236C131.49 68.9685 130.447 67.2508 128.789 66.3678C127.131 65.4847 125.229 65.608 123.351 65.4172C121.473 65.2265 119.334 64.7351 117.476 65.3258C115.518 65.9522 114.175 67.5618 113.13 69.1453C110.182 73.6191 108.445 78.5449 109.03 83.4061C109.616 88.3032 112.497 92.6912 116.314 96.3388C118.586 98.5124 121.627 100.162 124.925 99.9711C127.99 99.7879 130.828 97.939 133.204 95.5089L133.198 95.5195Z" fill="white"/>
<path d="M130.761 68.8664C128.044 66.9842 123.581 68.1042 121.204 70.5979C118.821 73.1023 118.165 76.5161 118.294 79.6646C118.498 84.8182 120.701 89.9401 125.09 93.0632C126.9 94.3484 129.322 95.2969 131.639 94.6009C133.322 94.0936 135.71 92.5193 136.479 91.0825C137.248 89.6457 137.68 88.3989 137.905 86.8463C138.443 83.1569 137.446 79.3197 136.405 75.8201C135.363 72.3206 132.892 69.0973 129.186 67.6895" fill="black"/>
<path d="M167.74 86.2213C168.816 85.1268 170.285 84.3243 171.012 83.0344C171.739 81.7445 171.66 80.0297 171.935 78.5631C172.21 77.0965 172.957 75.7469 172.882 74.3201C172.808 72.8933 171.885 71.5593 171.566 70.162C171.18 68.4757 171.306 66.5878 170.58 65.011C169.853 63.4342 168.367 62.3512 167.212 61.0253C166.058 59.6994 164.989 57.9526 163.331 57.0695C161.673 56.1864 159.771 56.3097 157.893 56.119C156.015 55.9282 153.876 55.4368 152.018 56.0276C150.06 56.6539 148.716 58.2636 147.672 59.847C144.724 64.3208 142.987 69.2466 143.572 74.1078C144.158 78.969 147.039 83.393 150.856 87.0406C153.128 89.2142 156.169 90.8641 159.467 90.6728C162.532 90.4896 165.37 88.6407 167.746 86.2106L167.74 86.2213Z" fill="white"/>
<path d="M165.302 59.5681C162.586 57.6859 158.123 58.8059 155.746 61.2996C153.362 63.804 152.707 67.2178 152.835 70.3663C153.04 75.5199 155.243 80.6419 159.631 83.7649C161.441 85.0501 163.864 85.9986 166.18 85.3027C167.863 84.7954 170.407 83.532 171.176 82.0952C171.945 80.6584 172.059 80.1755 172.284 78.6228C172.821 74.9335 171.988 70.0214 170.946 66.5218C169.905 63.0223 167.434 59.799 163.728 58.3912" fill="black"/>
<path d="M142.828 68.584C141.912 75.3414 144.241 82.1838 148.85 87.1464C150.804 89.2428 153.197 90.7236 156.039 91.2519C158.84 91.7639 161.715 91.442 164.341 90.3192C167.193 89.0993 169.483 86.9185 171.16 84.3328C172.996 81.4965 173.804 78.2136 173.697 74.8424C173.483 68.0998 170.661 60.8293 164.857 57.0564C161.973 55.1834 158.48 54.3059 155.059 54.6392C151.637 54.9725 148.345 56.2294 146.4 59.0951C145.572 60.3126 147.549 61.4445 148.37 60.2377C149.761 58.1993 152.376 57.2694 154.724 56.9628C157.353 56.626 160.062 57.0633 162.421 58.2819C167.878 61.0903 170.549 67.09 171.289 72.9677C171.656 75.8981 171.427 78.953 170.105 81.6238C168.893 84.066 167.026 86.2778 164.653 87.64C160.656 89.9365 155.068 89.8403 151.564 86.6239C146.605 82.0718 144.224 75.2705 145.121 68.6088C145.201 67.9994 144.553 67.4594 143.994 67.4562C143.317 67.4485 142.927 67.9785 142.847 68.5879L142.828 68.584Z" fill="black"/>
<path d="M108.286 77.8823C107.37 84.6397 109.699 91.4821 114.308 96.4447C116.262 98.5411 118.656 100.022 121.497 100.55C124.338 101.078 127.173 100.74 129.799 99.6175C132.651 98.3976 134.941 96.2168 136.619 93.6311C138.454 90.7948 139.262 87.5119 139.155 84.1406C138.941 77.3981 136.12 70.1276 130.316 66.3547C127.431 64.4817 123.938 63.6042 120.517 63.9375C117.095 64.2707 113.803 65.5277 111.858 68.3934C111.031 69.6108 113.007 70.7428 113.828 69.536C115.22 67.4975 117.834 66.5677 120.182 66.2611C122.811 65.9243 125.52 66.3615 127.879 67.5802C133.336 70.3886 136.007 76.3883 136.747 82.266C137.114 85.1964 136.885 88.2513 135.563 90.9221C134.351 93.3643 132.484 95.5761 130.111 96.9383C126.115 99.2348 120.526 99.1385 117.022 95.9221C112.064 91.3701 109.682 84.5688 110.579 77.9071C110.66 77.2976 110.011 76.7577 109.453 76.7544C108.775 76.7468 108.386 77.2767 108.305 77.8862L108.286 77.8823Z" fill="black"/>
</svg>
