<svg width="358" height="310" viewBox="0 0 358 310" fill="none" xmlns="http://www.w3.org/2000/svg">
<g clip-path="url(#clip0_3383_23357)">
<rect y="0.37146" width="358" height="308.957" rx="31" fill="#F1F3FE"/>
<mask id="path-2-inside-1_3383_23357" fill="white">
<path d="M24 122.027H737.352V152.951H24V122.027Z"/>
</mask>
<path d="M24 122.027H737.352V152.951H24V122.027Z" fill="white"/>
<path d="M737.352 152.178H24V153.724H737.352V152.178Z" fill="#E5E7EA" mask="url(#path-2-inside-1_3383_23357)"/>
<g filter="url(#filter0_d_3383_23357)">
<rect x="36.3696" y="126.665" width="21.6467" height="21.6467" rx="10.8234" fill="white" shape-rendering="crispEdges"/>
<rect x="36.7562" y="127.052" width="20.8736" height="20.8736" rx="10.4368" stroke="#9BB0FF" stroke-width="0.773098" shape-rendering="crispEdges"/>
<path d="M47.1931 137.263V133.881M44.8067 134.783C44.0577 135.444 43.5853 136.411 43.5853 137.489C43.5853 139.481 45.2006 141.097 47.1931 141.097C49.1856 141.097 50.8009 139.481 50.8009 137.489C50.8009 136.411 50.3285 135.444 49.5795 134.783" stroke="#5377FC" stroke-width="0.773098" stroke-linecap="round" stroke-linejoin="round"/>
</g>
<path d="M80.1096 140.105L79.5244 134.064C79.486 133.668 79.153 133.365 78.7549 133.365H77.4981H76.3126C75.8857 133.365 75.5396 133.712 75.5396 134.139V139.332C75.5396 139.759 75.8857 140.105 76.3126 140.105H78.4774M80.1096 140.105H78.4774M80.1096 140.105L78.8039 142.127M76.6246 138.081L77.5681 135.534L78.5832 138.081M76.9496 137.204H78.2335M79.62 135.05H83.5282C83.9552 135.05 84.3013 135.397 84.3013 135.824V141.354C84.3013 141.781 83.9552 142.127 83.5282 142.127H78.8039M78.8039 142.127L78.4774 140.105M80.9178 137.651H81.3332M83.2028 137.651H82.077M82.077 136.917V137.651M82.077 137.651H81.3332M81.3332 137.651C81.442 138.325 81.7724 139.224 83.1386 139.836M82.7799 137.651C82.6711 138.325 82.5009 139.213 81.1584 139.836" stroke="#485269" stroke-width="0.773098" stroke-linecap="round" stroke-linejoin="round"/>
<path d="M91.2822 141.989V134.412H92.4079V141.004H96.1636V141.989H91.2822ZM98.6026 142.097C97.5527 142.097 96.7193 141.632 96.7193 140.517C96.7193 139.434 97.5094 138.991 98.516 138.872L99.9122 138.709C100.432 138.644 100.605 138.547 100.605 138.374V138.222C100.605 137.324 100.139 137.086 99.3494 137.086C98.5376 137.086 98.083 137.324 98.083 138.038V138.168H97.0332V137.941C97.0332 136.815 97.8233 136.252 99.371 136.252C100.962 136.252 101.698 136.848 101.698 138.211V141.989H100.67V141.08H100.627C100.518 141.296 99.988 142.097 98.6026 142.097ZM98.8732 141.242C100.064 141.242 100.605 140.506 100.605 139.9V139.283C100.529 139.402 100.388 139.478 99.8364 139.543L98.7757 139.683C98.0722 139.77 97.8125 140.019 97.8125 140.463C97.8125 140.993 98.1913 141.242 98.8732 141.242ZM106.869 138.731C106.869 137.724 106.436 137.172 105.549 137.172C104.661 137.172 104.044 137.724 104.044 138.731V141.989H102.951V136.361H104.044V137.486H104.077C104.174 137.064 104.715 136.252 105.971 136.252C107.075 136.252 107.962 136.891 107.962 138.482V141.989H106.869V138.731ZM111.569 144.251C110.454 144.251 109.079 143.861 109.069 142.433H110.032C110.064 143.071 110.757 143.396 111.547 143.396C112.478 143.396 113.236 142.952 113.236 141.859V140.928H113.214C112.868 141.513 112.142 141.859 111.352 141.859C110.118 141.859 108.906 141.047 108.906 139.056C108.906 137.064 110.129 136.252 111.352 136.252C112.142 136.252 112.868 136.599 113.214 137.183H113.236V136.361H114.329V141.859C114.329 143.807 112.748 144.251 111.569 144.251ZM111.612 140.95C112.478 140.95 113.29 140.344 113.29 139.056C113.29 137.768 112.478 137.172 111.612 137.172C110.735 137.172 109.934 137.768 109.934 139.056C109.934 140.344 110.735 140.95 111.612 140.95ZM116.633 139.618C116.633 140.625 117.066 141.177 117.953 141.177C118.841 141.177 119.458 140.625 119.458 139.618V136.361H120.551V141.989H119.458V140.863H119.425C119.328 141.285 118.787 142.097 117.531 142.097C116.427 142.097 115.54 141.458 115.54 139.867V136.361H116.633V139.618ZM123.378 142.097C122.328 142.097 121.495 141.632 121.495 140.517C121.495 139.434 122.285 138.991 123.291 138.872L124.688 138.709C125.207 138.644 125.38 138.547 125.38 138.374V138.222C125.38 137.324 124.915 137.086 124.125 137.086C123.313 137.086 122.858 137.324 122.858 138.038V138.168H121.809V137.941C121.809 136.815 122.599 136.252 124.146 136.252C125.737 136.252 126.473 136.848 126.473 138.211V141.989H125.445V141.08H125.402C125.294 141.296 124.763 142.097 123.378 142.097ZM123.649 141.242C124.839 141.242 125.38 140.506 125.38 139.9V139.283C125.305 139.402 125.164 139.478 124.612 139.543L123.551 139.683C122.848 139.77 122.588 140.019 122.588 140.463C122.588 140.993 122.967 141.242 123.649 141.242ZM130.013 144.251C128.898 144.251 127.523 143.861 127.513 142.433H128.476C128.508 143.071 129.201 143.396 129.991 143.396C130.922 143.396 131.68 142.952 131.68 141.859V140.928H131.658C131.312 141.513 130.586 141.859 129.796 141.859C128.563 141.859 127.35 141.047 127.35 139.056C127.35 137.064 128.573 136.252 129.796 136.252C130.586 136.252 131.312 136.599 131.658 137.183H131.68V136.361H132.773V141.859C132.773 143.807 131.193 144.251 130.013 144.251ZM130.056 140.95C130.922 140.95 131.734 140.344 131.734 139.056C131.734 137.768 130.922 137.172 130.056 137.172C129.179 137.172 128.379 137.768 128.379 139.056C128.379 140.344 129.179 140.95 130.056 140.95ZM136.441 142.097C134.925 142.097 133.713 141.209 133.713 139.186C133.713 137.118 134.947 136.252 136.397 136.252C137.848 136.252 138.963 137.129 138.963 139.099C138.963 139.294 138.952 139.402 138.93 139.521H134.763C134.85 140.701 135.445 141.242 136.452 141.242C137.144 141.242 137.675 140.993 137.913 140.333H138.887C138.551 141.588 137.588 142.097 136.441 142.097ZM134.774 138.698H137.924C137.902 137.714 137.35 137.107 136.387 137.107C135.488 137.107 134.871 137.627 134.774 138.698Z" fill="#485269"/>
<path d="M159.104 135.459H167.801M166.352 137.489H160.554M164.032 139.808H160.554M160.554 142.127H166.352C167.312 142.127 168.091 141.349 168.091 140.388V134.59C168.091 133.629 167.312 132.85 166.352 132.85H160.554C159.593 132.85 158.814 133.629 158.814 134.59V140.388C158.814 141.349 159.593 142.127 160.554 142.127Z" stroke="#485269" stroke-width="0.773098" stroke-linecap="round" stroke-linejoin="round"/>
<path d="M175.106 141.989V134.412H177.996C179.609 134.412 180.334 135.17 180.334 136.263C180.334 137.064 179.955 137.594 179.284 137.833C180.269 138.103 180.832 138.763 180.832 139.792C180.832 141.047 179.955 141.989 178.061 141.989H175.106ZM177.996 141.025C179.132 141.025 179.641 140.473 179.641 139.716C179.641 138.958 179.132 138.428 177.996 138.428H176.232V141.025H177.996ZM177.92 137.475C178.721 137.475 179.176 137.107 179.176 136.404C179.176 135.722 178.721 135.365 177.92 135.365H176.232V137.475H177.92ZM181.776 141.989V134.412H182.869V141.989H181.776ZM186.548 142.097C185.151 142.097 183.809 141.188 183.809 139.175C183.809 137.162 185.151 136.252 186.548 136.252C187.955 136.252 189.297 137.162 189.297 139.175C189.297 141.188 187.955 142.097 186.548 142.097ZM186.548 141.177C187.457 141.177 188.258 140.56 188.258 139.175C188.258 137.789 187.457 137.172 186.548 137.172C185.638 137.172 184.848 137.789 184.848 139.175C184.848 140.56 185.638 141.177 186.548 141.177ZM192.687 144.251C191.572 144.251 190.197 143.861 190.187 142.433H191.15C191.182 143.071 191.875 143.396 192.665 143.396C193.596 143.396 194.354 142.952 194.354 141.859V140.928H194.332C193.986 141.513 193.26 141.859 192.47 141.859C191.236 141.859 190.024 141.047 190.024 139.056C190.024 137.064 191.247 136.252 192.47 136.252C193.26 136.252 193.986 136.599 194.332 137.183H194.354V136.361H195.447V141.859C195.447 143.807 193.867 144.251 192.687 144.251ZM192.73 140.95C193.596 140.95 194.408 140.344 194.408 139.056C194.408 137.768 193.596 137.172 192.73 137.172C191.853 137.172 191.052 137.768 191.052 139.056C191.052 140.344 191.853 140.95 192.73 140.95Z" fill="#485269"/>
<path d="M223.376 142.127C222.822 142.127 222.373 141.672 222.373 141.111L222.373 133.867C222.373 133.305 222.78 132.85 223.334 132.85M217.108 142.127C217.662 142.127 218.111 141.672 218.111 141.111L218.111 133.867C218.111 133.305 217.662 132.85 217.108 132.85M220.242 142.127V142.096M220.242 139.847V139.816M220.242 137.504V137.473M220.242 135.193V135.162M220.242 132.881V132.85M217.122 132.85C216.568 132.85 216.119 133.305 216.119 133.867V141.111C216.119 141.672 216.568 142.127 217.122 142.127M223.362 142.127C223.916 142.127 224.365 141.672 224.365 141.111V133.867C224.365 133.305 223.916 132.85 223.362 132.85" stroke="#485269" stroke-width="0.773098" stroke-linecap="round" stroke-linejoin="round"/>
<path d="M231.561 141.989L234.408 134.412H235.815L238.661 141.989H237.481L236.843 140.246H233.379L232.741 141.989H231.561ZM233.693 139.391H236.529L235.144 135.592H235.079L233.693 139.391ZM239.216 141.989L242.16 134.412H243.253L240.309 141.989H239.216ZM244.18 141.989V134.412H247.069C248.682 134.412 249.407 135.17 249.407 136.263C249.407 137.064 249.028 137.594 248.357 137.833C249.342 138.103 249.905 138.763 249.905 139.792C249.905 141.047 249.028 141.989 247.134 141.989H244.18ZM247.069 141.025C248.206 141.025 248.715 140.473 248.715 139.716C248.715 138.958 248.206 138.428 247.069 138.428H245.305V141.025H247.069ZM246.994 137.475C247.795 137.475 248.249 137.107 248.249 136.404C248.249 135.722 247.795 135.365 246.994 135.365H245.305V137.475H246.994ZM255.346 141.989V135.419H253.019V134.412H258.798V135.419H256.471V141.989H255.346ZM261.064 142.097C259.549 142.097 258.337 141.209 258.337 139.186C258.337 137.118 259.571 136.252 261.021 136.252C262.471 136.252 263.586 137.129 263.586 139.099C263.586 139.294 263.575 139.402 263.554 139.521H259.387C259.473 140.701 260.068 141.242 261.075 141.242C261.768 141.242 262.298 140.993 262.536 140.333H263.51C263.175 141.588 262.211 142.097 261.064 142.097ZM259.397 138.698H262.547C262.525 137.714 261.973 137.107 261.01 137.107C260.112 137.107 259.495 137.627 259.397 138.698ZM266.55 142.097C265.197 142.097 264.234 141.534 264.202 140.311H265.186C265.273 141.004 265.868 141.253 266.561 141.253C267.254 141.253 267.795 141.004 267.795 140.398C267.795 139.943 267.481 139.759 266.951 139.64L265.901 139.402C264.84 139.153 264.364 138.612 264.364 137.854C264.364 136.826 265.241 136.252 266.55 136.252C267.892 136.252 268.704 136.858 268.758 138.017H267.838C267.741 137.324 267.265 137.097 266.561 137.097C265.825 137.097 265.425 137.346 265.425 137.833C265.425 138.222 265.674 138.46 266.258 138.59L267.319 138.828C268.228 139.045 268.91 139.413 268.91 140.376C268.91 141.621 267.784 142.097 266.55 142.097ZM271.922 142.065C270.98 142.065 270.342 141.664 270.342 140.56V137.226H269.422V136.361H270.342V134.943H271.435V136.361H272.55V137.226H271.435V140.376C271.435 140.928 271.619 141.177 272.225 141.177C272.355 141.177 272.452 141.177 272.625 141.155V141.978C272.42 142.032 272.182 142.065 271.922 142.065ZM273.511 141.989V136.361H274.604V141.989H273.511ZM274.052 135.387C273.705 135.387 273.402 135.105 273.402 134.737C273.402 134.38 273.705 134.088 274.052 134.088C274.398 134.088 274.701 134.38 274.701 134.737C274.701 135.105 274.398 135.387 274.052 135.387ZM279.733 138.731C279.733 137.724 279.3 137.172 278.412 137.172C277.525 137.172 276.908 137.724 276.908 138.731V141.989H275.815V136.361H276.908V137.486H276.94C277.038 137.064 277.579 136.252 278.834 136.252C279.938 136.252 280.826 136.891 280.826 138.482V141.989H279.733V138.731ZM284.432 144.251C283.317 144.251 281.943 143.861 281.932 142.433H282.895C282.928 143.071 283.62 143.396 284.411 143.396C285.341 143.396 286.099 142.952 286.099 141.859V140.928H286.077C285.731 141.513 285.006 141.859 284.216 141.859C282.982 141.859 281.77 141.047 281.77 139.056C281.77 137.064 282.993 136.252 284.216 136.252C285.006 136.252 285.731 136.599 286.077 137.183H286.099V136.361H287.192V141.859C287.192 143.807 285.612 144.251 284.432 144.251ZM284.476 140.95C285.341 140.95 286.153 140.344 286.153 139.056C286.153 137.768 285.341 137.172 284.476 137.172C283.599 137.172 282.798 137.768 282.798 139.056C282.798 140.344 283.599 140.95 284.476 140.95Z" fill="#485269"/>
<g filter="url(#filter1_ddd_3383_23357)">
<rect width="713.352" height="46.3859" transform="translate(24 152.951)" fill="white"/>
<g clip-path="url(#clip1_3383_23357)">
<path d="M82.3177 177.505V177.812L82.2889 178.063L82.2035 178.705L82.261 179.04V179.765L82.2322 180.072L82.261 180.574V180.853L82.2322 181.02V181.69L82.261 181.997C82.261 181.997 82.1853 182.674 82.239 183.054C82.267 183.254 82.2042 183.893 82.2042 183.893L82.2179 184.623V184.986L82.2617 185.763C82.2617 185.874 82.1937 186.127 82.0795 186.267C81.9078 186.434 81.7483 186.546 81.535 186.547C81.3218 186.547 81.2129 186.489 81.0587 186.498C80.9044 186.507 80.7471 186.515 80.7471 186.515C80.5467 186.543 80.3471 186.572 80.1467 186.515L79.8034 186.459H79.4322C79.4322 186.459 78.9165 186.555 78.7002 186.546C78.4839 186.538 78.2767 186.524 78.1648 186.417C78.0529 186.31 77.9463 186.099 77.9463 185.954V185.679L77.9176 184.73L77.9463 183.976L77.8888 183.641L77.9176 182.916L77.975 182.665L77.9176 181.995V181.605L77.8601 181.27C77.8314 181.074 77.8314 180.963 77.8601 180.768L77.8888 180.629L77.9176 180.043L77.9463 179.68L77.975 178.843L77.9176 178.063V177.728L77.8888 177.281C77.8888 177.086 78.003 175.858 78.003 175.858C78.003 175.858 77.8737 175.083 77.9456 174.47C78.0174 173.856 77.9244 173.496 77.9244 173.496L77.9085 173.138L77.9372 172.413C77.9085 172.19 77.9947 171.966 78.1376 171.855C78.2805 171.743 78.4522 171.687 78.6518 171.687H79.3664L79.6809 171.743L80.3955 171.715L80.8243 171.743C80.8243 171.743 81.3105 171.67 81.4375 171.67C81.5645 171.67 81.7407 171.699 81.9154 171.774C82.0061 171.813 82.202 171.965 82.2247 172.273C82.2534 172.329 82.2231 172.371 82.2231 172.427L82.2534 172.776C82.2534 172.999 82.2239 173.175 82.2368 173.325C82.2496 173.475 82.2655 173.663 82.2655 173.663C82.2655 173.663 82.233 175.245 82.233 175.328V175.621L82.2904 176.472C82.3192 176.695 82.3192 177.505 82.3192 177.505L82.3177 177.505ZM76.9058 173.262V172.537C76.9346 172.397 76.8408 172.023 76.555 171.828C76.2979 171.661 76.164 171.667 76.0204 171.673C75.8767 171.678 75.6763 171.684 75.6763 171.684L75.3345 171.728L74.62 171.867L74.5625 171.895C74.4196 171.923 74.2479 171.951 74.1338 172.035L73.7337 172.286L73.2846 172.585C73.2437 172.594 73.2059 172.608 73.1742 172.63C73.1462 172.65 73.1235 172.676 73.1031 172.706C73.0736 172.733 73.0192 172.76 72.9912 172.788L72.7628 172.983C72.7628 172.983 72.4021 173.343 72.2403 173.449C72.0785 173.555 71.5741 173.734 71.221 173.578C71.1341 173.54 71.0418 173.498 70.9473 173.454C70.8036 173.354 70.7356 173.336 70.5586 173.213C70.4081 173.108 70.3666 172.971 70.1866 172.864C69.7669 172.613 69.6958 172.461 69.2898 172.191C68.9911 171.994 68.4762 171.822 68.0013 171.747C67.4901 171.666 66.8981 171.74 66.3997 171.82C65.8341 171.91 65.4137 172.174 65.0016 172.313C64.5721 172.458 64.0617 172.747 63.7774 172.944C63.6791 173.012 63.5626 173.092 63.4439 173.177C63.2897 173.076 63.1331 172.977 62.9743 172.881C62.079 172.342 61.0877 171.839 59.9981 171.717C58.8835 171.591 57.7296 171.859 56.6649 172.231C55.6812 172.574 54.7224 173.034 54.0327 173.758C53.8581 173.909 53.697 174.072 53.5518 174.249C53.4074 174.424 53.2811 174.611 53.1745 174.807C53.173 174.81 53.1707 174.813 53.1692 174.817C53.1594 174.826 53.1503 174.835 53.142 174.847C52.9794 175.064 52.8516 175.3 52.7632 175.549C52.6762 175.793 52.6074 176.069 52.7805 176.296C52.928 176.489 53.1662 176.602 53.3976 176.703C53.6683 176.82 53.9503 176.921 54.2407 176.993C54.3798 177.028 54.522 177.056 54.6649 177.077C54.7322 177.097 54.801 177.11 54.8721 177.117C54.8872 177.125 54.9038 177.133 54.922 177.139C55.0853 177.187 55.2562 177.229 55.4271 177.226C55.4581 177.22 55.4899 177.217 55.5224 177.215C55.5746 177.211 55.626 177.198 55.6751 177.18C55.7742 177.144 55.8437 177.081 55.9005 177.002C55.9685 176.908 56.0192 176.803 56.0834 176.707C56.1462 176.574 56.215 176.443 56.2906 176.316C56.3042 176.294 56.3186 176.272 56.3322 176.25C56.4336 176.132 56.5326 176.013 56.6347 175.901C57.0559 175.439 57.6169 175.171 58.2907 175.049C58.9742 174.924 59.3841 174.953 59.9134 175.188C60.4132 175.409 60.9009 175.737 61.4847 176.051C61.9944 176.325 62.2008 176.796 62.4004 177.406C62.5947 177.998 62.7551 178.648 62.6439 179.184C62.5433 179.67 62.5993 180.188 62.4813 180.676C62.3671 181.147 62.0866 181.573 61.8666 182.044C61.766 182.259 61.7002 182.439 61.5573 182.64C61.4416 182.803 61.3115 182.958 61.0371 183.084C60.6862 183.245 60.2302 183.504 59.7138 183.567C59.2276 183.626 58.7277 183.49 58.3103 183.411C58.1168 183.375 57.871 183.321 57.6684 183.234C57.4536 183.141 57.319 183.03 57.1837 182.909C56.8494 182.609 56.5114 182.358 56.3345 182.007C56.2354 181.811 56.1545 181.603 56.085 181.391C55.9337 180.815 55.8332 180.211 55.7417 179.634C55.7122 179.447 55.6955 179.261 55.6471 179.076C55.6366 179.007 55.6282 178.936 55.6214 178.866C55.6214 178.845 55.6214 178.823 55.6214 178.801C55.6214 178.68 55.6282 178.556 55.604 178.435C55.604 178.434 55.5685 178.239 55.5005 178.176C55.4332 178.114 55.2623 178.041 55.1829 177.982C55.0989 177.939 55.012 177.9 54.9227 177.867C54.9016 177.849 54.8759 177.834 54.8456 177.824C54.6989 177.779 54.5515 177.733 54.4048 177.686C54.3851 177.68 54.3655 177.672 54.3465 177.666C54.0343 177.564 53.7046 177.477 53.3711 177.452C53.1632 177.415 52.9408 177.391 52.7306 177.414C52.6769 177.42 52.624 177.429 52.5726 177.442C52.5726 177.44 52.5734 177.438 52.5741 177.436C52.4584 177.511 52.3344 177.581 52.2467 177.68C52.1847 177.751 52.1393 177.832 52.1023 177.917C51.9904 178.624 51.9631 179.34 52.0304 180.052C52.0607 180.371 52.097 180.698 52.2104 180.999C52.2119 181.003 52.2127 181.008 52.2134 181.013C52.218 181.032 52.2263 181.047 52.2354 181.061C52.2512 181.099 52.2694 181.138 52.2883 181.175C52.3488 181.349 52.4108 181.524 52.4599 181.699C52.4917 181.813 52.5174 181.928 52.5424 182.044C52.3458 182.144 52.1476 182.227 51.9828 182.336C51.9147 182.381 51.8497 182.429 51.7869 182.479C51.5072 182.608 51.2229 182.724 50.9332 182.807C50.5786 182.908 50.2104 182.909 49.855 182.837C49.7022 182.747 49.52 182.625 49.3808 182.533C49.3672 182.524 49.3521 182.53 49.343 182.521C49.2258 182.405 49.098 182.31 48.9589 182.219C48.881 182.168 48.7555 182.099 48.6943 182.045C48.6655 182.02 48.6443 181.995 48.6247 181.971C48.5816 181.885 48.5234 181.789 48.4107 181.659C48.2519 181.474 48.013 181.198 47.7748 180.921C47.6855 180.753 47.5472 180.498 47.5086 180.454C47.4012 180.332 47.3861 180.22 47.3377 180.12C47.25 179.936 47.2016 179.783 47.1177 179.625C47.033 179.467 46.6526 178.748 46.6004 178.611C46.5483 178.474 46.5437 178.424 46.5256 178.368C46.453 178.144 46.3948 177.993 46.2897 177.807C46.208 177.662 46.0931 177.502 46.0182 177.372C45.9433 177.242 45.898 177.167 45.8307 177.049C45.8156 177.023 45.7838 176.963 45.7566 176.903C45.6953 176.768 45.6462 176.662 45.631 176.501C45.6182 176.365 45.6552 176.283 45.6923 176.136C45.6983 176.111 45.7316 176.03 45.7377 176.004C45.7437 175.979 45.7543 175.943 45.7619 175.921C45.8692 175.603 45.9796 175.381 46.1006 175.042C46.1362 174.943 46.1445 174.889 46.2178 174.68C46.2919 174.47 46.5271 174.064 46.6723 173.823C46.8175 173.582 46.9407 173.275 47.0927 173.054C47.2454 172.833 47.4791 172.447 47.6008 172.25C47.7226 172.055 47.7521 172.019 47.8504 171.87C47.9373 171.738 47.9283 171.743 48.0084 171.571C48.0886 171.4 48.2474 171.05 48.3434 170.863C48.4402 170.675 48.4818 170.638 48.5952 170.436C48.6859 170.275 49.0996 169.518 49.3067 169.166C49.4519 168.92 49.5177 168.451 49.3529 168.203C49.2546 168.056 49.1313 167.828 48.7079 167.802C48.2844 167.776 47.3558 167.759 47.0549 167.783C46.7986 167.804 46.6783 167.783 46.4212 167.787C46.2783 167.789 46.1898 167.772 45.9796 167.81C45.6469 167.872 45.2802 168.106 45.1116 168.366C44.9429 168.625 44.4991 169.49 44.493 169.498C44.3418 169.729 44.1724 170.112 44.0734 170.321C43.9743 170.53 43.9395 170.532 43.848 170.704C43.7565 170.876 43.6567 171.059 43.5388 171.225C43.4798 171.307 43.4767 171.335 43.4276 171.453C43.3784 171.57 43.2854 171.805 43.2121 171.932C43.1387 172.058 43.0495 172.181 42.9807 172.296C42.9111 172.411 42.8333 172.509 42.7811 172.622C42.6729 172.857 42.5429 173.171 42.437 173.374C42.3312 173.578 42.2548 173.684 42.1361 173.847C42.0174 174.009 41.786 174.188 41.6582 174.29C41.5304 174.392 41.5735 174.376 41.457 174.461C41.4026 174.502 41.2506 174.541 41.1538 174.52C41.116 174.512 41.0366 174.495 40.9965 174.44C40.9572 174.386 40.9602 174.356 40.933 174.262C40.905 174.168 40.9451 173.616 40.9383 173.47C40.9353 173.408 40.9292 173.272 40.9285 173.222C40.9277 173.171 40.9754 172.533 40.9512 172.427C40.9262 172.32 40.9134 171.718 40.9224 171.636C40.9315 171.554 40.9232 171.563 40.9255 171.546C40.9376 171.429 40.8725 170.104 40.8786 169.992C40.8846 169.881 41.0722 169.07 41.0457 168.612C41.026 168.273 40.5837 167.865 40.3024 167.855C40.0627 167.846 39.9984 167.86 39.8086 167.847C39.6188 167.834 39.5477 167.845 39.3806 167.838C39.2135 167.831 38.9867 167.828 38.8332 167.82C38.6797 167.811 38.5829 167.802 38.446 167.789C38.3091 167.775 37.8728 167.804 37.7776 167.793C37.683 167.782 37.6732 167.781 37.6399 167.78C37.4728 167.772 37.3723 167.758 37.221 167.804C37.0063 167.869 36.7205 168.003 36.6116 168.193C36.5806 168.248 36.5753 168.296 36.5503 168.348C36.5397 168.37 36.5352 168.394 36.5337 168.417C36.5239 168.598 36.5239 168.842 36.5072 169.003C36.4913 169.165 36.4452 169.191 36.4271 169.349C36.4089 169.507 36.4709 170.254 36.4679 170.347C36.4649 170.44 36.4687 170.423 36.4656 170.447C36.4513 170.549 36.4384 170.622 36.4392 170.707C36.4399 170.85 36.4528 171.026 36.4513 171.15C36.4505 171.274 36.4369 171.333 36.4324 171.444C36.4271 171.597 36.4966 171.828 36.4959 171.879C36.4936 171.961 36.4513 172.004 36.4452 172.034C36.4142 172.191 36.4044 172.27 36.4066 172.427C36.4089 172.553 36.4014 172.742 36.4051 172.872C36.4089 173.002 36.4089 173.024 36.424 173.173C36.4384 173.321 36.4679 173.971 36.4823 174.13C36.4966 174.289 36.5261 174.649 36.5299 174.759C36.5329 174.868 36.5299 174.858 36.5284 174.886C36.5231 175.069 36.505 175.154 36.5155 175.332C36.5239 175.465 36.5511 175.654 36.5526 175.799C36.5541 175.945 36.5511 175.995 36.5428 176.17C36.5337 176.345 36.5208 176.815 36.5125 176.973C36.5042 177.131 36.4717 177.161 36.4566 177.245C36.4308 177.391 36.4066 177.47 36.4036 177.596C36.3983 177.797 36.39 178.041 36.3893 178.221C36.3877 178.4 36.3643 178.387 36.3756 178.582C36.387 178.777 36.4316 179.155 36.4581 179.37C36.4845 179.584 36.3832 179.777 36.4051 179.984C36.4271 180.192 36.4271 180.498 36.4392 180.688C36.4513 180.88 36.4739 180.919 36.4815 181.103C36.4891 181.288 36.4898 181.599 36.4838 181.781C36.477 181.964 36.4324 182.064 36.424 182.229C36.4157 182.395 36.418 182.597 36.4195 182.752C36.421 182.907 36.4361 182.959 36.4603 183.116C36.4679 183.164 36.4823 183.195 36.4959 183.304C36.5095 183.414 36.4066 184.017 36.4172 184.156C36.4278 184.295 36.4399 184.429 36.4414 184.549C36.4429 184.67 36.4074 185.389 36.4059 185.487C36.4044 185.616 36.4051 185.713 36.4051 185.79C36.4051 186.017 36.5042 186.218 36.545 186.281C36.6063 186.376 36.8142 186.543 36.9866 186.549C37.2286 186.558 37.2241 186.547 37.3405 186.533C37.6195 186.5 38.1753 186.406 38.4362 186.453C38.6963 186.5 38.8014 186.49 39.0146 186.516C39.1001 186.527 39.1092 186.523 39.1893 186.525C39.2695 186.527 39.2672 186.538 39.3829 186.53C39.4978 186.521 39.6385 186.496 39.7489 186.491C39.9568 186.482 40.161 186.572 40.3568 186.541C40.5171 186.515 40.6721 186.431 40.7304 186.388C40.8045 186.332 40.9534 186.185 40.9625 185.821C40.9686 185.568 40.9323 184.694 40.9587 184.442C40.9678 184.355 40.9716 184.319 40.9769 184.216C40.9822 184.113 40.9996 184.096 40.9958 183.932C40.992 183.767 40.9686 183.392 40.9534 183.185C40.9519 183.166 40.9534 183.144 40.9595 183.125C40.9655 183.107 40.9776 183.068 40.9807 183.05C41.0079 182.896 41.0162 182.746 41.0147 182.59C41.0132 182.386 41.0177 182.082 40.9988 181.905C40.9799 181.727 41.0381 181.595 41.0041 181.45C40.9981 181.425 40.9988 181.405 41.0026 181.383C41.0593 181 41.0472 180.631 41.0102 180.249C41.0102 180.243 41.0102 180.232 41.0102 180.225C41.0026 179.823 40.9928 179.042 41.0729 178.74C41.1531 178.438 41.1402 178.655 41.2098 178.468C41.2143 178.457 41.2166 178.453 41.2181 178.444C41.2204 178.436 41.2181 178.442 41.2189 178.441C41.262 178.326 41.4608 178.311 41.5735 178.359C41.6257 178.381 41.6695 178.408 41.7156 178.433C41.7618 178.458 41.7829 178.479 41.8041 178.526C41.8896 178.717 41.916 178.763 42.0272 178.992C42.152 179.249 42.3599 179.756 42.5028 180.023C42.6457 180.291 42.735 180.331 42.8862 180.608C43.0374 180.884 43.2817 181.385 43.4344 181.674C43.5871 181.964 43.7187 182.212 43.8647 182.454C44.0114 182.696 44.1021 182.817 44.27 183.043C44.3236 183.116 44.3645 183.161 44.4658 183.283C44.5679 183.406 44.9286 183.826 45.0314 183.933C45.1342 184.042 45.1342 184.062 45.1774 184.112C45.2983 184.254 45.3467 184.344 45.4775 184.45C45.4987 184.468 45.5184 184.484 45.5388 184.5C45.9305 185.037 46.3744 185.369 46.6473 185.527C47.0383 185.752 47.3112 186.054 47.622 186.184C48.0364 186.357 48.4379 186.314 48.7873 186.365C49.1714 186.421 49.5351 186.566 49.9517 186.545C49.9911 186.543 50.0311 186.538 50.0712 186.532C50.0924 186.538 50.1143 186.541 50.1385 186.54C50.7072 186.515 51.2682 186.439 51.818 186.317C52.0236 186.313 52.218 186.296 52.3987 186.234C52.5197 186.192 52.6308 186.133 52.7374 186.063C53.4112 185.839 54.0592 185.541 54.6687 185.168C55.2721 185.643 55.9307 186.087 56.7216 186.299C56.953 186.361 57.189 186.403 57.4279 186.428C57.8332 186.57 58.3179 186.57 58.758 186.576C59.6752 186.588 60.6242 186.582 61.5165 186.368C62.7513 186.071 63.6768 185.321 64.4035 184.431C64.7634 184.084 65.1075 183.71 65.4039 183.201C65.7653 182.581 65.8576 181.874 65.9876 181.192C66.1169 180.514 66.2946 179.825 66.275 179.118C66.2546 178.396 66.0859 177.709 65.9574 177.016C65.8969 176.689 65.8447 176.352 65.7608 176.016C65.8281 175.957 65.8886 175.899 65.9256 175.869C66.0489 175.771 66.0549 175.699 66.4912 175.511C66.8497 175.358 67.0742 175.535 67.2489 175.633C67.6172 175.84 67.7344 176.132 67.7797 176.447C67.7812 176.459 67.7812 176.472 67.7812 176.487L67.7646 176.569C67.7684 176.582 67.7714 176.596 67.7744 176.609C67.7669 176.725 67.7586 176.884 67.7865 177.08C67.7918 177.117 67.8009 177.156 67.8107 177.197C67.8085 177.304 67.7548 177.441 67.757 177.545L67.776 177.763L67.7903 178.229V178.536L67.8191 178.675L67.7903 179.568V182.637L67.7616 183.382L67.7329 183.605L67.7903 184.302L67.7616 184.525L67.7487 185.19C67.7487 185.497 67.7797 186.054 67.9196 186.222C68.0663 186.397 68.3484 186.521 68.6055 186.549H69.4478L69.6762 186.521C69.6762 186.521 69.9212 186.494 70.2055 186.464C70.4898 186.434 70.9556 186.54 71.2044 186.549C71.4532 186.559 71.6551 186.463 71.7405 186.398C71.8259 186.333 71.9658 186.145 71.9968 185.964C72.0112 185.88 72.0483 185.551 72.077 185.383V184.673L72.1057 184.311L72.1632 183.893C72.1919 183.725 72.1632 183.642 72.1345 183.474L72.1057 183.335V182.721L72.0626 181.981L72.049 181.744L72.0778 181.548V181.297L72.049 180.739L72.0626 180.438L72.0778 180.126V180.07C72.1352 179.902 72.1624 179.743 72.1632 179.512L72.1776 179.197L72.2486 178.815L72.3916 178.508L72.5919 178.033L72.6774 177.754L73.0487 177.252L73.1916 177.029L73.6491 176.528L73.8774 176.388L74.592 176.053L75.3353 175.858L75.609 175.746L75.8911 175.687L76.1648 175.694C76.5081 175.666 76.6684 175.571 76.7342 175.503C76.8552 175.377 76.9225 175.207 76.9225 175.207C76.9512 175.095 76.9641 174.993 76.9641 174.881V174.323L76.9353 173.988L76.9066 173.263L76.9058 173.262Z" fill="#5377FC"/>
<path d="M57.5752 172.194C57.7514 172.092 57.9692 172.042 58.1068 171.905C58.2444 171.768 58.2936 171.551 58.379 171.377C58.4645 171.202 58.6081 171.058 58.6467 170.877C58.6853 170.696 58.6127 170.498 58.6195 170.312C58.6271 170.087 58.708 169.856 58.6686 169.634C58.6293 169.411 58.4751 169.225 58.3715 169.021C58.2656 168.811 58.1907 168.561 58.0078 168.395C57.8248 168.229 57.5752 168.18 57.3393 168.093C57.1034 168.006 56.8455 167.873 56.5854 167.885C56.3109 167.897 56.0833 168.053 55.8943 168.216C55.3604 168.677 54.968 169.235 54.8757 169.863C54.7835 170.495 55.0035 171.142 55.3703 171.727C55.5888 172.075 55.923 172.385 56.3548 172.472C56.7563 172.553 57.1851 172.416 57.5752 172.193V172.194Z" fill="white"/>
<path d="M58.177 168.775C57.8919 168.448 57.2787 168.438 56.8855 168.67C56.493 168.903 56.2904 169.309 56.1981 169.708C56.0477 170.36 56.155 171.076 56.6125 171.614C56.8015 171.836 57.0813 172.036 57.4042 172.028C57.6386 172.021 58.0001 171.904 58.149 171.75C58.2972 171.596 58.3963 171.455 58.4787 171.268C58.6746 170.825 58.6776 170.31 58.664 169.837C58.6496 169.363 58.4424 168.877 58.0129 168.576" fill="black"/>
<path d="M62.346 172.194C62.5222 172.092 62.7399 172.042 62.8776 171.905C63.0152 171.768 63.0643 171.551 63.1498 171.377C63.2352 171.202 63.3789 171.058 63.4175 170.877C63.456 170.696 63.3834 170.498 63.3902 170.312C63.3978 170.087 63.4787 169.856 63.4394 169.634C63.4001 169.411 63.2458 169.225 63.1422 169.021C63.0364 168.811 62.9615 168.561 62.7785 168.395C62.5955 168.229 62.346 168.18 62.1101 168.093C61.8741 168.006 61.6163 167.873 61.3562 167.885C61.0817 167.897 60.8541 168.053 60.665 168.216C60.1312 168.677 59.7387 169.235 59.6465 169.863C59.5542 170.495 59.7743 171.142 60.141 171.727C60.3596 172.075 60.6938 172.385 61.1255 172.472C61.5271 172.553 61.9558 172.416 62.346 172.193V172.194Z" fill="white"/>
<path d="M62.9478 168.775C62.6627 168.448 62.0494 168.438 61.6562 168.67C61.2638 168.903 61.0611 169.309 60.9689 169.708C60.8184 170.36 60.9258 171.076 61.3833 171.614C61.5723 171.836 61.8521 172.036 62.175 172.028C62.4094 172.021 62.7806 171.949 62.9288 171.794C63.0771 171.639 63.1081 171.583 63.1905 171.397C63.3863 170.953 63.4476 170.31 63.434 169.836C63.4204 169.363 63.2124 168.876 62.7829 168.575" fill="black"/>
<path d="M59.7418 169.146C59.3917 169.961 59.4559 170.896 59.8801 171.673C60.0593 172.002 60.318 172.268 60.6658 172.429C61.0091 172.588 61.3909 172.644 61.7675 172.592C62.1766 172.536 62.5464 172.34 62.8518 172.073C63.1861 171.78 63.4031 171.396 63.5052 170.97C63.7093 170.118 63.5959 169.113 62.9774 168.445C62.6704 168.113 62.2499 167.887 61.7978 167.813C61.3456 167.739 60.8783 167.786 60.5282 168.079C60.38 168.203 60.5955 168.411 60.7429 168.288C60.9924 168.079 61.3615 168.051 61.6737 168.092C62.0239 168.138 62.3581 168.285 62.6205 168.516C63.2261 169.051 63.366 169.893 63.2587 170.653C63.205 171.033 63.0711 171.407 62.808 171.697C62.5675 171.962 62.2507 172.177 61.8983 172.267C61.304 172.419 60.5879 172.219 60.2469 171.698C59.7637 170.961 59.6911 170.029 60.0359 169.226C60.0677 169.152 60.0019 169.063 59.93 169.044C59.8423 169.02 59.775 169.073 59.7433 169.147L59.7418 169.146Z" fill="black"/>
<path d="M54.971 169.146C54.6209 169.961 54.6852 170.896 55.1094 171.673C55.2886 172.002 55.5472 172.268 55.895 172.429C56.2429 172.59 56.6202 172.644 56.9968 172.592C57.4058 172.536 57.7756 172.34 58.0811 172.072C58.4153 171.779 58.6323 171.396 58.7344 170.97C58.9386 170.118 58.8252 169.113 58.2066 168.445C57.8996 168.113 57.4792 167.887 57.027 167.813C56.5869 167.741 56.1075 167.786 55.7574 168.079C55.6092 168.203 55.8247 168.411 55.9722 168.288C56.2217 168.079 56.5907 168.051 56.903 168.092C57.2531 168.138 57.5873 168.284 57.8497 168.516C58.4554 169.051 58.5953 169.893 58.4879 170.653C58.4342 171.033 58.3004 171.407 58.0372 171.697C57.7968 171.962 57.4799 172.177 57.1276 172.267C56.5332 172.419 55.8171 172.219 55.4761 171.698C54.9929 170.961 54.9203 170.029 55.2652 169.226C55.2969 169.152 55.2311 169.063 55.1593 169.044C55.0716 169.02 55.0043 169.073 54.9725 169.147L54.971 169.146Z" fill="black"/>
<path d="M80.7326 169.998C80.5813 170.146 80.3545 170.072 80.2032 170.072H80.2789C79.2202 170.219 78.3128 169.26 78.3128 168.301V168.375C78.2372 167.341 79.1446 166.456 80.1276 166.456H80.052C80.7326 166.456 81.3375 166.751 81.7156 167.268L81.64 167.194C81.9424 167.489 82.018 167.932 81.8668 168.301V168.227C81.9424 168.522 81.7156 168.596 81.4887 168.67C81.3375 168.744 81.1863 168.522 81.035 168.596H81.1106C81.035 168.522 80.9594 168.522 80.8838 168.522H80.9594C80.5813 168.375 79.9008 168.153 79.9764 167.637C79.9764 167.563 80.052 167.563 80.052 167.489C80.4301 167.415 80.6569 167.637 80.7326 167.932V168.448C80.6569 168.596 80.5813 168.744 80.4301 168.817C80.3545 168.891 80.2032 168.891 80.1276 168.965C79.8252 169.039 79.5227 168.817 79.2959 168.596V168.67C79.2202 168.227 78.9178 167.784 78.4641 167.858C78.3885 168.227 78.4641 168.596 78.6153 168.891C78.9178 169.408 79.5227 169.703 80.1276 169.629C80.8082 169.555 81.3375 169.112 81.4887 168.448C81.5643 167.932 81.4887 167.415 81.1106 167.046C80.8838 166.825 80.6569 166.825 80.3545 166.751C80.052 166.751 79.8252 166.972 79.5983 167.12C79.3715 167.415 79.1446 167.784 79.3715 168.227C79.7496 168.965 80.4301 169.408 81.2619 169.629C81.64 169.703 82.018 169.629 82.3205 169.334C83.001 168.522 82.8498 167.268 82.0936 166.53C81.3375 165.792 80.2789 165.496 79.2959 165.865C77.8592 166.382 77.103 168.006 77.7835 169.408C78.2372 170.293 79.2202 170.884 80.2789 170.884C80.6569 170.884 81.1863 170.441 80.8838 169.998H80.7326Z" fill="#FFC240"/>
<path d="M82.1495 169.311C82.1359 169.349 82.1208 169.385 82.1042 169.42C82.0535 169.403 81.9938 169.401 81.9257 169.422C81.5764 169.529 81.351 169.808 81.0198 169.935C81.0093 169.94 80.9979 169.943 80.9873 169.947C80.8119 169.979 80.6289 169.988 80.4474 169.983C80.3884 169.981 80.331 169.976 80.2743 169.969C80.089 169.935 79.906 169.88 79.7336 169.831C79.6996 169.821 79.6686 169.818 79.6383 169.819C79.3722 169.737 79.1083 169.65 78.8247 169.625C78.5321 169.6 78.4686 169.951 78.6107 170.129C79.106 170.747 80.2871 170.817 81.0198 170.727C81.7896 170.632 82.4724 170.198 82.7333 169.468C82.8618 169.108 82.2773 168.953 82.1503 169.31L82.1495 169.311Z" fill="#FFC240"/>
</g>
</g>
<path d="M53.6868 29.2329C51.5628 29.2329 50.3868 28.1889 50.3868 26.5689H51.6588C51.7068 27.4689 52.3068 28.1769 53.6988 28.1769C54.9468 28.1769 55.5948 27.6249 55.5948 26.7609C55.5948 25.9329 55.0068 25.5849 54.0828 25.4049L52.9548 25.1769C51.5268 24.8889 50.6268 24.2169 50.6268 22.9209C50.6268 21.4689 51.7428 20.6049 53.6388 20.6049C55.5348 20.6049 56.6628 21.4809 56.6628 22.9569H55.3908C55.3788 22.1649 54.7668 21.6609 53.6148 21.6609C52.4028 21.6609 51.9228 22.2249 51.9228 22.9209C51.9228 23.5089 52.2828 23.9649 53.2788 24.1689L54.3588 24.3849C56.0388 24.7209 56.9028 25.4049 56.9028 26.7489C56.9028 28.3809 55.6188 29.2329 53.6868 29.2329ZM60.7908 29.2329C59.1108 29.2329 57.7668 28.2489 57.7668 26.0049C57.7668 23.7129 59.1348 22.7529 60.7428 22.7529C62.3508 22.7529 63.5868 23.7249 63.5868 25.9089C63.5868 26.1249 63.5748 26.2449 63.5508 26.3769H58.9308C59.0268 27.6849 59.6868 28.2849 60.8028 28.2849C61.5708 28.2849 62.1588 28.0089 62.4228 27.2769H63.5028C63.1308 28.6689 62.0628 29.2329 60.7908 29.2329ZM58.9428 25.4649H62.4348C62.4108 24.3729 61.7988 23.7009 60.7308 23.7009C59.7348 23.7009 59.0508 24.2769 58.9428 25.4649ZM67.4119 29.2329C65.7319 29.2329 64.3879 28.2489 64.3879 26.0049C64.3879 23.7129 65.7559 22.7529 67.3639 22.7529C68.9719 22.7529 70.2079 23.7249 70.2079 25.9089C70.2079 26.1249 70.1959 26.2449 70.1719 26.3769H65.5519C65.6479 27.6849 66.3079 28.2849 67.4239 28.2849C68.1919 28.2849 68.7799 28.0089 69.0439 27.2769H70.1239C69.7519 28.6689 68.6839 29.2329 67.4119 29.2329ZM65.5639 25.4649H69.0559C69.0319 24.3729 68.4199 23.7009 67.3519 23.7009C66.3559 23.7009 65.6719 24.2769 65.5639 25.4649ZM78.36 25.5009C78.36 24.3849 77.88 23.7729 76.896 23.7729C75.912 23.7729 75.228 24.3849 75.228 25.5009V29.1129H74.016V20.7129H75.228V24.1209H75.264C75.372 23.6529 75.972 22.7529 77.364 22.7529C78.588 22.7529 79.572 23.4609 79.572 25.2249V29.1129H78.36V25.5009ZM83.6544 29.2329C82.1064 29.2329 80.6184 28.2249 80.6184 25.9929C80.6184 23.7609 82.1064 22.7529 83.6544 22.7529C85.2144 22.7529 86.7024 23.7609 86.7024 25.9929C86.7024 28.2249 85.2144 29.2329 83.6544 29.2329ZM83.6544 28.2129C84.6624 28.2129 85.5504 27.5289 85.5504 25.9929C85.5504 24.4569 84.6624 23.7729 83.6544 23.7729C82.6464 23.7729 81.7704 24.4569 81.7704 25.9929C81.7704 27.5289 82.6464 28.2129 83.6544 28.2129ZM88.836 29.1129L87.096 22.8729H88.26L89.568 27.9009H89.616L91.152 22.8729H92.208L93.744 27.9009H93.792L95.1 22.8729H96.264L94.512 29.1129H93.144L91.68 24.4809L90.204 29.1129H88.836ZM100.166 30.4089C101.198 30.5529 101.606 30.1449 101.846 29.5569C101.978 29.2209 101.978 29.0169 101.87 28.7289L99.5296 22.8729H100.778L102.566 27.6369L104.366 22.8729H105.614L102.974 29.4729C102.326 31.0809 101.558 31.6089 100.166 31.4529V30.4089ZM108.85 29.2329C107.302 29.2329 105.814 28.2249 105.814 25.9929C105.814 23.7609 107.302 22.7529 108.85 22.7529C110.41 22.7529 111.898 23.7609 111.898 25.9929C111.898 28.2249 110.41 29.2329 108.85 29.2329ZM108.85 28.2129C109.858 28.2129 110.746 27.5289 110.746 25.9929C110.746 24.4569 109.858 23.7729 108.85 23.7729C107.842 23.7729 106.966 24.4569 106.966 25.9929C106.966 27.5289 107.842 28.2129 108.85 28.2129ZM114.158 26.4849C114.158 27.6009 114.638 28.2129 115.622 28.2129C116.606 28.2129 117.29 27.6009 117.29 26.4849V22.8729H118.502V29.1129H117.29V27.8649H117.254C117.146 28.3329 116.546 29.2329 115.154 29.2329C113.93 29.2329 112.946 28.5249 112.946 26.7609V22.8729H114.158V26.4849ZM119.848 29.1129V22.8729H121.06V24.3129H121.096C121.276 23.5809 121.864 22.8009 123.004 22.8009C123.16 22.8009 123.328 22.8129 123.472 22.8609V23.8809C123.316 23.8569 123.172 23.8449 123.016 23.8449C121.852 23.8449 121.06 24.6009 121.06 25.9929V29.1129H119.848ZM128.363 29.1129L126.623 22.8729H127.787L129.095 27.9009H129.143L130.679 22.8729H131.735L133.271 27.9009H133.319L134.627 22.8729H135.791L134.039 29.1129H132.671L131.207 24.4809L129.731 29.1129H128.363ZM139.213 29.2329C137.665 29.2329 136.177 28.2249 136.177 25.9929C136.177 23.7609 137.665 22.7529 139.213 22.7529C140.773 22.7529 142.261 23.7609 142.261 25.9929C142.261 28.2249 140.773 29.2329 139.213 29.2329ZM139.213 28.2129C140.221 28.2129 141.109 27.5289 141.109 25.9929C141.109 24.4569 140.221 23.7729 139.213 23.7729C138.205 23.7729 137.329 24.4569 137.329 25.9929C137.329 27.5289 138.205 28.2129 139.213 28.2129ZM143.309 29.1129V22.8729H144.521V24.3129H144.557C144.737 23.5809 145.325 22.8009 146.465 22.8009C146.621 22.8009 146.789 22.8129 146.933 22.8609V23.8809C146.777 23.8569 146.633 23.8449 146.477 23.8449C145.313 23.8449 144.521 24.6009 144.521 25.9929V29.1129H143.309ZM150.164 29.2329C148.772 29.2329 147.38 28.2489 147.38 25.9929C147.38 23.7249 148.772 22.7529 150.164 22.7529C151.088 22.7529 151.88 23.1729 152.252 23.8569V20.7129H153.464V29.1129H152.252V28.1289C151.88 28.8129 151.088 29.2329 150.164 29.2329ZM150.416 28.2129C151.376 28.2129 152.312 27.5169 152.312 25.9929C152.312 24.4689 151.376 23.7729 150.416 23.7729C149.444 23.7729 148.532 24.4689 148.532 25.9929C148.532 27.5169 149.444 28.2129 150.416 28.2129ZM157.049 29.2329C155.549 29.2329 154.481 28.6089 154.445 27.2529H155.537C155.633 28.0209 156.293 28.2969 157.061 28.2969C157.829 28.2969 158.429 28.0209 158.429 27.3489C158.429 26.8449 158.081 26.6409 157.493 26.5089L156.329 26.2449C155.153 25.9689 154.625 25.3689 154.625 24.5289C154.625 23.3889 155.597 22.7529 157.049 22.7529C158.537 22.7529 159.437 23.4249 159.497 24.7089H158.477C158.369 23.9409 157.841 23.6889 157.061 23.6889C156.245 23.6889 155.801 23.9649 155.801 24.5049C155.801 24.9369 156.077 25.2009 156.725 25.3449L157.901 25.6089C158.909 25.8489 159.665 26.2569 159.665 27.3249C159.665 28.7049 158.417 29.2329 157.049 29.2329ZM164.738 29.1129L162.998 22.8729H164.162L165.47 27.9009H165.518L167.054 22.8729H168.11L169.646 27.9009H169.694L171.002 22.8729H172.166L170.414 29.1129H169.046L167.582 24.4809L166.106 29.1129H164.738ZM173.086 29.1129V22.8729H174.298V29.1129H173.086ZM173.686 21.7929C173.302 21.7929 172.966 21.4809 172.966 21.0729C172.966 20.6769 173.302 20.3529 173.686 20.3529C174.07 20.3529 174.406 20.6769 174.406 21.0729C174.406 21.4809 174.07 21.7929 173.686 21.7929ZM175.641 29.1129V20.7129H176.853V29.1129H175.641ZM178.196 29.1129V20.7129H179.408V29.1129H178.196ZM41.9486 46.2329C40.7846 46.2329 39.8606 45.7169 39.8606 44.4809C39.8606 43.2809 40.7366 42.7889 41.8526 42.6569L43.4006 42.4769C43.9766 42.4049 44.1686 42.2969 44.1686 42.1049V41.9369C44.1686 40.9409 43.6526 40.6769 42.7766 40.6769C41.8766 40.6769 41.3726 40.9409 41.3726 41.7329V41.8769H40.2086V41.6249C40.2086 40.3769 41.0846 39.7529 42.8006 39.7529C44.5646 39.7529 45.3806 40.4129 45.3806 41.9249V46.1129H44.2406V45.1049H44.1926C44.0726 45.3449 43.4846 46.2329 41.9486 46.2329ZM42.2486 45.2849C43.5686 45.2849 44.1686 44.4689 44.1686 43.7969V43.1129C44.0846 43.2449 43.9286 43.3289 43.3166 43.4009L42.1406 43.5569C41.3606 43.6529 41.0726 43.9289 41.0726 44.4209C41.0726 45.0089 41.4926 45.2849 42.2486 45.2849ZM46.7699 48.3929V39.8729H47.9819V40.8569C48.3539 40.1729 49.1459 39.7529 50.0699 39.7529C51.4619 39.7529 52.8539 40.7249 52.8539 42.9929C52.8539 45.2489 51.4619 46.2329 50.0699 46.2329C49.1459 46.2329 48.3539 45.8129 47.9819 45.1289V48.3929H46.7699ZM49.8179 45.2129C50.7899 45.2129 51.7019 44.5169 51.7019 42.9929C51.7019 41.4689 50.7899 40.7729 49.8179 40.7729C48.8579 40.7729 47.9219 41.4689 47.9219 42.9929C47.9219 44.5169 48.8579 45.2129 49.8179 45.2129ZM53.8949 48.3929V39.8729H55.1069V40.8569C55.4789 40.1729 56.2709 39.7529 57.1949 39.7529C58.5869 39.7529 59.9789 40.7249 59.9789 42.9929C59.9789 45.2489 58.5869 46.2329 57.1949 46.2329C56.2709 46.2329 55.4789 45.8129 55.1069 45.1289V48.3929H53.8949ZM56.9429 45.2129C57.9149 45.2129 58.8269 44.5169 58.8269 42.9929C58.8269 41.4689 57.9149 40.7729 56.9429 40.7729C55.9829 40.7729 55.0469 41.4689 55.0469 42.9929C55.0469 44.5169 55.9829 45.2129 56.9429 45.2129ZM63.8025 46.2329C62.1225 46.2329 60.7785 45.2489 60.7785 43.0049C60.7785 40.7129 62.1465 39.7529 63.7545 39.7529C65.3625 39.7529 66.5985 40.7249 66.5985 42.9089C66.5985 43.1249 66.5865 43.2449 66.5625 43.3769H61.9425C62.0385 44.6849 62.6985 45.2849 63.8145 45.2849C64.5825 45.2849 65.1705 45.0089 65.4345 44.2769H66.5145C66.1425 45.6689 65.0745 46.2329 63.8025 46.2329ZM61.9545 42.4649H65.4465C65.4225 41.3729 64.8105 40.7009 63.7425 40.7009C62.7465 40.7009 62.0625 41.2769 61.9545 42.4649ZM69.429 46.2329C68.265 46.2329 67.341 45.7169 67.341 44.4809C67.341 43.2809 68.217 42.7889 69.333 42.6569L70.881 42.4769C71.457 42.4049 71.649 42.2969 71.649 42.1049V41.9369C71.649 40.9409 71.133 40.6769 70.257 40.6769C69.357 40.6769 68.853 40.9409 68.853 41.7329V41.8769H67.689V41.6249C67.689 40.3769 68.565 39.7529 70.281 39.7529C72.045 39.7529 72.861 40.4129 72.861 41.9249V46.1129H71.721V45.1049H71.673C71.553 45.3449 70.965 46.2329 69.429 46.2329ZM69.729 45.2849C71.049 45.2849 71.649 44.4689 71.649 43.7969V43.1129C71.565 43.2449 71.409 43.3289 70.797 43.4009L69.621 43.5569C68.841 43.6529 68.553 43.9289 68.553 44.4209C68.553 45.0089 68.973 45.2849 69.729 45.2849ZM74.2504 46.1129V39.8729H75.4624V41.3129H75.4984C75.6784 40.5809 76.2664 39.8009 77.4064 39.8009C77.5624 39.8009 77.7304 39.8129 77.8744 39.8609V40.8809C77.7184 40.8569 77.5744 40.8449 77.4184 40.8449C76.2544 40.8449 75.4624 41.6009 75.4624 42.9929V46.1129H74.2504ZM81.4457 46.1129V39.8729H82.6577V46.1129H81.4457ZM82.0457 38.7929C81.6617 38.7929 81.3257 38.4809 81.3257 38.0729C81.3257 37.6769 81.6617 37.3529 82.0457 37.3529C82.4297 37.3529 82.7657 37.6769 82.7657 38.0729C82.7657 38.4809 82.4297 38.7929 82.0457 38.7929ZM88.3444 42.5009C88.3444 41.3849 87.8644 40.7729 86.8804 40.7729C85.8964 40.7729 85.2124 41.3849 85.2124 42.5009V46.1129H84.0004V39.8729H85.2124V41.1209H85.2484C85.3564 40.6529 85.9564 39.7529 87.3484 39.7529C88.5724 39.7529 89.5564 40.4609 89.5564 42.2249V46.1129H88.3444V42.5009ZM95.4564 46.2329C94.2924 46.2329 93.3684 45.7169 93.3684 44.4809C93.3684 43.2809 94.2444 42.7889 95.3604 42.6569L96.9084 42.4769C97.4844 42.4049 97.6764 42.2969 97.6764 42.1049V41.9369C97.6764 40.9409 97.1604 40.6769 96.2844 40.6769C95.3844 40.6769 94.8804 40.9409 94.8804 41.7329V41.8769H93.7164V41.6249C93.7164 40.3769 94.5924 39.7529 96.3084 39.7529C98.0724 39.7529 98.8884 40.4129 98.8884 41.9249V46.1129H97.7484V45.1049H97.7004C97.5804 45.3449 96.9924 46.2329 95.4564 46.2329ZM95.7564 45.2849C97.0764 45.2849 97.6764 44.4689 97.6764 43.7969V43.1129C97.5924 43.2449 97.4364 43.3289 96.8244 43.4009L95.6484 43.5569C94.8684 43.6529 94.5804 43.9289 94.5804 44.4209C94.5804 45.0089 95.0004 45.2849 95.7564 45.2849ZM104.622 42.5009C104.622 41.3849 104.142 40.7729 103.158 40.7729C102.174 40.7729 101.49 41.3849 101.49 42.5009V46.1129H100.278V39.8729H101.49V41.1209H101.526C101.634 40.6529 102.234 39.7529 103.626 39.7529C104.85 39.7529 105.834 40.4609 105.834 42.2249V46.1129H104.622V42.5009ZM109.916 46.2329C108.368 46.2329 106.88 45.2249 106.88 42.9929C106.88 40.7609 108.368 39.7529 109.916 39.7529C111.476 39.7529 112.964 40.7609 112.964 42.9929C112.964 45.2249 111.476 46.2329 109.916 46.2329ZM109.916 45.2129C110.924 45.2129 111.812 44.5289 111.812 42.9929C111.812 41.4569 110.924 40.7729 109.916 40.7729C108.908 40.7729 108.032 41.4569 108.032 42.9929C108.032 44.5289 108.908 45.2129 109.916 45.2129ZM116.2 46.1969C115.156 46.1969 114.448 45.7529 114.448 44.5289V40.8329H113.428V39.8729H114.448V38.3009H115.66V39.8729H116.896V40.8329H115.66V44.3249C115.66 44.9369 115.864 45.2129 116.536 45.2129C116.68 45.2129 116.788 45.2129 116.98 45.1889V46.1009C116.752 46.1609 116.488 46.1969 116.2 46.1969ZM122.305 42.5009C122.305 41.3849 121.825 40.7729 120.841 40.7729C119.857 40.7729 119.173 41.3849 119.173 42.5009V46.1129H117.961V37.7129H119.173V41.1209H119.209C119.317 40.6529 119.917 39.7529 121.309 39.7529C122.533 39.7529 123.517 40.4609 123.517 42.2249V46.1129H122.305V42.5009ZM127.588 46.2329C125.908 46.2329 124.564 45.2489 124.564 43.0049C124.564 40.7129 125.932 39.7529 127.54 39.7529C129.148 39.7529 130.384 40.7249 130.384 42.9089C130.384 43.1249 130.372 43.2449 130.348 43.3769H125.728C125.824 44.6849 126.484 45.2849 127.6 45.2849C128.368 45.2849 128.956 45.0089 129.22 44.2769H130.3C129.928 45.6689 128.86 46.2329 127.588 46.2329ZM125.74 42.4649H129.232C129.208 41.3729 128.596 40.7009 127.528 40.7009C126.532 40.7009 125.848 41.2769 125.74 42.4649ZM131.426 46.1129V39.8729H132.638V41.3129H132.674C132.854 40.5809 133.442 39.8009 134.582 39.8009C134.738 39.8009 134.906 39.8129 135.05 39.8609V40.8809C134.894 40.8569 134.75 40.8449 134.594 40.8449C133.43 40.8449 132.638 41.6009 132.638 42.9929V46.1129H131.426ZM138.622 46.1129V37.7129H139.834V46.1129H138.622ZM142.964 46.2329C141.8 46.2329 140.876 45.7169 140.876 44.4809C140.876 43.2809 141.752 42.7889 142.868 42.6569L144.416 42.4769C144.992 42.4049 145.184 42.2969 145.184 42.1049V41.9369C145.184 40.9409 144.668 40.6769 143.792 40.6769C142.892 40.6769 142.388 40.9409 142.388 41.7329V41.8769H141.224V41.6249C141.224 40.3769 142.1 39.7529 143.816 39.7529C145.58 39.7529 146.396 40.4129 146.396 41.9249V46.1129H145.256V45.1049H145.208C145.088 45.3449 144.5 46.2329 142.964 46.2329ZM143.264 45.2849C144.584 45.2849 145.184 44.4689 145.184 43.7969V43.1129C145.1 43.2449 144.944 43.3289 144.332 43.4009L143.156 43.5569C142.376 43.6529 142.088 43.9289 142.088 44.4209C142.088 45.0089 142.508 45.2849 143.264 45.2849ZM152.13 42.5009C152.13 41.3849 151.65 40.7729 150.666 40.7729C149.682 40.7729 148.998 41.3849 148.998 42.5009V46.1129H147.786V39.8729H148.998V41.1209H149.034C149.142 40.6529 149.742 39.7529 151.134 39.7529C152.358 39.7529 153.342 40.4609 153.342 42.2249V46.1129H152.13V42.5009ZM157.34 48.6209C156.104 48.6209 154.58 48.1889 154.568 46.6049H155.636C155.672 47.3129 156.44 47.6729 157.316 47.6729C158.348 47.6729 159.188 47.1809 159.188 45.9689V44.9369H159.164C158.78 45.5849 157.976 45.9689 157.1 45.9689C155.732 45.9689 154.388 45.0689 154.388 42.8609C154.388 40.6529 155.744 39.7529 157.1 39.7529C157.976 39.7529 158.78 40.1369 159.164 40.7849H159.188V39.8729H160.4V45.9689C160.4 48.1289 158.648 48.6209 157.34 48.6209ZM157.388 44.9609C158.348 44.9609 159.248 44.2889 159.248 42.8609C159.248 41.4329 158.348 40.7729 157.388 40.7729C156.416 40.7729 155.528 41.4329 155.528 42.8609C155.528 44.2889 156.416 44.9609 157.388 44.9609ZM162.955 43.4849C162.955 44.6009 163.435 45.2129 164.419 45.2129C165.403 45.2129 166.087 44.6009 166.087 43.4849V39.8729H167.299V46.1129H166.087V44.8649H166.051C165.943 45.3329 165.343 46.2329 163.951 46.2329C162.727 46.2329 161.743 45.5249 161.743 43.7609V39.8729H162.955V43.4849ZM170.433 46.2329C169.269 46.2329 168.345 45.7169 168.345 44.4809C168.345 43.2809 169.221 42.7889 170.337 42.6569L171.885 42.4769C172.461 42.4049 172.653 42.2969 172.653 42.1049V41.9369C172.653 40.9409 172.137 40.6769 171.261 40.6769C170.361 40.6769 169.857 40.9409 169.857 41.7329V41.8769H168.693V41.6249C168.693 40.3769 169.569 39.7529 171.285 39.7529C173.049 39.7529 173.865 40.4129 173.865 41.9249V46.1129H172.725V45.1049H172.677C172.557 45.3449 171.969 46.2329 170.433 46.2329ZM170.733 45.2849C172.053 45.2849 172.653 44.4689 172.653 43.7969V43.1129C172.569 43.2449 172.413 43.3289 171.801 43.4009L170.625 43.5569C169.845 43.6529 169.557 43.9289 169.557 44.4209C169.557 45.0089 169.977 45.2849 170.733 45.2849ZM177.789 48.6209C176.553 48.6209 175.029 48.1889 175.017 46.6049H176.085C176.121 47.3129 176.889 47.6729 177.765 47.6729C178.797 47.6729 179.637 47.1809 179.637 45.9689V44.9369H179.613C179.229 45.5849 178.425 45.9689 177.549 45.9689C176.181 45.9689 174.837 45.0689 174.837 42.8609C174.837 40.6529 176.193 39.7529 177.549 39.7529C178.425 39.7529 179.229 40.1369 179.613 40.7849H179.637V39.8729H180.849V45.9689C180.849 48.1289 179.097 48.6209 177.789 48.6209ZM177.837 44.9609C178.797 44.9609 179.697 44.2889 179.697 42.8609C179.697 41.4329 178.797 40.7729 177.837 40.7729C176.865 40.7729 175.977 41.4329 175.977 42.8609C175.977 44.2889 176.865 44.9609 177.837 44.9609ZM184.916 46.2329C183.236 46.2329 181.892 45.2489 181.892 43.0049C181.892 40.7129 183.26 39.7529 184.868 39.7529C186.476 39.7529 187.712 40.7249 187.712 42.9089C187.712 43.1249 187.7 43.2449 187.676 43.3769H183.056C183.152 44.6849 183.812 45.2849 184.928 45.2849C185.696 45.2849 186.284 45.0089 186.548 44.2769H187.628C187.256 45.6689 186.188 46.2329 184.916 46.2329ZM183.068 42.4649H186.56C186.536 41.3729 185.924 40.7009 184.856 40.7009C183.86 40.7009 183.176 41.2769 183.068 42.4649ZM189.191 46.2329C188.759 46.2329 188.399 45.8849 188.399 45.4409C188.399 45.0089 188.759 44.6489 189.191 44.6489C189.635 44.6489 189.995 45.0089 189.995 45.4409C189.995 45.8849 189.635 46.2329 189.191 46.2329Z" fill="#1F232B"/>
<path d="M107.953 115.171C107.953 116.644 109.147 117.838 110.62 117.838C112.092 117.838 113.286 116.644 113.286 115.171C113.286 113.699 112.092 112.505 110.62 112.505C109.147 112.505 107.953 113.699 107.953 115.171ZM111.12 115.171L111.12 62.1129L110.12 62.1129L110.12 115.171L111.12 115.171Z" fill="#4162DC"/>
<path d="M132.934 269.948C130.642 269.948 129.094 268.424 129.094 265.628C129.094 262.844 130.642 261.32 132.946 261.32C134.686 261.32 136.042 262.196 136.282 264.032H135.058C134.794 262.94 133.99 262.4 132.91 262.4C131.302 262.4 130.354 263.612 130.354 265.628C130.354 267.644 131.29 268.868 132.91 268.868C133.99 268.868 134.794 268.328 135.058 267.224H136.282C136.042 269.072 134.686 269.948 132.934 269.948ZM137.313 269.828V263.588H138.525V265.028H138.561C138.741 264.296 139.329 263.516 140.469 263.516C140.625 263.516 140.793 263.528 140.937 263.576V264.596C140.781 264.572 140.637 264.56 140.481 264.56C139.317 264.56 138.525 265.316 138.525 266.708V269.828H137.313ZM144.408 269.948C142.728 269.948 141.384 268.964 141.384 266.72C141.384 264.428 142.752 263.468 144.36 263.468C145.968 263.468 147.204 264.44 147.204 266.624C147.204 266.84 147.192 266.96 147.168 267.092H142.548C142.644 268.4 143.304 269 144.42 269C145.188 269 145.776 268.724 146.04 267.992H147.12C146.748 269.384 145.68 269.948 144.408 269.948ZM142.56 266.18H146.052C146.028 265.088 145.416 264.416 144.348 264.416C143.352 264.416 142.668 264.992 142.56 266.18ZM150.034 269.948C148.87 269.948 147.946 269.432 147.946 268.196C147.946 266.996 148.822 266.504 149.938 266.372L151.486 266.192C152.062 266.12 152.254 266.012 152.254 265.82V265.652C152.254 264.656 151.738 264.392 150.862 264.392C149.962 264.392 149.458 264.656 149.458 265.448V265.592H148.294V265.34C148.294 264.092 149.17 263.468 150.886 263.468C152.65 263.468 153.466 264.128 153.466 265.64V269.828H152.326V268.82H152.278C152.158 269.06 151.57 269.948 150.034 269.948ZM150.334 269C151.654 269 152.254 268.184 152.254 267.512V266.828C152.17 266.96 152.014 267.044 151.402 267.116L150.226 267.272C149.446 267.368 149.158 267.644 149.158 268.136C149.158 268.724 149.578 269 150.334 269ZM156.973 269.912C155.929 269.912 155.221 269.468 155.221 268.244V264.548H154.201V263.588H155.221V262.016H156.433V263.588H157.669V264.548H156.433V268.04C156.433 268.652 156.637 268.928 157.309 268.928C157.453 268.928 157.561 268.928 157.753 268.904V269.816C157.525 269.876 157.261 269.912 156.973 269.912ZM161.4 269.948C159.72 269.948 158.376 268.964 158.376 266.72C158.376 264.428 159.744 263.468 161.352 263.468C162.96 263.468 164.196 264.44 164.196 266.624C164.196 266.84 164.184 266.96 164.16 267.092H159.54C159.636 268.4 160.296 269 161.412 269C162.18 269 162.768 268.724 163.032 267.992H164.112C163.74 269.384 162.672 269.948 161.4 269.948ZM159.552 266.18H163.044C163.02 265.088 162.408 264.416 161.34 264.416C160.344 264.416 159.66 264.992 159.552 266.18ZM169.792 269.948C168.628 269.948 167.704 269.432 167.704 268.196C167.704 266.996 168.58 266.504 169.696 266.372L171.244 266.192C171.82 266.12 172.012 266.012 172.012 265.82V265.652C172.012 264.656 171.496 264.392 170.62 264.392C169.72 264.392 169.216 264.656 169.216 265.448V265.592H168.052V265.34C168.052 264.092 168.928 263.468 170.644 263.468C172.408 263.468 173.224 264.128 173.224 265.64V269.828H172.084V268.82H172.036C171.916 269.06 171.328 269.948 169.792 269.948ZM170.092 269C171.412 269 172.012 268.184 172.012 267.512V266.828C171.928 266.96 171.772 267.044 171.16 267.116L169.984 267.272C169.204 267.368 168.916 267.644 168.916 268.136C168.916 268.724 169.336 269 170.092 269ZM180.621 269.948C179.697 269.948 178.905 269.528 178.533 268.844V269.828H177.321V261.428H178.533V264.572C178.905 263.888 179.697 263.468 180.621 263.468C182.013 263.468 183.405 264.44 183.405 266.708C183.405 268.964 182.013 269.948 180.621 269.948ZM180.369 268.928C181.341 268.928 182.253 268.232 182.253 266.708C182.253 265.184 181.341 264.488 180.369 264.488C179.409 264.488 178.473 265.184 178.473 266.708C178.473 268.232 179.409 268.928 180.369 268.928ZM184.446 269.828V261.428H185.658V269.828H184.446ZM189.736 269.948C188.188 269.948 186.7 268.94 186.7 266.708C186.7 264.476 188.188 263.468 189.736 263.468C191.296 263.468 192.784 264.476 192.784 266.708C192.784 268.94 191.296 269.948 189.736 269.948ZM189.736 268.928C190.744 268.928 191.632 268.244 191.632 266.708C191.632 265.172 190.744 264.488 189.736 264.488C188.728 264.488 187.852 265.172 187.852 266.708C187.852 268.244 188.728 268.928 189.736 268.928ZM196.543 272.336C195.307 272.336 193.783 271.904 193.771 270.32H194.839C194.875 271.028 195.643 271.388 196.519 271.388C197.551 271.388 198.391 270.896 198.391 269.684V268.652H198.367C197.983 269.3 197.179 269.684 196.303 269.684C194.935 269.684 193.591 268.784 193.591 266.576C193.591 264.368 194.947 263.468 196.303 263.468C197.179 263.468 197.983 263.852 198.367 264.5H198.391V263.588H199.603V269.684C199.603 271.844 197.851 272.336 196.543 272.336ZM196.591 268.676C197.551 268.676 198.451 268.004 198.451 266.576C198.451 265.148 197.551 264.488 196.591 264.488C195.619 264.488 194.731 265.148 194.731 266.576C194.731 268.004 195.619 268.676 196.591 268.676ZM203.711 272.108V263.588H204.923V264.572C205.295 263.888 206.087 263.468 207.011 263.468C208.403 263.468 209.795 264.44 209.795 266.708C209.795 268.964 208.403 269.948 207.011 269.948C206.087 269.948 205.295 269.528 204.923 268.844V272.108H203.711ZM206.759 268.928C207.731 268.928 208.643 268.232 208.643 266.708C208.643 265.184 207.731 264.488 206.759 264.488C205.799 264.488 204.863 265.184 204.863 266.708C204.863 268.232 205.799 268.928 206.759 268.928ZM212.624 269.948C211.46 269.948 210.536 269.432 210.536 268.196C210.536 266.996 211.412 266.504 212.528 266.372L214.076 266.192C214.652 266.12 214.844 266.012 214.844 265.82V265.652C214.844 264.656 214.328 264.392 213.452 264.392C212.552 264.392 212.048 264.656 212.048 265.448V265.592H210.884V265.34C210.884 264.092 211.76 263.468 213.476 263.468C215.24 263.468 216.056 264.128 216.056 265.64V269.828H214.916V268.82H214.868C214.748 269.06 214.16 269.948 212.624 269.948ZM212.924 269C214.244 269 214.844 268.184 214.844 267.512V266.828C214.76 266.96 214.604 267.044 213.992 267.116L212.816 267.272C212.036 267.368 211.748 267.644 211.748 268.136C211.748 268.724 212.168 269 212.924 269ZM219.98 272.336C218.744 272.336 217.22 271.904 217.208 270.32H218.276C218.312 271.028 219.08 271.388 219.956 271.388C220.988 271.388 221.828 270.896 221.828 269.684V268.652H221.804C221.42 269.3 220.616 269.684 219.74 269.684C218.372 269.684 217.028 268.784 217.028 266.576C217.028 264.368 218.384 263.468 219.74 263.468C220.616 263.468 221.42 263.852 221.804 264.5H221.828V263.588H223.04V269.684C223.04 271.844 221.288 272.336 219.98 272.336ZM220.028 268.676C220.988 268.676 221.888 268.004 221.888 266.576C221.888 265.148 220.988 264.488 220.028 264.488C219.056 264.488 218.168 265.148 218.168 266.576C218.168 268.004 219.056 268.676 220.028 268.676ZM227.107 269.948C225.427 269.948 224.083 268.964 224.083 266.72C224.083 264.428 225.451 263.468 227.059 263.468C228.667 263.468 229.903 264.44 229.903 266.624C229.903 266.84 229.891 266.96 229.867 267.092H225.247C225.343 268.4 226.003 269 227.119 269C227.887 269 228.475 268.724 228.739 267.992H229.819C229.447 269.384 228.379 269.948 227.107 269.948ZM225.259 266.18H228.751C228.727 265.088 228.115 264.416 227.047 264.416C226.051 264.416 225.367 264.992 225.259 266.18ZM235.031 269.828L233.291 263.588H234.455L235.763 268.616H235.811L237.347 263.588H238.403L239.939 268.616H239.987L241.295 263.588H242.459L240.707 269.828H239.339L237.875 265.196L236.399 269.828H235.031ZM243.379 269.828V263.588H244.591V269.828H243.379ZM243.979 262.508C243.595 262.508 243.259 262.196 243.259 261.788C243.259 261.392 243.595 261.068 243.979 261.068C244.363 261.068 244.699 261.392 244.699 261.788C244.699 262.196 244.363 262.508 243.979 262.508ZM248.286 269.912C247.242 269.912 246.534 269.468 246.534 268.244V264.548H245.514V263.588H246.534V262.016H247.746V263.588H248.982V264.548H247.746V268.04C247.746 268.652 247.95 268.928 248.622 268.928C248.766 268.928 248.874 268.928 249.066 268.904V269.816C248.838 269.876 248.574 269.912 248.286 269.912ZM254.391 266.216C254.391 265.1 253.911 264.488 252.927 264.488C251.943 264.488 251.259 265.1 251.259 266.216V269.828H250.047V261.428H251.259V264.836H251.295C251.403 264.368 252.003 263.468 253.395 263.468C254.619 263.468 255.603 264.176 255.603 265.94V269.828H254.391V266.216ZM150.479 286.948C148.907 286.948 147.431 285.976 147.431 283.72C147.431 281.464 148.907 280.468 150.479 280.468C151.595 280.468 152.975 280.948 153.203 282.808H152.099C151.931 281.848 151.247 281.5 150.467 281.5C149.327 281.5 148.571 282.316 148.571 283.72C148.571 285.124 149.327 285.916 150.467 285.916C151.259 285.916 151.931 285.556 152.099 284.584H153.203C152.999 286.468 151.595 286.948 150.479 286.948ZM155.447 284.2C155.447 285.316 155.927 285.928 156.911 285.928C157.895 285.928 158.579 285.316 158.579 284.2V280.588H159.791V286.828H158.579V285.58H158.543C158.435 286.048 157.835 286.948 156.443 286.948C155.219 286.948 154.235 286.24 154.235 284.476V280.588H155.447V284.2ZM163.381 286.948C161.881 286.948 160.813 286.324 160.777 284.968H161.869C161.965 285.736 162.625 286.012 163.393 286.012C164.161 286.012 164.761 285.736 164.761 285.064C164.761 284.56 164.413 284.356 163.825 284.224L162.661 283.96C161.485 283.684 160.957 283.084 160.957 282.244C160.957 281.104 161.929 280.468 163.381 280.468C164.869 280.468 165.769 281.14 165.829 282.424H164.809C164.701 281.656 164.173 281.404 163.393 281.404C162.577 281.404 162.133 281.68 162.133 282.22C162.133 282.652 162.409 282.916 163.057 283.06L164.233 283.324C165.241 283.564 165.997 283.972 165.997 285.04C165.997 286.42 164.749 286.948 163.381 286.948ZM169.337 286.912C168.293 286.912 167.585 286.468 167.585 285.244V281.548H166.565V280.588H167.585V279.016H168.797V280.588H170.033V281.548H168.797V285.04C168.797 285.652 169.001 285.928 169.673 285.928C169.817 285.928 169.925 285.928 170.117 285.904V286.816C169.889 286.876 169.625 286.912 169.337 286.912ZM173.775 286.948C172.227 286.948 170.739 285.94 170.739 283.708C170.739 281.476 172.227 280.468 173.775 280.468C175.335 280.468 176.823 281.476 176.823 283.708C176.823 285.94 175.335 286.948 173.775 286.948ZM173.775 285.928C174.783 285.928 175.671 285.244 175.671 283.708C175.671 282.172 174.783 281.488 173.775 281.488C172.767 281.488 171.891 282.172 171.891 283.708C171.891 285.244 172.767 285.928 173.775 285.928ZM185.959 283.216C185.959 282.1 185.527 281.488 184.615 281.488C183.739 281.488 183.127 282.1 183.127 283.216V286.828H181.915V283.216C181.915 282.1 181.471 281.488 180.571 281.488C179.695 281.488 179.083 282.1 179.083 283.216V286.828H177.871V280.588H179.083V281.836H179.119C179.215 281.368 179.815 280.468 181.051 280.468C181.927 280.468 182.683 280.888 182.983 281.884C183.127 281.38 183.739 280.468 185.047 280.468C186.259 280.468 187.171 281.176 187.171 282.94V286.828H185.959V283.216ZM188.512 286.828V280.588H189.724V286.828H188.512ZM189.112 279.508C188.728 279.508 188.392 279.196 188.392 278.788C188.392 278.392 188.728 278.068 189.112 278.068C189.496 278.068 189.832 278.392 189.832 278.788C189.832 279.196 189.496 279.508 189.112 279.508ZM190.875 286.828V285.796L194.487 281.62H190.995V280.588H195.927V281.62L192.315 285.796H195.927V286.828H190.875ZM199.767 286.948C198.087 286.948 196.743 285.964 196.743 283.72C196.743 281.428 198.111 280.468 199.719 280.468C201.327 280.468 202.563 281.44 202.563 283.624C202.563 283.84 202.551 283.96 202.527 284.092H197.907C198.003 285.4 198.663 286 199.779 286C200.547 286 201.135 285.724 201.399 284.992H202.479C202.107 286.384 201.039 286.948 199.767 286.948ZM197.919 283.18H201.411C201.387 282.088 200.775 281.416 199.707 281.416C198.711 281.416 198.027 281.992 197.919 283.18ZM206.148 286.948C204.756 286.948 203.364 285.964 203.364 283.708C203.364 281.44 204.756 280.468 206.148 280.468C207.072 280.468 207.864 280.888 208.236 281.572V278.428H209.448V286.828H208.236V285.844C207.864 286.528 207.072 286.948 206.148 286.948ZM206.4 285.928C207.36 285.928 208.296 285.232 208.296 283.708C208.296 282.184 207.36 281.488 206.4 281.488C205.428 281.488 204.516 282.184 204.516 283.708C204.516 285.232 205.428 285.928 206.4 285.928ZM215.799 286.948C214.299 286.948 213.231 286.324 213.195 284.968H214.287C214.383 285.736 215.043 286.012 215.811 286.012C216.579 286.012 217.179 285.736 217.179 285.064C217.179 284.56 216.831 284.356 216.243 284.224L215.079 283.96C213.903 283.684 213.375 283.084 213.375 282.244C213.375 281.104 214.347 280.468 215.799 280.468C217.287 280.468 218.187 281.14 218.247 282.424H217.227C217.119 281.656 216.591 281.404 215.811 281.404C214.995 281.404 214.551 281.68 214.551 282.22C214.551 282.652 214.827 282.916 215.475 283.06L216.651 283.324C217.659 283.564 218.415 283.972 218.415 285.04C218.415 286.42 217.167 286.948 215.799 286.948ZM219.403 286.828V278.428H220.615V286.828H219.403ZM223.169 284.2C223.169 285.316 223.649 285.928 224.633 285.928C225.617 285.928 226.301 285.316 226.301 284.2V280.588H227.513V286.828H226.301V285.58H226.265C226.157 286.048 225.557 286.948 224.165 286.948C222.941 286.948 221.957 286.24 221.957 284.476V280.588H223.169V284.2ZM231.512 289.336C230.276 289.336 228.752 288.904 228.74 287.32H229.808C229.844 288.028 230.612 288.388 231.488 288.388C232.52 288.388 233.36 287.896 233.36 286.684V285.652H233.336C232.952 286.3 232.148 286.684 231.272 286.684C229.904 286.684 228.56 285.784 228.56 283.576C228.56 281.368 229.916 280.468 231.272 280.468C232.148 280.468 232.952 280.852 233.336 281.5H233.36V280.588H234.572V286.684C234.572 288.844 232.82 289.336 231.512 289.336ZM231.56 285.676C232.52 285.676 233.42 285.004 233.42 283.576C233.42 282.148 232.52 281.488 231.56 281.488C230.588 281.488 229.7 282.148 229.7 283.576C229.7 285.004 230.588 285.676 231.56 285.676ZM236.526 286.948C236.094 286.948 235.734 286.6 235.734 286.156C235.734 285.724 236.094 285.364 236.526 285.364C236.97 285.364 237.33 285.724 237.33 286.156C237.33 286.6 236.97 286.948 236.526 286.948Z" fill="#1F232B"/>
<path d="M190.739 160.682C190.739 159.209 189.546 158.015 188.073 158.015C186.6 158.015 185.406 159.209 185.406 160.682C185.406 162.154 186.6 163.348 188.073 163.348C189.546 163.348 190.739 162.154 190.739 160.682ZM187.573 160.682L187.573 248.59L188.573 248.59L188.573 160.682L187.573 160.682Z" fill="#4162DC"/>
<path d="M214.239 74.74C211.947 74.74 210.399 73.216 210.399 70.42C210.399 67.636 211.947 66.112 214.251 66.112C215.991 66.112 217.347 66.988 217.587 68.824H216.363C216.099 67.732 215.295 67.192 214.215 67.192C212.607 67.192 211.659 68.404 211.659 70.42C211.659 72.436 212.595 73.66 214.215 73.66C215.295 73.66 216.099 73.12 216.363 72.016H217.587C217.347 73.864 215.991 74.74 214.239 74.74ZM218.618 74.62V68.38H219.83V69.82H219.866C220.046 69.088 220.634 68.308 221.774 68.308C221.93 68.308 222.098 68.32 222.242 68.368V69.388C222.086 69.364 221.942 69.352 221.786 69.352C220.622 69.352 219.83 70.108 219.83 71.5V74.62H218.618ZM225.713 74.74C224.033 74.74 222.689 73.756 222.689 71.512C222.689 69.22 224.057 68.26 225.665 68.26C227.273 68.26 228.509 69.232 228.509 71.416C228.509 71.632 228.497 71.752 228.473 71.884H223.853C223.949 73.192 224.609 73.792 225.725 73.792C226.493 73.792 227.081 73.516 227.345 72.784H228.425C228.053 74.176 226.985 74.74 225.713 74.74ZM223.865 70.972H227.357C227.333 69.88 226.721 69.208 225.653 69.208C224.657 69.208 223.973 69.784 223.865 70.972ZM231.339 74.74C230.175 74.74 229.251 74.224 229.251 72.988C229.251 71.788 230.127 71.296 231.243 71.164L232.791 70.984C233.367 70.912 233.559 70.804 233.559 70.612V70.444C233.559 69.448 233.043 69.184 232.167 69.184C231.267 69.184 230.763 69.448 230.763 70.24V70.384H229.599V70.132C229.599 68.884 230.475 68.26 232.191 68.26C233.955 68.26 234.771 68.92 234.771 70.432V74.62H233.631V73.612H233.583C233.463 73.852 232.875 74.74 231.339 74.74ZM231.639 73.792C232.959 73.792 233.559 72.976 233.559 72.304V71.62C233.475 71.752 233.319 71.836 232.707 71.908L231.531 72.064C230.751 72.16 230.463 72.436 230.463 72.928C230.463 73.516 230.883 73.792 231.639 73.792ZM238.278 74.704C237.234 74.704 236.526 74.26 236.526 73.036V69.34H235.506V68.38H236.526V66.808H237.738V68.38H238.974V69.34H237.738V72.832C237.738 73.444 237.942 73.72 238.614 73.72C238.758 73.72 238.866 73.72 239.058 73.696V74.608C238.83 74.668 238.566 74.704 238.278 74.704ZM242.705 74.74C241.025 74.74 239.681 73.756 239.681 71.512C239.681 69.22 241.049 68.26 242.657 68.26C244.265 68.26 245.501 69.232 245.501 71.416C245.501 71.632 245.489 71.752 245.465 71.884H240.845C240.941 73.192 241.601 73.792 242.717 73.792C243.485 73.792 244.073 73.516 244.337 72.784H245.417C245.045 74.176 243.977 74.74 242.705 74.74ZM240.857 70.972H244.349C244.325 69.88 243.713 69.208 242.645 69.208C241.649 69.208 240.965 69.784 240.857 70.972ZM251.097 74.74C249.933 74.74 249.009 74.224 249.009 72.988C249.009 71.788 249.885 71.296 251.001 71.164L252.549 70.984C253.125 70.912 253.317 70.804 253.317 70.612V70.444C253.317 69.448 252.801 69.184 251.925 69.184C251.025 69.184 250.521 69.448 250.521 70.24V70.384H249.357V70.132C249.357 68.884 250.233 68.26 251.949 68.26C253.713 68.26 254.529 68.92 254.529 70.432V74.62H253.389V73.612H253.341C253.221 73.852 252.633 74.74 251.097 74.74ZM251.397 73.792C252.717 73.792 253.317 72.976 253.317 72.304V71.62C253.233 71.752 253.077 71.836 252.465 71.908L251.289 72.064C250.509 72.16 250.221 72.436 250.221 72.928C250.221 73.516 250.641 73.792 251.397 73.792ZM260.263 71.008C260.263 69.892 259.783 69.28 258.799 69.28C257.815 69.28 257.131 69.892 257.131 71.008V74.62H255.919V68.38H257.131V69.628H257.167C257.275 69.16 257.875 68.26 259.267 68.26C260.491 68.26 261.475 68.968 261.475 70.732V74.62H260.263V71.008ZM265.167 74.62L268.323 66.22H269.883L273.039 74.62H271.731L271.023 72.688H267.183L266.475 74.62H265.167ZM267.531 71.74H270.675L269.139 67.528H269.067L267.531 71.74ZM273.653 74.62L276.917 66.22H278.129L274.865 74.62H273.653ZM279.157 74.62V66.22H282.361C284.149 66.22 284.953 67.06 284.953 68.272C284.953 69.16 284.533 69.748 283.789 70.012C284.881 70.312 285.505 71.044 285.505 72.184C285.505 73.576 284.533 74.62 282.433 74.62H279.157ZM282.361 73.552C283.621 73.552 284.185 72.94 284.185 72.1C284.185 71.26 283.621 70.672 282.361 70.672H280.405V73.552H282.361ZM282.277 69.616C283.165 69.616 283.669 69.208 283.669 68.428C283.669 67.672 283.165 67.276 282.277 67.276H280.405V69.616H282.277ZM291.669 74.704C290.625 74.704 289.917 74.26 289.917 73.036V69.34H288.897V68.38H289.917V66.808H291.129V68.38H292.365V69.34H291.129V72.832C291.129 73.444 291.333 73.72 292.005 73.72C292.149 73.72 292.257 73.72 292.449 73.696V74.608C292.221 74.668 291.957 74.704 291.669 74.704ZM296.096 74.74C294.416 74.74 293.072 73.756 293.072 71.512C293.072 69.22 294.44 68.26 296.048 68.26C297.656 68.26 298.892 69.232 298.892 71.416C298.892 71.632 298.88 71.752 298.856 71.884H294.236C294.332 73.192 294.992 73.792 296.108 73.792C296.876 73.792 297.464 73.516 297.728 72.784H298.808C298.436 74.176 297.368 74.74 296.096 74.74ZM294.248 70.972H297.74C297.716 69.88 297.104 69.208 296.036 69.208C295.04 69.208 294.356 69.784 294.248 70.972ZM302.178 74.74C300.678 74.74 299.61 74.116 299.574 72.76H300.666C300.762 73.528 301.422 73.804 302.19 73.804C302.958 73.804 303.558 73.528 303.558 72.856C303.558 72.352 303.21 72.148 302.622 72.016L301.458 71.752C300.282 71.476 299.754 70.876 299.754 70.036C299.754 68.896 300.726 68.26 302.178 68.26C303.666 68.26 304.566 68.932 304.626 70.216H303.606C303.498 69.448 302.97 69.196 302.19 69.196C301.374 69.196 300.93 69.472 300.93 70.012C300.93 70.444 301.206 70.708 301.854 70.852L303.03 71.116C304.038 71.356 304.794 71.764 304.794 72.832C304.794 74.212 303.546 74.74 302.178 74.74ZM308.134 74.704C307.09 74.704 306.382 74.26 306.382 73.036V69.34H305.362V68.38H306.382V66.808H307.594V68.38H308.83V69.34H307.594V72.832C307.594 73.444 307.798 73.72 308.47 73.72C308.614 73.72 308.722 73.72 308.914 73.696V74.608C308.686 74.668 308.422 74.704 308.134 74.704ZM208.457 91.74C206.909 91.74 205.421 90.732 205.421 88.5C205.421 86.268 206.909 85.26 208.457 85.26C210.017 85.26 211.505 86.268 211.505 88.5C211.505 90.732 210.017 91.74 208.457 91.74ZM208.457 90.72C209.465 90.72 210.353 90.036 210.353 88.5C210.353 86.964 209.465 86.28 208.457 86.28C207.449 86.28 206.573 86.964 206.573 88.5C206.573 90.036 207.449 90.72 208.457 90.72ZM216.897 88.008C216.897 86.892 216.417 86.28 215.433 86.28C214.449 86.28 213.765 86.892 213.765 88.008V91.62H212.553V85.38H213.765V86.628H213.801C213.909 86.16 214.509 85.26 215.901 85.26C217.125 85.26 218.109 85.968 218.109 87.732V91.62H216.897V88.008ZM224.573 91.704C223.529 91.704 222.821 91.26 222.821 90.036V86.34H221.801V85.38H222.821V83.808H224.033V85.38H225.269V86.34H224.033V89.832C224.033 90.444 224.237 90.72 224.909 90.72C225.053 90.72 225.161 90.72 225.353 90.696V91.608C225.125 91.668 224.861 91.704 224.573 91.704ZM230.679 88.008C230.679 86.892 230.199 86.28 229.215 86.28C228.231 86.28 227.547 86.892 227.547 88.008V91.62H226.335V83.22H227.547V86.628H227.583C227.691 86.16 228.291 85.26 229.683 85.26C230.907 85.26 231.891 85.968 231.891 87.732V91.62H230.679V88.008ZM235.961 91.74C234.281 91.74 232.937 90.756 232.937 88.512C232.937 86.22 234.305 85.26 235.913 85.26C237.521 85.26 238.757 86.232 238.757 88.416C238.757 88.632 238.745 88.752 238.721 88.884H234.101C234.197 90.192 234.857 90.792 235.973 90.792C236.741 90.792 237.329 90.516 237.593 89.784H238.673C238.301 91.176 237.233 91.74 235.961 91.74ZM234.113 87.972H237.605C237.581 86.88 236.969 86.208 235.901 86.208C234.905 86.208 234.221 86.784 234.113 87.972ZM245.313 91.74C243.741 91.74 242.265 90.768 242.265 88.512C242.265 86.256 243.741 85.26 245.313 85.26C246.429 85.26 247.809 85.74 248.037 87.6H246.933C246.765 86.64 246.081 86.292 245.301 86.292C244.161 86.292 243.405 87.108 243.405 88.512C243.405 89.916 244.161 90.708 245.301 90.708C246.093 90.708 246.765 90.348 246.933 89.376H248.037C247.833 91.26 246.429 91.74 245.313 91.74ZM250.281 88.992C250.281 90.108 250.761 90.72 251.745 90.72C252.729 90.72 253.413 90.108 253.413 88.992V85.38H254.625V91.62H253.413V90.372H253.377C253.269 90.84 252.669 91.74 251.277 91.74C250.053 91.74 249.069 91.032 249.069 89.268V85.38H250.281V88.992ZM255.971 91.62V85.38H257.183V86.82H257.219C257.399 86.088 257.987 85.308 259.127 85.308C259.283 85.308 259.451 85.32 259.595 85.368V86.388C259.439 86.364 259.295 86.352 259.139 86.352C257.975 86.352 257.183 87.108 257.183 88.5V91.62H255.971ZM260.518 91.62V85.38H261.73V86.82H261.766C261.946 86.088 262.534 85.308 263.674 85.308C263.83 85.308 263.998 85.32 264.142 85.368V86.388C263.986 86.364 263.842 86.352 263.686 86.352C262.522 86.352 261.73 87.108 261.73 88.5V91.62H260.518ZM267.613 91.74C265.933 91.74 264.589 90.756 264.589 88.512C264.589 86.22 265.957 85.26 267.565 85.26C269.173 85.26 270.409 86.232 270.409 88.416C270.409 88.632 270.397 88.752 270.373 88.884H265.753C265.849 90.192 266.509 90.792 267.625 90.792C268.393 90.792 268.981 90.516 269.245 89.784H270.325C269.953 91.176 268.885 91.74 267.613 91.74ZM265.765 87.972H269.257C269.233 86.88 268.621 86.208 267.553 86.208C266.557 86.208 265.873 86.784 265.765 87.972ZM275.796 88.008C275.796 86.892 275.316 86.28 274.332 86.28C273.348 86.28 272.664 86.892 272.664 88.008V91.62H271.452V85.38H272.664V86.628H272.7C272.808 86.16 273.408 85.26 274.8 85.26C276.024 85.26 277.008 85.968 277.008 87.732V91.62H275.796V88.008ZM280.589 91.704C279.545 91.704 278.837 91.26 278.837 90.036V86.34H277.817V85.38H278.837V83.808H280.049V85.38H281.285V86.34H280.049V89.832C280.049 90.444 280.253 90.72 280.925 90.72C281.069 90.72 281.177 90.72 281.369 90.696V91.608C281.141 91.668 280.877 91.704 280.589 91.704ZM285.116 93.9V85.38H286.328V86.364C286.7 85.68 287.492 85.26 288.416 85.26C289.808 85.26 291.2 86.232 291.2 88.5C291.2 90.756 289.808 91.74 288.416 91.74C287.492 91.74 286.7 91.32 286.328 90.636V93.9H285.116ZM288.164 90.72C289.136 90.72 290.048 90.024 290.048 88.5C290.048 86.976 289.136 86.28 288.164 86.28C287.204 86.28 286.268 86.976 286.268 88.5C286.268 90.024 287.204 90.72 288.164 90.72ZM294.029 91.74C292.865 91.74 291.941 91.224 291.941 89.988C291.941 88.788 292.817 88.296 293.933 88.164L295.481 87.984C296.057 87.912 296.249 87.804 296.249 87.612V87.444C296.249 86.448 295.733 86.184 294.857 86.184C293.957 86.184 293.453 86.448 293.453 87.24V87.384H292.289V87.132C292.289 85.884 293.165 85.26 294.881 85.26C296.645 85.26 297.461 85.92 297.461 87.432V91.62H296.321V90.612H296.273C296.153 90.852 295.565 91.74 294.029 91.74ZM294.329 90.792C295.649 90.792 296.249 89.976 296.249 89.304V88.62C296.165 88.752 296.009 88.836 295.397 88.908L294.221 89.064C293.441 89.16 293.153 89.436 293.153 89.928C293.153 90.516 293.573 90.792 294.329 90.792ZM301.385 94.128C300.149 94.128 298.625 93.696 298.613 92.112H299.681C299.717 92.82 300.485 93.18 301.361 93.18C302.393 93.18 303.233 92.688 303.233 91.476V90.444H303.209C302.825 91.092 302.021 91.476 301.145 91.476C299.777 91.476 298.433 90.576 298.433 88.368C298.433 86.16 299.789 85.26 301.145 85.26C302.021 85.26 302.825 85.644 303.209 86.292H303.233V85.38H304.445V91.476C304.445 93.636 302.693 94.128 301.385 94.128ZM301.433 90.468C302.393 90.468 303.293 89.796 303.293 88.368C303.293 86.94 302.393 86.28 301.433 86.28C300.461 86.28 299.573 86.94 299.573 88.368C299.573 89.796 300.461 90.468 301.433 90.468ZM308.512 91.74C306.832 91.74 305.488 90.756 305.488 88.512C305.488 86.22 306.856 85.26 308.464 85.26C310.072 85.26 311.308 86.232 311.308 88.416C311.308 88.632 311.296 88.752 311.272 88.884H306.652C306.748 90.192 307.408 90.792 308.524 90.792C309.292 90.792 309.88 90.516 310.144 89.784H311.224C310.852 91.176 309.784 91.74 308.512 91.74ZM306.664 87.972H310.156C310.132 86.88 309.52 86.208 308.452 86.208C307.456 86.208 306.772 86.784 306.664 87.972ZM312.786 91.74C312.354 91.74 311.994 91.392 311.994 90.948C311.994 90.516 312.354 90.156 312.786 90.156C313.23 90.156 313.59 90.516 313.59 90.948C313.59 91.392 313.23 91.74 312.786 91.74Z" fill="#1F232B"/>
<path d="M256.898 115.171C256.898 116.644 258.092 117.838 259.565 117.838C261.038 117.838 262.232 116.644 262.232 115.171C262.232 113.699 261.038 112.505 259.565 112.505C258.092 112.505 256.898 113.699 256.898 115.171ZM260.065 115.171L260.065 100.62L259.065 100.62L259.065 115.171L260.065 115.171Z" fill="#4162DC"/>
</g>
<defs>
<filter id="filter0_d_3383_23357" x="33.2772" y="123.573" width="27.8315" height="27.8315" filterUnits="userSpaceOnUse" color-interpolation-filters="sRGB">
<feFlood flood-opacity="0" result="BackgroundImageFix"/>
<feColorMatrix in="SourceAlpha" type="matrix" values="0 0 0 0 0 0 0 0 0 0 0 0 0 0 0 0 0 0 127 0" result="hardAlpha"/>
<feOffset/>
<feGaussianBlur stdDeviation="1.5462"/>
<feComposite in2="hardAlpha" operator="out"/>
<feColorMatrix type="matrix" values="0 0 0 0 0.614635 0 0 0 0 0.691832 0 0 0 0 0.977031 0 0 0 1 0"/>
<feBlend mode="normal" in2="BackgroundImageFix" result="effect1_dropShadow_3383_23357"/>
<feBlend mode="normal" in="SourceGraphic" in2="effect1_dropShadow_3383_23357" result="shape"/>
</filter>
<filter id="filter1_ddd_3383_23357" x="16" y="148.951" width="729.352" height="62.3859" filterUnits="userSpaceOnUse" color-interpolation-filters="sRGB">
<feFlood flood-opacity="0" result="BackgroundImageFix"/>
<feColorMatrix in="SourceAlpha" type="matrix" values="0 0 0 0 0 0 0 0 0 0 0 0 0 0 0 0 0 0 127 0" result="hardAlpha"/>
<feOffset/>
<feGaussianBlur stdDeviation="0.5"/>
<feColorMatrix type="matrix" values="0 0 0 0 0 0 0 0 0 0 0 0 0 0 0 0 0 0 0.04 0"/>
<feBlend mode="normal" in2="BackgroundImageFix" result="effect1_dropShadow_3383_23357"/>
<feColorMatrix in="SourceAlpha" type="matrix" values="0 0 0 0 0 0 0 0 0 0 0 0 0 0 0 0 0 0 127 0" result="hardAlpha"/>
<feOffset/>
<feGaussianBlur stdDeviation="1"/>
<feColorMatrix type="matrix" values="0 0 0 0 0 0 0 0 0 0 0 0 0 0 0 0 0 0 0.06 0"/>
<feBlend mode="normal" in2="effect1_dropShadow_3383_23357" result="effect2_dropShadow_3383_23357"/>
<feColorMatrix in="SourceAlpha" type="matrix" values="0 0 0 0 0 0 0 0 0 0 0 0 0 0 0 0 0 0 127 0" result="hardAlpha"/>
<feOffset dy="4"/>
<feGaussianBlur stdDeviation="4"/>
<feColorMatrix type="matrix" values="0 0 0 0 0 0 0 0 0 0 0 0 0 0 0 0 0 0 0.04 0"/>
<feBlend mode="normal" in2="effect2_dropShadow_3383_23357" result="effect3_dropShadow_3383_23357"/>
<feBlend mode="normal" in="SourceGraphic" in2="effect3_dropShadow_3383_23357" result="shape"/>
</filter>
<clipPath id="clip0_3383_23357">
<rect width="358" height="309" fill="white" transform="translate(0 0.37146)"/>
</clipPath>
<clipPath id="clip1_3383_23357">
<rect width="46.3859" height="20.8736" fill="white" transform="translate(36.3696 165.707)"/>
</clipPath>
</defs>
</svg>
