<svg width="32" height="32" viewBox="0 0 32 32" fill="none" xmlns="http://www.w3.org/2000/svg">
<path d="M24.95 18.4989C24.8995 16.6693 24.8229 14.9393 23.7924 13.2051C22.5192 11.0618 19.9611 9.35785 17.1241 9.03123C14.6311 8.74363 11.9198 9.50237 10.1191 11.1846C9.69707 11.4751 9.32709 11.8191 9.01203 12.2078C8.82993 12.4347 8.67096 12.6747 8.53655 12.9276C8.53366 12.9319 8.53222 12.9362 8.52933 12.9406C8.51777 12.9521 8.5062 12.9637 8.49463 12.9782C8.29086 13.2585 8.12899 13.5649 8.01771 13.8858C7.90932 14.1994 7.82116 14.5563 8.03939 14.8497C8.22583 15.0998 8.52499 15.2457 8.81693 15.3744C9.158 15.5261 9.51353 15.6562 9.87917 15.7501C10.054 15.7949 10.2333 15.831 10.4139 15.8585C10.4992 15.8845 10.5859 15.9019 10.6755 15.9091C10.6943 15.9206 10.7145 15.9308 10.7376 15.9365C10.9429 15.9987 11.1582 16.0522 11.3735 16.0493C11.4126 16.0406 11.453 16.0377 11.4935 16.0348C11.56 16.0305 11.6236 16.0131 11.6857 15.99C11.81 15.9438 11.8982 15.8628 11.9704 15.7602C12.0557 15.6388 12.1193 15.503 12.2002 15.3801C12.2595 15.2501 12.326 15.1214 12.3953 14.9957C13.1801 14.2659 13.7163 13.26 14.858 13.0461C16.5316 12.7339 17.5346 13.6184 19.0506 14.4523C20.3166 15.1489 20.8413 17.1896 20.5565 18.5943C20.3065 19.8286 20.136 21.0671 19.5709 22.3071C19.3425 22.8072 19.2558 23.3304 18.4812 23.6945C17.6227 24.0963 16.0763 24.3333 14.9895 24.1238C14.488 24.027 13.8579 23.7596 13.5255 23.4532C12.761 22.7508 12.4531 21.9039 12.1308 21.0411C12.0224 20.4283 11.9748 19.8054 11.8779 19.1898C11.8404 18.9484 11.797 18.7042 11.7363 18.4657C11.7233 18.3761 11.7117 18.2865 11.7045 18.1954C11.7045 18.168 11.7045 18.1391 11.7045 18.1116C11.7045 17.9555 11.7132 17.7937 11.6828 17.639C11.6828 17.6376 11.6828 17.6361 11.6828 17.6347C11.6337 17.5249 11.5759 17.4165 11.5238 17.3081C11.521 17.3052 11.5166 17.3023 11.5123 17.298C11.4718 17.2719 11.4299 17.2474 11.3865 17.2242C11.2753 17.1635 11.1654 17.1028 11.0657 17.0277C10.9602 16.9713 10.8504 16.9207 10.7376 16.8788C10.7102 16.8557 10.6784 16.8355 10.6394 16.8239C10.4544 16.7647 10.2694 16.7054 10.0844 16.6462C10.0598 16.6375 10.0353 16.6288 10.0107 16.6201C9.61759 16.4886 9.20281 16.3759 8.78224 16.3427C8.52066 16.295 8.24028 16.2646 7.9758 16.2935C7.90788 16.3007 7.84139 16.3123 7.77636 16.3296C7.77636 16.3268 7.77636 16.3253 7.77781 16.3224C7.63184 16.4193 7.47575 16.5089 7.36447 16.6375C7.28643 16.7285 7.22862 16.834 7.18237 16.9424C7.04074 17.8544 7.0075 18.7808 7.09132 19.6999C7.1289 20.1118 7.17515 20.5338 7.31822 20.9226C7.31822 20.9284 7.32111 20.9342 7.32255 20.9399C7.32834 20.9645 7.33845 20.9847 7.35001 21.0021C7.35001 21.005 7.35291 21.0093 7.35435 21.0122C7.522 21.9212 7.82405 22.8361 8.19114 23.6367C9.12765 25.6832 10.8431 27.0778 13.0269 27.6791C15.4664 28.3511 18.2066 27.8785 20.2111 27.0836C22.2157 26.2902 22.9527 25.3175 23.8618 23.722C24.7694 22.125 24.9992 20.3286 24.9472 18.4975L24.95 18.4989ZM8.72876 14.38C8.67673 14.2774 8.65795 14.1604 8.65939 14.0462C8.6724 14.156 8.69552 14.2673 8.72876 14.38ZM7.9469 17.1867C7.93678 17.1997 7.92666 17.2112 7.91654 17.2242C7.91943 17.2112 7.92377 17.1997 7.92666 17.1867C7.93244 17.1867 7.93967 17.1867 7.94545 17.1867H7.9469Z" fill="#5377FC"/>
<path d="M14.0804 9.63244C14.3001 9.50381 14.5703 9.43878 14.7423 9.2639C14.9143 9.08903 14.975 8.81154 15.082 8.58898C15.1889 8.36641 15.3667 8.18287 15.4158 7.95163C15.4649 7.72039 15.3739 7.46748 15.3826 7.23046C15.3927 6.94431 15.4938 6.64803 15.4447 6.36477C15.3956 6.0815 15.2034 5.84448 15.0747 5.5829C14.9432 5.31553 14.8493 4.99613 14.6209 4.78368C14.3926 4.57124 14.0818 4.50909 13.7885 4.39781C13.4951 4.28652 13.1728 4.11599 12.8491 4.13044C12.508 4.14634 12.2233 4.34578 11.9877 4.55389C11.3229 5.1421 10.833 5.8546 10.7188 6.6567C10.6032 7.46459 10.8778 8.28982 11.3345 9.037C11.6062 9.48213 12.0238 9.87668 12.5615 9.98796C13.0615 10.0906 13.5963 9.91715 14.0819 9.63099L14.0804 9.63244Z" fill="white"/>
<path d="M14.8307 5.26932C14.4752 4.85165 13.7107 4.83864 13.2222 5.13491C12.7323 5.43263 12.4808 5.95002 12.3666 6.45874C12.1787 7.2912 12.3131 8.20458 12.884 8.89251C13.1196 9.17578 13.4679 9.43158 13.8697 9.42002C14.1616 9.41135 14.6125 9.26249 14.7975 9.06594C14.9825 8.86939 15.1053 8.68874 15.2079 8.45027C15.4522 7.88374 15.4565 7.22761 15.4392 6.6235C15.4218 6.01939 15.1631 5.39794 14.6284 5.01351" fill="black"/>
<path d="M20.0247 9.63244C20.2444 9.50381 20.5147 9.43878 20.6867 9.2639C20.8586 9.08903 20.9193 8.81154 21.0263 8.58898C21.1332 8.36641 21.311 8.18287 21.3601 7.95163C21.4093 7.72039 21.3182 7.46748 21.3269 7.23046C21.337 6.94431 21.4382 6.64803 21.389 6.36477C21.3399 6.0815 21.1477 5.84448 21.0191 5.5829C20.8904 5.32131 20.7936 4.99613 20.5653 4.78368C20.3369 4.57124 20.0262 4.50909 19.7328 4.39781C19.4394 4.28652 19.1171 4.11599 18.7934 4.13044C18.4523 4.14634 18.1676 4.34578 17.932 4.55389C17.2672 5.1421 16.7773 5.8546 16.6631 6.6567C16.5475 7.46459 16.8221 8.28982 17.2788 9.037C17.5505 9.48213 17.9682 9.87668 18.5058 9.98796C19.0059 10.0906 19.5406 9.91715 20.0262 9.63099L20.0247 9.63244Z" fill="white"/>
<path d="M20.7746 5.26932C20.4191 4.85165 19.6545 4.83864 19.166 5.13491C18.6761 5.43263 18.4246 5.95002 18.3105 6.45874C18.1226 7.2912 18.257 8.20458 18.8279 8.89251C19.0634 9.17578 19.4117 9.43158 19.8135 9.42002C20.1054 9.41135 20.5679 9.31886 20.7529 9.12231C20.9379 8.92575 20.9769 8.85349 21.0795 8.61503C21.3238 8.0485 21.4004 7.22761 21.383 6.6235C21.3657 6.01939 21.107 5.39794 20.5723 5.01351" fill="black"/>
<path d="M16.7802 5.74189C16.3438 6.78245 16.4247 7.97621 16.9522 8.96764C17.1762 9.38676 17.4971 9.72639 17.9306 9.93306C18.3584 10.1354 18.8339 10.2077 19.3036 10.1412C19.8138 10.0689 20.2748 9.81888 20.6549 9.47781C21.0711 9.1035 21.3414 8.61356 21.4686 8.07015C21.7229 6.98334 21.5813 5.69997 20.811 4.84729C20.428 4.42383 19.9048 4.13334 19.3412 4.0394C18.7775 3.94546 18.1951 4.00472 17.7601 4.37903C17.5751 4.53801 17.8439 4.80393 18.0275 4.6464C18.3382 4.38048 18.7978 4.34435 19.188 4.39638C19.6245 4.45563 20.0407 4.64206 20.3673 4.93834C21.1232 5.62193 21.2951 6.69574 21.1622 7.66693C21.0957 8.15109 20.928 8.62946 20.6014 8.99944C20.3023 9.33762 19.9077 9.61077 19.4684 9.72639C18.7284 9.9215 17.8353 9.66569 17.4104 9.00088C16.8091 8.06004 16.7181 6.87061 17.1473 5.8445C17.1863 5.75056 17.1054 5.63638 17.0158 5.61181C16.9074 5.58147 16.8221 5.64939 16.7831 5.74333L16.7802 5.74189Z" fill="black"/>
<path d="M10.8359 5.74189C10.3994 6.78245 10.4804 7.97621 11.0079 8.96764C11.2319 9.38676 11.5527 9.72639 11.9863 9.93306C12.4199 10.1397 12.8896 10.2077 13.3593 10.1412C13.8694 10.0689 14.3305 9.81888 14.7106 9.47781C15.1268 9.1035 15.397 8.61356 15.5242 8.07015C15.7786 6.98334 15.637 5.69997 14.8667 4.84729C14.4837 4.42383 13.9605 4.13334 13.3969 4.0394C12.8332 3.94546 12.2508 4.00472 11.8158 4.37903C11.6308 4.53801 11.8996 4.80393 12.0831 4.6464C12.3939 4.38048 12.8534 4.34435 13.2437 4.39638C13.6801 4.45563 14.0963 4.64206 14.423 4.93834C15.1788 5.62193 15.3508 6.69574 15.2178 7.66693C15.1514 8.15109 14.9837 8.62946 14.6571 8.99944C14.3579 9.33762 13.9634 9.61077 13.524 9.72639C12.7841 9.9215 11.8909 9.66569 11.466 9.00088C10.8648 8.06004 10.7738 6.87061 11.203 5.8445C11.242 5.75056 11.1611 5.63638 11.0715 5.61181C10.9631 5.58147 10.8778 5.64939 10.8388 5.74333L10.8359 5.74189Z" fill="black"/>
</svg>
