<svg width="17" height="19" viewBox="0 0 17 19" fill="none" xmlns="http://www.w3.org/2000/svg">
<g clip-path="url(#clip0_2956_16448)">
<path d="M16.2005 10.7099C16.2005 10.7099 16.1844 9.60051 16.1282 8.55947C16.0729 7.51945 15.5735 6.19103 14.2833 6.04834C12.8614 5.89158 12.8403 7.80985 12.8403 7.80985C13.1659 5.38915 11.547 4.89175 10.4648 5.17612C9.38257 5.4605 9.41372 7.64405 9.41372 7.64405C9.41372 7.64405 9.0771 6.36487 9.01379 5.1932C8.95149 4.02054 8.85201 2.04298 8.16268 1.25818C7.52359 0.528659 6.50969 0.841169 6.08061 1.62395C5.71083 2.2962 6.03439 3.70803 5.9952 4.45564C5.90778 6.15787 6.20723 7.89124 6.19215 9.60151C6.19115 9.72209 6.05851 9.79746 5.95501 9.73516C5.78217 9.62663 5.61034 9.51811 5.43751 9.40958C5.09686 9.19555 4.76124 8.96343 4.41054 8.76647C3.43382 8.21983 1.51655 7.7797 0.836266 8.9986C0.0263518 10.4496 2.27623 11.0837 2.77664 11.2997C3.76341 11.7248 6.04544 13.8541 6.93876 14.8368C7.37889 15.3212 7.63915 16.0617 7.82504 16.6787C8.03807 16.6224 8.20689 16.6717 8.41389 16.6847C8.27221 16.6757 8.13153 16.6496 7.98884 16.6536C7.81701 16.6586 7.66025 16.7229 7.55775 16.8646C7.37386 17.1219 7.401 17.5258 7.57283 17.78C7.76877 18.0714 8.13756 18.1709 8.46916 18.195C9.78251 18.2925 13.0131 18.4242 14.443 17.8926C14.7465 17.78 14.9465 17.4806 14.9183 17.158C14.8842 16.7692 14.5928 16.6415 14.5274 16.6305C14.023 16.5441 13.7004 16.6325 13.7004 16.6325C13.7004 16.6325 13.8532 16.5431 14.5013 16.6265C14.5224 16.4707 14.5325 16.3129 14.5897 16.1652C14.643 16.0266 14.7254 15.8989 14.7957 15.7703C14.9053 15.5694 15.0188 15.3704 15.1283 15.1704C15.3775 14.7182 15.6157 14.256 15.7805 13.7656C15.9674 13.2059 15.9533 12.6231 16.0709 12.0503C16.1593 11.6193 16.1473 11.1751 16.1975 10.739" fill="#F4F4F4"/>
<path d="M16.2005 10.7099C16.2005 10.7099 16.1844 9.60051 16.1281 8.55947C16.0729 7.51945 15.5734 6.19103 14.2832 6.04834C12.8613 5.89158 12.8402 7.80985 12.8402 7.80985C13.1658 5.38915 11.547 4.89175 10.4647 5.17612C9.38252 5.4605 9.41367 7.64304 9.41367 7.64405C9.30012 7.16272 9.18255 6.61809 9.11221 6.13676C8.90019 4.6757 9.2137 2.45698 8.16363 1.25818C7.52454 0.528659 6.51064 0.841169 6.08156 1.62395C5.35003 2.95639 6.10367 5.03142 6.10568 6.49349C6.10568 6.49349 6.20214 8.72025 6.19411 9.60151C6.1931 9.72209 6.06046 9.79746 5.95696 9.73516C5.78412 9.62663 5.61229 9.51811 5.43946 9.40958C5.09881 9.19555 4.76319 8.96343 4.41249 8.76647C3.43577 8.21983 1.51851 7.7797 0.83822 8.9986C0.0283049 10.4496 2.27818 11.0837 2.7786 11.2997C3.76537 11.7248 6.0474 13.8541 6.94071 14.8368C7.38084 15.3212 7.6411 16.0617 7.827 16.6787C8.04003 16.6224 8.20884 16.6717 8.41584 16.6847C8.27416 16.6757 8.13348 16.6496 7.99079 16.6536C7.81896 16.6586 7.6622 16.7229 7.55971 16.8646C7.37582 17.1219 7.40295 17.5258 7.57478 17.78C7.77073 18.0714 8.13951 18.1709 8.47111 18.195C9.78446 18.2925 13.0151 18.4242 14.445 17.8926C14.7485 17.78 14.9484 17.4806 14.9203 17.158C14.8861 16.7692 14.5947 16.6415 14.5294 16.6305C14.025 16.5441 13.7024 16.6325 13.7024 16.6325C13.7024 16.6325 13.8551 16.5431 14.5033 16.6265C14.5244 16.4707 14.5344 16.3129 14.5917 16.1652C14.645 16.0266 14.7273 15.8989 14.7977 15.7703C14.9072 15.5694 15.0208 15.3704 15.1303 15.1704C15.3795 14.7182 15.6177 14.256 15.7824 13.7656C15.9694 13.2059 15.9553 12.6231 16.0729 12.0503C16.1613 11.6193 16.1492 11.1751 16.1995 10.739" stroke="black" stroke-width="0.561715" stroke-linecap="round" stroke-linejoin="round"/>
</g>
<defs>
<clipPath id="clip0_2956_16448">
<rect width="16.0978" height="18" fill="white" transform="translate(0.383057 0.564941)"/>
</clipPath>
</defs>
</svg>
