<svg width="23" height="25" viewBox="0 0 23 25" fill="none" xmlns="http://www.w3.org/2000/svg">
<g clip-path="url(#clip0_2956_16454)">
<path d="M21.7491 14.0918C21.7491 14.0918 21.7277 12.6126 21.6527 11.2246C21.579 9.83786 20.9131 8.06663 19.1928 7.87638C17.297 7.66737 17.2688 10.2251 17.2688 10.2251C17.7029 6.99746 15.5445 6.33426 14.1015 6.71343C12.6585 7.09259 12.7001 10.004 12.7001 10.004C12.7001 10.004 12.2512 8.29842 12.1668 6.7362C12.0838 5.17265 11.9511 2.5359 11.032 1.48951C10.1799 0.516808 8.82802 0.933489 8.25592 1.9772C7.76287 2.87353 8.19429 4.75596 8.14204 5.75278C8.02548 8.02242 8.42474 10.3336 8.40464 12.6139C8.4033 12.7747 8.22645 12.8752 8.08845 12.7921C7.858 12.6474 7.62889 12.5027 7.39844 12.358C6.94425 12.0727 6.49675 11.7632 6.02916 11.5006C4.72687 10.7717 2.17051 10.1849 1.26346 11.8101C0.183573 13.7447 3.18341 14.5902 3.85063 14.8782C5.16632 15.445 8.20903 18.284 9.40012 19.5943C9.98696 20.2401 10.334 21.2276 10.5818 22.0502C10.8659 21.9752 11.091 22.0408 11.367 22.0583C11.178 22.0462 10.9905 22.0114 10.8002 22.0167C10.5711 22.0234 10.3621 22.1092 10.2254 22.2981C9.98026 22.6411 10.0164 23.1797 10.2455 23.5186C10.5068 23.9072 10.9985 24.0398 11.4406 24.072C13.1918 24.202 17.4993 24.3775 19.4058 23.6687C19.8104 23.5186 20.0771 23.1194 20.0395 22.6893C19.994 22.1708 19.6054 22.0006 19.5184 21.9859C18.8458 21.8707 18.4157 21.9886 18.4157 21.9886C18.4157 21.9886 18.6193 21.8693 19.4835 21.9805C19.5117 21.7729 19.5251 21.5625 19.6014 21.3656C19.6724 21.1807 19.7823 21.0105 19.8761 20.839C20.0221 20.5711 20.1735 20.3058 20.3196 20.0392C20.6518 19.4363 20.9694 18.8199 21.1891 18.1661C21.4383 17.4198 21.4195 16.6428 21.5763 15.8791C21.6942 15.3043 21.6781 14.7121 21.7451 14.1306" fill="#F4F4F4"/>
<path d="M21.7491 14.0918C21.7491 14.0918 21.7277 12.6126 21.6527 11.2246C21.579 9.83786 20.9131 8.06663 19.1928 7.87638C17.297 7.66737 17.2688 10.2251 17.2688 10.2251C17.7029 6.99746 15.5445 6.33426 14.1015 6.71343C12.6585 7.09259 12.7001 10.0027 12.7001 10.004C12.5487 9.36223 12.3919 8.63605 12.2981 7.99428C12.0154 6.0462 12.4335 3.0879 11.0334 1.48951C10.1812 0.516808 8.82937 0.933489 8.25727 1.9772C7.28189 3.75379 8.28674 6.52049 8.28942 8.46991C8.28942 8.46991 8.41805 11.4389 8.40733 12.6139C8.40599 12.7747 8.22913 12.8752 8.09113 12.7921C7.86068 12.6474 7.63158 12.5027 7.40113 12.358C6.94693 12.0727 6.49944 11.7632 6.03185 11.5006C4.72955 10.7717 2.1732 10.1849 1.26614 11.8101C0.186259 13.7447 3.18609 14.5902 3.85332 14.8782C5.16901 15.445 8.21171 18.284 9.40281 19.5943C9.98964 20.2401 10.3367 21.2276 10.5845 22.0502C10.8686 21.9752 11.0936 22.0408 11.3696 22.0583C11.1807 22.0462 10.9932 22.0114 10.8029 22.0167C10.5738 22.0234 10.3648 22.1092 10.2281 22.2981C9.98294 22.6411 10.0191 23.1797 10.2482 23.5186C10.5095 23.9072 11.0012 24.0398 11.4433 24.072C13.1945 24.202 17.502 24.3775 19.4085 23.6687C19.8131 23.5186 20.0797 23.1194 20.0422 22.6893C19.9967 22.1708 19.6081 22.0006 19.521 21.9859C18.8485 21.8707 18.4184 21.9886 18.4184 21.9886C18.4184 21.9886 18.622 21.8693 19.4862 21.9805C19.5143 21.7729 19.5277 21.5625 19.6041 21.3656C19.6751 21.1807 19.785 21.0105 19.8788 20.839C20.0248 20.5711 20.1762 20.3058 20.3222 20.0392C20.6545 19.4363 20.9721 18.8199 21.1918 18.1661C21.441 17.4198 21.4222 16.6428 21.579 15.8791C21.6969 15.3043 21.6808 14.7121 21.7478 14.1306" stroke="black" stroke-width="0.748953" stroke-linecap="round" stroke-linejoin="round"/>
</g>
<defs>
<clipPath id="clip0_2956_16454">
<rect width="21.4637" height="24" fill="white" transform="translate(0.65918 0.564941)"/>
</clipPath>
</defs>
</svg>
