<svg xmlns="http://www.w3.org/2000/svg" xmlns:xlink="http://www.w3.org/1999/xlink" viewBox="0 0 900 900" width="610" height="610" preserveAspectRatio="xMidYMid meet" style="width: 100%; height: 100%; transform: translate3d(0px, 0px, 0px); content-visibility: visible; background-color: transparent;"><defs><clipPath id="__lottie_element_103"><rect width="900" height="900" x="0" y="0"/></clipPath><clipPath id="__lottie_element_105"><path d="M0,0 L900,0 L900,900 L0,900z"/></clipPath><clipPath id="__lottie_element_115"><path d="M0,0 L900,0 L900,900 L0,900z"/></clipPath><clipPath id="__lottie_element_125"><path d="M0,0 L900,0 L900,900 L0,900z"/></clipPath><clipPath id="__lottie_element_135"><path d="M0,0 L900,0 L900,900 L0,900z"/></clipPath><clipPath id="__lottie_element_167"><path d="M0,0 L300,0 L300,300 L0,300z"/></clipPath><g id="__lottie_element_170"><g transform="matrix(1,0,0,1,242,73.375)" opacity="1" style="display: block;"><g opacity="1" transform="matrix(1.1196099519729614,0,0,1.1196099519729614,-101.91000366210938,87.4520034790039)"><path fill="rgb(255,255,255)" fill-opacity="1" d=" M0,-51.78049850463867 C24.58438491821289,-51.78049850463867 44.54499816894531,-28.57765769958496 44.54499816894531,0 C44.54499816894531,28.57765769958496 24.58438491821289,51.78049850463867 0,51.78049850463867 C-24.58438491821289,51.78049850463867 -44.54499816894531,28.57765769958496 -44.54499816894531,0 C-44.54499816894531,-28.57765769958496 -24.58438491821289,-51.78049850463867 0,-51.78049850463867z"/></g></g></g><mask id="__lottie_element_170_1" mask-type="alpha"><use xmlns:ns1="http://www.w3.org/1999/xlink" ns1:href="#__lottie_element_170"/></mask><clipPath id="__lottie_element_183"><path d="M0,0 L300,0 L300,300 L0,300z"/></clipPath><g id="__lottie_element_186"><g transform="matrix(1,0,0,1,242,73.375)" opacity="1" style="display: block;"><g opacity="1" transform="matrix(1.1196099519729614,0,0,1.1196099519729614,-101.91000366210938,87.4520034790039)"><path fill="rgb(255,255,255)" fill-opacity="1" d=" M0,-51.78049850463867 C24.58438491821289,-51.78049850463867 44.54499816894531,-28.57765769958496 44.54499816894531,0 C44.54499816894531,28.57765769958496 24.58438491821289,51.78049850463867 0,51.78049850463867 C-24.58438491821289,51.78049850463867 -44.54499816894531,28.57765769958496 -44.54499816894531,0 C-44.54499816894531,-28.57765769958496 -24.58438491821289,-51.78049850463867 0,-51.78049850463867z"/></g></g></g><mask id="__lottie_element_186_1" mask-type="alpha"><use xmlns:ns2="http://www.w3.org/1999/xlink" ns2:href="#__lottie_element_186"/></mask></defs><g clip-path="url(#__lottie_element_103)"><g transform="matrix(1,0,0,1,450,450)" opacity="1" style="display: block;"><g opacity="1" transform="matrix(1,0,0,1,0,0)"><path stroke-linecap="round" stroke-linejoin="miter" fill-opacity="0" stroke-miterlimit="4" stroke="rgb(0,0,0)" stroke-opacity="1" stroke-width="42" d=" M103.5,-21 C103.5,-21 123.75,25.812000274658203 150,36 C186,50 244,21 244,21"/></g></g><g transform="matrix(1,0,0,1,141.5,286)" opacity="1" style="display: block;"><g opacity="1" transform="matrix(1,0,0,1,242.16799926757812,199.6020050048828)"><path fill="rgb(55,62,81)" fill-opacity="1" d=" M202.2570037841797,-60.23099899291992 C154.9929962158203,-24.44499969482422 119.03099822998047,-18.8700008392334 68.8239974975586,-53.45899963378906 C55.14899826049805,-62.880001068115234 42.45199966430664,-71.99199676513672 28.547000885009766,-58.3120002746582 C14.694000244140625,-44.68199920654297 23.072999954223633,-31.82900047302246 32.720001220703125,-18.047000885009766 C66.2750015258789,29.886999130249023 63.61199951171875,78.73400115966797 27.246000289916992,114.66300201416016 C-10.842000007629395,152.29299926757812 -61.82400131225586,156.47799682617188 -108.46700286865234,123.44100189208984 C-121.31500244140625,114.34100341796875 -133.76400756835938,108.12699890136719 -147.52999877929688,113.75900268554688 C-162.49600219726562,119.88300323486328 -154.32000732421875,134.85499572753906 -154.81300354003906,146.24400329589844 C-155.36300659179688,158.9709930419922 -189.13900756835938,199.3520050048828 -200.23599243164062,198.85299682617188 C-212.95399475097656,198.27999877929688 -219.04100036621094,187.98599243164062 -224.1300048828125,177.99200439453125 C-241.91799926757812,143.0590057373047 -230.8719940185547,83.71499633789062 -202.40899658203125,59.67100143432617 C-165.56399536132812,28.54599952697754 -116.36100006103516,25.125999450683594 -78.56099700927734,51.11399841308594 C-76.05599975585938,52.83599853515625 -74.06900024414062,55.47100067138672 -71.39700317382812,56.76300048828125 C-57.222999572753906,63.617000579833984 -41.198001861572266,78.42500305175781 -27.408000946044922,62.888999938964844 C-14.494000434875488,48.34199905395508 -22.179000854492188,31.760000228881836 -34.50199890136719,16.615999221801758 C-60.85100173950195,-15.767000198364258 -59.48099899291992,-81.30500030517578 -33.694000244140625,-107.96600341796875 C6.008999824523926,-149.01600646972656 60.43000030517578,-154.51100158691406 103.44200134277344,-121.30899810791016 C116.24800109863281,-111.42500305175781 130.38699340820312,-103.93000030517578 145.50399780273438,-110.89900207519531 C160.3730010986328,-117.75399780273438 156.44700622558594,-131.31900024414062 153.31300354003906,-145.26100158691406 C149.63099670410156,-161.64199829101562 190.7949981689453,-199.3520050048828 206.41600036621094,-195.88900756835938 C212.75399780273438,-194.48399353027344 216.0570068359375,-189.1490020751953 219.16099548339844,-183.65899658203125 C241.91799926757812,-143.4219970703125 234.99400329589844,-92.27799987792969 202.2570037841797,-60.23099899291992z"/></g></g><g clip-path="url(#__lottie_element_183)" transform="matrix(1,0,0,1,390.5,148.5)" opacity="1" style="display: block;"><g transform="matrix(1,0,0,1,242,73.375)" opacity="1" style="display: block;"><g opacity="1" transform="matrix(1.1196099519729614,0,0,1.1196099519729614,-101.91000366210938,87.4520034790039)"><path fill="rgb(255,255,255)" fill-opacity="1" d=" M0,-51.78049850463867 C24.58438491821289,-51.78049850463867 44.54499816894531,-28.57765769958496 44.54499816894531,0 C44.54499816894531,28.57765769958496 24.58438491821289,51.78049850463867 0,51.78049850463867 C-24.58438491821289,51.78049850463867 -44.54499816894531,28.57765769958496 -44.54499816894531,0 C-44.54499816894531,-28.57765769958496 -24.58438491821289,-51.78049850463867 0,-51.78049850463867z"/></g></g><g transform="matrix(1,0,0,1,242,73.375)" opacity="1" style="display: block;"><g opacity="1" transform="matrix(1.1196099519729614,0,0,1.1196099519729614,-101.91000366210938,87.4520034790039)"><path stroke-linecap="round" stroke-linejoin="round" fill-opacity="0" stroke="rgb(0,0,0)" stroke-opacity="1" stroke-width="6" d=" M-20.03499984741211,-46.25199890136719 C-14.01099967956543,-49.78799819946289 -7.203999996185303,-51.779998779296875 0,-51.779998779296875 C0,-51.779998779296875 0,-51.78049850463867 0,-51.78049850463867 C24.58438491821289,-51.78049850463867 44.54499816894531,-28.57765769958496 44.54499816894531,0 C44.54499816894531,28.57765769958496 24.58438491821289,51.78049850463867 0,51.78049850463867 C-24.58438491821289,51.78049850463867 -44.54499816894531,28.57765769958496 -44.54499816894531,0 C-44.54499816894531,-8.553000450134277 -42.75699996948242,-16.625 -39.59199905395508,-23.73699951171875"/></g></g><g mask="url(#__lottie_element_186_1)" style="display: block;"><g transform="matrix(1,0,0,1,242,84.25)" opacity="1"><g opacity="1" transform="matrix(0.7854499816894531,0,0,0.8639100193977356,-86.93199920654297,85.5770034790039)"><path fill="rgb(0,0,0)" fill-opacity="1" d=" M0,-51.78049850463867 C24.58438491821289,-51.78049850463867 44.54499816894531,-28.57765769958496 44.54499816894531,0 C44.54499816894531,28.57765769958496 24.58438491821289,51.78049850463867 0,51.78049850463867 C-24.58438491821289,51.78049850463867 -44.54499816894531,28.57765769958496 -44.54499816894531,0 C-44.54499816894531,-28.57765769958496 -24.58438491821289,-51.78049850463867 0,-51.78049850463867z"/></g></g></g></g><g clip-path="url(#__lottie_element_167)" transform="matrix(1,0,0,1,511.5,148.5)" opacity="1" style="display: block;"><g transform="matrix(1,0,0,1,242,73.375)" opacity="1" style="display: block;"><g opacity="1" transform="matrix(1.1196099519729614,0,0,1.1196099519729614,-101.91000366210938,87.4520034790039)"><path fill="rgb(255,255,255)" fill-opacity="1" d=" M0,-51.78049850463867 C24.58438491821289,-51.78049850463867 44.54499816894531,-28.57765769958496 44.54499816894531,0 C44.54499816894531,28.57765769958496 24.58438491821289,51.78049850463867 0,51.78049850463867 C-24.58438491821289,51.78049850463867 -44.54499816894531,28.57765769958496 -44.54499816894531,0 C-44.54499816894531,-28.57765769958496 -24.58438491821289,-51.78049850463867 0,-51.78049850463867z"/></g></g><g transform="matrix(1,0,0,1,242,73.375)" opacity="1" style="display: block;"><g opacity="1" transform="matrix(1.1196099519729614,0,0,1.1196099519729614,-101.91000366210938,87.4520034790039)"><path stroke-linecap="round" stroke-linejoin="round" fill-opacity="0" stroke="rgb(0,0,0)" stroke-opacity="1" stroke-width="6" d=" M-20.03499984741211,-46.25199890136719 C-14.01099967956543,-49.78799819946289 -7.203999996185303,-51.779998779296875 0,-51.779998779296875 C0,-51.779998779296875 0,-51.78049850463867 0,-51.78049850463867 C24.58438491821289,-51.78049850463867 44.54499816894531,-28.57765769958496 44.54499816894531,0 C44.54499816894531,28.57765769958496 24.58438491821289,51.78049850463867 0,51.78049850463867 C-24.58438491821289,51.78049850463867 -44.54499816894531,28.57765769958496 -44.54499816894531,0 C-44.54499816894531,-8.553000450134277 -42.75699996948242,-16.625 -39.59199905395508,-23.73699951171875"/></g></g><g mask="url(#__lottie_element_170_1)" style="display: block;"><g transform="matrix(1,0,0,1,242,84.25)" opacity="1"><g opacity="1" transform="matrix(0.7854499816894531,0,0,0.8639100193977356,-86.93199920654297,85.5770034790039)"><path fill="rgb(0,0,0)" fill-opacity="1" d=" M0,-51.78049850463867 C24.58438491821289,-51.78049850463867 44.54499816894531,-28.57765769958496 44.54499816894531,0 C44.54499816894531,28.57765769958496 24.58438491821289,51.78049850463867 0,51.78049850463867 C-24.58438491821289,51.78049850463867 -44.54499816894531,28.57765769958496 -44.54499816894531,0 C-44.54499816894531,-28.57765769958496 -24.58438491821289,-51.78049850463867 0,-51.78049850463867z"/></g></g></g></g><g transform="matrix(1,0,0,1,450,450)" opacity="1" style="display: block;"><g opacity="1" transform="matrix(1,0,0,1,0,0)"><path stroke-linecap="round" stroke-linejoin="miter" fill-opacity="0" stroke-miterlimit="4" stroke="rgb(0,0,0)" stroke-opacity="1" stroke-width="42" d=" M24.5,-57.5 C24.5,-57.5 4.25,-35.5 -30.5,-26.5 C-75,-15 -52.5,-21.5 -52.5,-21.5"/></g></g><g transform="matrix(0.8626360893249512,-0.00001665926174609922,0.00004262740185367875,0.8443019986152649,469.6006774902344,478.75909423828125)" opacity="1" style="display: block;"><g opacity="1" transform="matrix(1,0,0,1,-17.479000091552734,-40.082000732421875)"><path fill="rgb(250,108,108)" fill-opacity="1" d=" M65.52149963378906,-89.91799926757812 C65.52149963378906,-89.91799926757812 65.52149963378906,89.91799926757812 65.52149963378906,89.91799926757812 C65.52149963378906,89.91799926757812 -65.52149963378906,89.91799926757812 -65.52149963378906,89.91799926757812 C-65.52149963378906,89.91799926757812 -65.52149963378906,-89.91799926757812 -65.52149963378906,-89.91799926757812 C-65.52149963378906,-89.91799926757812 65.52149963378906,-89.91799926757812 65.52149963378906,-89.91799926757812z"/><path stroke-linecap="round" stroke-linejoin="round" fill-opacity="0" stroke="rgb(0,0,0)" stroke-opacity="1" stroke-width="7" d=" M65.52149963378906,-89.91799926757812 C65.52149963378906,-89.91799926757812 65.52149963378906,89.91799926757812 65.52149963378906,89.91799926757812 C65.52149963378906,89.91799926757812 -65.52149963378906,89.91799926757812 -65.52149963378906,89.91799926757812 C-65.52149963378906,89.91799926757812 -65.52149963378906,-89.91799926757812 -65.52149963378906,-89.91799926757812 C-65.52149963378906,-89.91799926757812 65.52149963378906,-89.91799926757812 65.52149963378906,-89.91799926757812z"/></g></g><g transform="matrix(0.9973621964454651,-0.07105440646409988,0.07107003778219223,0.9975816607475281,352.8940124511719,403.0276184082031)" opacity="1" style="display: block;"><g opacity="1" transform="matrix(1,0,0,1,45.72999954223633,57.66999816894531)"><path fill="rgb(0,0,0)" fill-opacity="1" d=" M33.400001525878906,-8.449999809265137 C34,-8.859999656677246 34.59000015258789,-9.270000457763672 35.15999984741211,-9.720000267028809 C45.15999984741211,-17.68000030517578 45.47999954223633,-31.889999389648438 34.61000061035156,-39.09000015258789 C23.920000076293945,-46.189998626708984 9.460000038146973,-46.34000015258789 -3.490000009536743,-45.720001220703125 C-3.049999952316284,-48.09000015258789 -2.5799999237060547,-50.439998626708984 -2.0399999618530273,-52.790000915527344 C-1.3799999952316284,-55.63999938964844 -4,-57.41999816894531 -6.199999809265137,-57.11000061035156 C-6.53000020980835,-57.16999816894531 -6.889999866485596,-57.20000076293945 -7.289999961853027,-57.150001525878906 C-15.100000381469727,-56.15999984741211 -23.469999313354492,-54.97999954223633 -29.440000534057617,-49.31999969482422 C-34.880001068115234,-44.150001525878906 -36.27000045776367,-36.58000183105469 -35.40999984741211,-29.3799991607666 C-35.06999969482422,-26.489999771118164 -34.45000076293945,-23.719999313354492 -33.40999984741211,-21.149999618530273 C-43.04999923706055,-13.539999961853027 -45.47999954223633,-0.1599999964237213 -38.27000045776367,10.119999885559082 C-37.65999984741211,10.989999771118164 -37.0099983215332,11.8100004196167 -36.34000015258789,12.600000381469727 C-40.619998931884766,19.709999084472656 -40.29999923706055,28.549999237060547 -36.27000045776367,35.779998779296875 C-31.6200008392334,44.13999938964844 -23.040000915527344,49.2599983215332 -14.239999771118164,52.2599983215332 C-5.03000020980835,55.40999984741211 5.71999979019165,57.41999816894531 15.050000190734863,53.689998626708984 C21.719999313354492,51.0099983215332 30.020000457763672,47.72999954223633 32.72999954223633,41.0099983215332 C34.5,35.470001220703125 33.150001525878906,29.5 29.450000762939453,24.940000534057617 C32.16999816894531,23.520000457763672 34.58000183105469,21.690000534057617 36.5099983215332,19.360000610351562 C43.7400016784668,10.649999618530273 41.7400016784668,-1.909999966621399 33.400001525878906,-8.449999809265137z M-26.170000076293945,-42.400001525878906 C-22.510000228881836,-47.56999969482422 -15.869999885559082,-48.97999954223633 -9.819999694824219,-49.81999969482422 C-10.119999885559082,-48.33000183105469 -10.390000343322754,-46.83000183105469 -10.649999618530273,-45.33000183105469 C-10.729999542236328,-45.33000183105469 -10.819999694824219,-45.31999969482422 -10.90999984741211,-45.31999969482422 C-15.399999618530273,-45.060001373291016 -15.40999984741211,-38.060001373291016 -10.90999984741211,-38.31999969482422 C2.0999999046325684,-39.04999923706055 18.899999618530273,-40.81999969482422 30.469999313354492,-33.45000076293945 C37.15999984741211,-29.190000534057617 37.43000030517578,-21.350000381469727 31.75,-15.970000267028809 C26.989999771118164,-11.460000038146973 19.600000381469727,-10 13.289999961853027,-9.4399995803833 C6.179999828338623,-8.800000190734863 -1,-9.40999984741211 -7.889999866485596,-11.279999732971191 C-14.140000343322754,-12.979999542236328 -22.3799991607666,-15.619999885559082 -25.950000762939453,-21.510000228881836 C-29.399999618530273,-27.18000030517578 -30.079999923706055,-36.869998931884766 -26.170000076293945,-42.400001525878906z M26.239999771118164,37.290000915527344 C24.850000381469727,43.650001525878906 14.829999923706055,46.959999084472656 9.25,48.20000076293945 C2.130000114440918,49.77000045776367 -5.639999866485596,47.81999969482422 -12.380000114440918,45.5099983215332 C-23.6200008392334,41.66999816894531 -37.0099983215332,30.329999923706055 -31.170000076293945,17.780000686645508 C-30.979999542236328,17.920000076293945 -30.790000915527344,18.049999237060547 -30.600000381469727,18.200000762939453 C-29.790000915527344,18.809999465942383 -28.989999771118164,19.450000762939453 -28.209999084472656,20.110000610351562 C-28.18000030517578,20.040000915527344 -28.149999618530273,19.969999313354492 -28.1200008392334,19.899999618530273 C-20.889999389648438,24.739999771118164 -12.170000076293945,27.5 -3.6500000953674316,28.600000381469727 C3.9100000858306885,29.579999923706055 13.8100004196167,29.8799991607666 22.389999389648438,27.610000610351562 C24.719999313354492,29.40999984741211 25.969999313354492,31.670000076293945 26.329999923706055,34.02000045776367 C26.600000381469727,35.630001068115234 26.3700008392334,36.65999984741211 26.239999771118164,37.290000915527344z M26.510000228881836,18.399999618530273 C17.3700008392334,22.969999313354492 5.300000190734863,23.030000686645508 -4.599999904632568,21.440000534057617 C-14.15999984741211,19.899999618530273 -23.690000534057617,16.06999969482422 -30.350000381469727,8.8100004196167 C-36.7599983215332,1.8300000429153442 -37.59000015258789,-8.850000381469727 -29.799999237060547,-15.140000343322754 C-28.969999313354492,-14.15999984741211 -28.030000686645508,-13.25 -26.959999084472656,-12.40999984741211 C-21.3700008392334,-8.010000228881836 -14.029999732971191,-5.440000057220459 -7.159999847412109,-3.880000114440918 C2.930000066757202,-1.600000023841858 15.600000381469727,-1.0099999904632568 26.030000686645508,-4.75 C35.900001525878906,-0.03999999910593033 36.810001373291016,13.25 26.510000228881836,18.399999618530273z"/></g><g opacity="1" transform="matrix(1,0,0,1,49.404998779296875,28.360000610351562)"><path fill="rgb(255,255,255)" fill-opacity="1" d=" M28.075000762939453,13.34000015258789 C23.315000534057617,17.850000381469727 15.925000190734863,19.309999465942383 9.614999771118164,19.8700008392334 C2.505000114440918,20.510000228881836 -4.675000190734863,19.899999618530273 -11.5649995803833,18.030000686645508 C-17.815000534057617,16.329999923706055 -26.05500030517578,13.6899995803833 -29.625,7.800000190734863 C-33.07500076293945,2.130000114440918 -33.755001068115234,-7.559999942779541 -29.844999313354492,-13.09000015258789 C-26.184999465942383,-18.260000228881836 -19.545000076293945,-19.670000076293945 -13.494999885559082,-20.510000228881836 C-13.795000076293945,-19.020000457763672 -14.0649995803833,-17.520000457763672 -14.324999809265137,-16.020000457763672 C-14.404999732971191,-16.020000457763672 -14.494999885559082,-16.010000228881836 -14.585000038146973,-16.010000228881836 C-19.075000762939453,-15.75 -19.084999084472656,-8.75 -14.585000038146973,-9.010000228881836 C-1.5750000476837158,-9.739999771118164 15.225000381469727,-11.510000228881836 26.795000076293945,-4.139999866485596 C33.48500061035156,0.11999999731779099 33.755001068115234,7.960000038146973 28.075000762939453,13.34000015258789z"/></g><g opacity="1" transform="matrix(1,0,0,1,40.525001525878906,91.44499969482422)"><path fill="rgb(255,255,255)" fill-opacity="1" d=" M31.44499969482422,3.515000104904175 C30.05500030517578,9.875 20.03499984741211,13.1850004196167 14.454999923706055,14.425000190734863 C7.335000038146973,15.994999885559082 -0.4350000023841858,14.045000076293945 -7.175000190734863,11.734999656677246 C-18.415000915527344,7.894999980926514 -31.80500030517578,-3.444999933242798 -25.96500015258789,-15.994999885559082 C-25.774999618530273,-15.854999542236328 -25.584999084472656,-15.725000381469727 -25.395000457763672,-15.574999809265137 C-24.584999084472656,-14.96500015258789 -23.78499984741211,-14.324999809265137 -23.0049991607666,-13.664999961853027 C-22.975000381469727,-13.734999656677246 -22.94499969482422,-13.805000305175781 -22.915000915527344,-13.875 C-15.6850004196167,-9.03499984741211 -6.965000152587891,-6.275000095367432 1.5549999475479126,-5.175000190734863 C9.114999771118164,-4.195000171661377 19.014999389648438,-3.8949999809265137 27.594999313354492,-6.164999961853027 C29.924999237060547,-4.364999771118164 31.174999237060547,-2.1050000190734863 31.53499984741211,0.24500000476837158 C31.80500030517578,1.8550000190734863 31.575000762939453,2.884999990463257 31.44499969482422,3.515000104904175z"/></g><g opacity="1" transform="matrix(1,0,0,1,45.34000015258789,61.6150016784668)"><path fill="rgb(255,255,255)" fill-opacity="1" d=" M26.899999618530273,14.454999923706055 C17.760000228881836,19.024999618530273 5.690000057220459,19.084999084472656 -4.210000038146973,17.4950008392334 C-13.770000457763672,15.954999923706055 -23.299999237060547,12.125 -29.959999084472656,4.864999771118164 C-36.369998931884766,-2.115000009536743 -37.20000076293945,-12.795000076293945 -29.40999984741211,-19.084999084472656 C-28.579999923706055,-18.104999542236328 -27.639999389648438,-17.19499969482422 -26.56999969482422,-16.354999542236328 C-20.979999542236328,-11.954999923706055 -13.640000343322754,-9.385000228881836 -6.769999980926514,-7.824999809265137 C3.319999933242798,-5.545000076293945 15.989999771118164,-4.954999923706055 26.420000076293945,-8.694999694824219 C36.290000915527344,-3.984999895095825 37.20000076293945,9.305000305175781 26.899999618530273,14.454999923706055z"/></g><g opacity="1" transform="matrix(1,0,0,1,49.404998779296875,28.360000610351562)"><path fill="rgb(255,255,255)" fill-opacity="1" d=" M28.075000762939453,13.34000015258789 C23.315000534057617,17.850000381469727 15.925000190734863,19.309999465942383 9.614999771118164,19.8700008392334 C2.505000114440918,20.510000228881836 -4.675000190734863,19.899999618530273 -11.5649995803833,18.030000686645508 C-17.815000534057617,16.329999923706055 -26.05500030517578,13.6899995803833 -29.625,7.800000190734863 C-33.07500076293945,2.130000114440918 -33.755001068115234,-7.559999942779541 -29.844999313354492,-13.09000015258789 C-26.184999465942383,-18.260000228881836 -19.545000076293945,-19.670000076293945 -13.494999885559082,-20.510000228881836 C-13.795000076293945,-19.020000457763672 -14.0649995803833,-17.520000457763672 -14.324999809265137,-16.020000457763672 C-14.404999732971191,-16.020000457763672 -14.494999885559082,-16.010000228881836 -14.585000038146973,-16.010000228881836 C-19.075000762939453,-15.75 -19.084999084472656,-8.75 -14.585000038146973,-9.010000228881836 C-1.5750000476837158,-9.739999771118164 15.225000381469727,-11.510000228881836 26.795000076293945,-4.139999866485596 C33.48500061035156,0.11999999731779099 33.755001068115234,7.960000038146973 28.075000762939453,13.34000015258789z"/></g></g><g transform="matrix(0.862636923789978,0.0000036167346024740255,0.0000035411856060818536,0.8443034887313843,557.2548828125,606.4462280273438)" opacity="1" style="display: block;"><g opacity="1" transform="matrix(1,0,-0.1227845624089241,1,121.61100006103516,-144.8000030517578)"><path fill="rgb(109,201,247)" fill-opacity="1" d=" M65.52149963378906,-89.91799926757812 C65.52149963378906,-89.91799926757812 65.52149963378906,89.91799926757812 65.52149963378906,89.91799926757812 C65.52149963378906,89.91799926757812 -65.52149963378906,89.91799926757812 -65.52149963378906,89.91799926757812 C-65.52149963378906,89.91799926757812 -65.52149963378906,-89.91799926757812 -65.52149963378906,-89.91799926757812 C-65.52149963378906,-89.91799926757812 65.52149963378906,-89.91799926757812 65.52149963378906,-89.91799926757812z"/><path stroke-linecap="round" stroke-linejoin="round" fill-opacity="0" stroke="rgb(0,0,0)" stroke-opacity="1" stroke-width="7" d=" M65.52149963378906,-89.91799926757812 C65.52149963378906,-89.91799926757812 65.52149963378906,89.91799926757812 65.52149963378906,89.91799926757812 C65.52149963378906,89.91799926757812 -65.52149963378906,89.91799926757812 -65.52149963378906,89.91799926757812 C-65.52149963378906,89.91799926757812 -65.52149963378906,-89.91799926757812 -65.52149963378906,-89.91799926757812 C-65.52149963378906,-89.91799926757812 65.52149963378906,-89.91799926757812 65.52149963378906,-89.91799926757812z"/></g></g><g transform="matrix(0.9944649338722229,0.10525956749916077,-0.10525535047054291,0.9944251179695129,676.1072387695312,422.3525695800781)" opacity="1" style="display: block;"><g opacity="1" transform="matrix(1,0,0,1,48.40399932861328,57.04199981689453)"><path fill="rgb(0,0,0)" fill-opacity="1" d=" M-10.184000015258789,56.69300079345703 C-10.187999725341797,56.72600173950195 -10.192999839782715,56.75899887084961 -10.196999549865723,56.79199981689453 C-6.61899995803833,56.77000045776367 -3.0409998893737793,56.73899841308594 0.5379999876022339,56.696998596191406 C20.81599998474121,53.60599899291992 48.15299987792969,29.62299919128418 33.00600051879883,8.432000160217285 C38.82600021362305,-0.33799999952316284 39.19599914550781,-12.32800006866455 31.586000442504883,-20.17799949645996 C33.22600173950195,-23.13800048828125 34.34600067138672,-26.49799919128418 34.79600143432617,-30.29800033569336 C35.69599914550781,-37.80799865722656 35.08599853515625,-45.62799835205078 29.125999450683594,-50.95800018310547 C24.820999145507812,-54.808998107910156 19.367000579833984,-56.28300094604492 13.782999992370605,-56.79199981689453 C10.145000457763672,-56.53799819946289 6.461999893188477,-56.207000732421875 2.8519999980926514,-56.42100143432617 C2.5490000247955322,-53.25299835205078 2.25,-50.08599853515625 1.9359999895095825,-46.917999267578125 C-4.124000072479248,-47.05799865722656 -10.204000473022461,-46.87799835205078 -16.224000930786133,-46.358001708984375 C-23.15399932861328,-45.74800109863281 -30.284000396728516,-44.37799835205078 -36.013999938964844,-40.167999267578125 C-46.854000091552734,-32.1879997253418 -48.15399932861328,-17.507999420166016 -37.194000244140625,-9.038000106811523 C-36.374000549316406,-8.407999992370605 -35.52399826049805,-7.8470001220703125 -34.64400100708008,-7.336999893188477 C-41.104000091552734,-1.7369999885559082 -43.7239990234375,7.441999912261963 -39.4640007019043,15.802000045776367 C-37.29399871826172,20.082000732421875 -33.89400100708008,22.89299964904785 -29.893999099731445,24.69300079345703 C-35.433998107910156,29.33300018310547 -37.31399917602539,36.93199920654297 -32.683998107910156,44.36199951171875 C-28.243999481201172,51.492000579833984 -19.06399917602539,55.51300048828125 -10.184000015258789,56.69300079345703z M4.296000003814697,48.652000427246094 C-4.044000148773193,51.301998138427734 -13.824000358581543,50.03300094604492 -21.374000549316406,45.53300094604492 C-24.823999404907227,43.472999572753906 -28.034000396728516,40.3120002746582 -28.333999633789062,36.071998596191406 C-28.694000244140625,30.851999282836914 -24.52400016784668,28.601999282836914 -20.073999404907227,27.57200050354004 C-19.804000854492188,27.50200080871582 -19.554000854492188,27.422000885009766 -19.323999404907227,27.312000274658203 C-13.984000205993652,27.851999282836914 -8.454000473022461,27.523000717163086 -3.6640000343322754,27.003000259399414 C7.716000080108643,25.773000717163086 19.9060001373291,21.95199966430664 28.365999221801758,13.892000198364258 C37.68600082397461,28.642000198364258 16.496000289916992,44.79199981689453 4.296000003814697,48.652000427246094z M-33.17399978637695,-33.49700164794922 C-27.643999099731445,-38.40700149536133 -19.77400016784668,-39.196998596191406 -12.71399974822998,-39.58700180053711 C-5.033999919891357,-40.016998291015625 2.6559998989105225,-40.077999114990234 10.326000213623047,-39.53799819946289 C14.826000213623047,-39.22800064086914 14.805999755859375,-46.22800064086914 10.326000213623047,-46.53799819946289 C9.855999946594238,-46.577999114990234 9.37600040435791,-46.597999572753906 8.906000137329102,-46.62799835205078 C9.015999794006348,-47.757999420166016 9.12600040435791,-48.89699935913086 9.236000061035156,-50.027000427246094 C15.595999717712402,-49.96699905395508 22.996000289916992,-49.11800003051758 26.535999298095703,-43.327999114990234 C29.945999145507812,-37.737998962402344 28.326000213623047,-27.586999893188477 25.006000518798828,-22.336999893188477 C17.125999450683594,-9.847000122070312 -1.74399995803833,-9.557999610900879 -14.77400016784668,-9.89799976348877 C-18.233999252319336,-9.998000144958496 -21.884000778198242,-10.218000411987305 -25.323999404907227,-11.067999839782715 C-25.733999252319336,-11.32800006866455 -26.224000930786133,-11.467000007629395 -26.763999938964844,-11.467000007629395 C-29.61400032043457,-12.347000122070312 -32.27399826049805,-13.718000411987305 -34.4739990234375,-15.887999534606934 C-39.92399978637695,-21.257999420166016 -38.58399963378906,-28.687000274658203 -33.17399978637695,-33.49700164794922z M-26.743999481201172,-4.257999897003174 C-23.974000930786133,-3.5980000495910645 -21.11400032043457,-3.23799991607666 -18.263999938964844,-3.0480000972747803 C-10.093999862670898,-2.5179998874664307 -1.7239999771118164,-2.818000078201294 6.335999965667725,-4.257999897003174 C14.465999603271484,-5.708000183105469 22.006000518798828,-9.04800033569336 27.31599998474121,-14.477999687194824 C32.65599822998047,-7.938000202178955 30.516000747680664,1.3420000076293945 25.006000518798828,7.361999988555908 C18.805999755859375,14.152000427246094 9.486000061035156,17.702999114990234 0.6460000276565552,19.35300064086914 C-4.263999938964844,20.273000717163086 -9.284000396728516,20.54199981689453 -14.27400016784668,20.392000198364258 C-19.124000549316406,20.242000579833984 -24.923999786376953,20.172000885009766 -29.104000091552734,17.36199951171875 C-37.444000244140625,11.741999626159668 -35.57400131225586,-0.5080000162124634 -26.743999481201172,-4.257999897003174z"/></g><g opacity="1" transform="matrix(1,0,0,1,52.900001525878906,89.63899993896484)"><path fill="rgb(255,255,255)" fill-opacity="1" d=" M-0.20000000298023224,16.05500030517578 C-8.539999961853027,18.704999923706055 -18.31999969482422,17.434999465942383 -25.8700008392334,12.9350004196167 C-29.31999969482422,10.875 -32.529998779296875,7.715000152587891 -32.83000183105469,3.4749999046325684 C-33.189998626708984,-1.7450000047683716 -29.020000457763672,-3.994999885559082 -24.56999969482422,-5.025000095367432 C-24.299999237060547,-5.09499979019165 -24.049999237060547,-5.175000190734863 -23.81999969482422,-5.284999847412109 C-18.479999542236328,-4.744999885559082 -12.949999809265137,-5.074999809265137 -8.15999984741211,-5.59499979019165 C3.2200000286102295,-6.824999809265137 15.40999984741211,-10.645000457763672 23.8700008392334,-18.704999923706055 C33.189998626708984,-3.9549999237060547 12,12.194999694824219 -0.20000000298023224,16.05500030517578z"/></g><g opacity="1" transform="matrix(1,0,0,1,46.0099983215332,60.07400131225586)"><path fill="rgb(255,255,255)" fill-opacity="1" d=" M27.399999618530273,4.329999923706055 C21.200000762939453,11.119999885559082 11.880000114440918,14.670000076293945 3.0399999618530273,16.31999969482422 C-1.8700000047683716,17.239999771118164 -6.889999866485596,17.510000228881836 -11.880000114440918,17.360000610351562 C-16.729999542236328,17.209999084472656 -22.530000686645508,17.139999389648438 -26.709999084472656,14.329999923706055 C-35.04999923706055,8.710000038146973 -33.18000030517578,-3.5399999618530273 -24.350000381469727,-7.289999961853027 C-21.579999923706055,-6.630000114440918 -18.719999313354492,-6.269999980926514 -15.869999885559082,-6.079999923706055 C-7.699999809265137,-5.550000190734863 0.6700000166893005,-5.849999904632568 8.729999542236328,-7.289999961853027 C16.860000610351562,-8.739999771118164 24.399999618530273,-12.079999923706055 29.709999084472656,-17.510000228881836 C35.04999923706055,-10.970000267028809 32.90999984741211,-1.690000057220459 27.399999618530273,4.329999923706055z"/></g><g opacity="1" transform="matrix(1,0,0,1,43.415000915527344,27.249000549316406)"><path fill="rgb(255,255,255)" fill-opacity="1" d=" M29.9950008392334,7.454999923706055 C22.114999771118164,19.94499969482422 3.244999885559082,20.235000610351562 -9.78499984741211,19.895000457763672 C-13.244999885559082,19.795000076293945 -16.895000457763672,19.575000762939453 -20.334999084472656,18.725000381469727 C-20.7450008392334,18.46500015258789 -21.235000610351562,18.325000762939453 -21.774999618530273,18.325000762939453 C-24.625,17.44499969482422 -27.28499984741211,16.075000762939453 -29.485000610351562,13.904999732971191 C-34.935001373291016,8.53499984741211 -33.595001220703125,1.1050000190734863 -28.184999465942383,-3.7049999237060547 C-22.655000686645508,-8.614999771118164 -14.78499984741211,-9.404999732971191 -7.724999904632568,-9.795000076293945 C-0.04500000178813934,-10.225000381469727 7.644999980926514,-10.28499984741211 15.3149995803833,-9.744999885559082 C19.815000534057617,-9.4350004196167 19.795000076293945,-16.434999465942383 15.3149995803833,-16.7450008392334 C14.845000267028809,-16.78499984741211 14.364999771118164,-16.80500030517578 13.895000457763672,-16.834999084472656 C14.005000114440918,-17.96500015258789 14.114999771118164,-19.104999542236328 14.225000381469727,-20.235000610351562 C20.584999084472656,-20.174999237060547 27.985000610351562,-19.325000762939453 31.524999618530273,-13.53499984741211 C34.935001373291016,-7.945000171661377 33.314998626708984,2.2049999237060547 29.9950008392334,7.454999923706055z"/></g></g><g clip-path="url(#__lottie_element_135)" style="display: none;"><g style="display: none;"><g><path/><path stroke-linecap="round" stroke-linejoin="round" fill-opacity="0"/></g></g><g style="display: none;"/></g><g clip-path="url(#__lottie_element_125)" style="display: none;"><g style="display: none;"><g><path/><path stroke-linecap="round" stroke-linejoin="round" fill-opacity="0"/></g></g><g style="display: none;"/></g><g clip-path="url(#__lottie_element_115)" style="display: none;"><g style="display: none;"><g><path/><path stroke-linecap="round" stroke-linejoin="round" fill-opacity="0"/></g></g><g style="display: none;"/></g><g clip-path="url(#__lottie_element_105)" style="display: none;"><g style="display: none;"><g><path/><path stroke-linecap="round" stroke-linejoin="round" fill-opacity="0"/></g></g><g style="display: none;"/></g></g></svg>