<svg width="15" height="25" viewBox="0 0 15 25" fill="none" xmlns="http://www.w3.org/2000/svg">
<g clip-path="url(#clip0_2956_16452)">
<path d="M1.82248 16.8291C3.45292 16.9708 5.08089 16.79 6.63555 16.2941C6.7132 16.2692 6.80142 16.2468 6.87164 16.3074C6.94217 16.3705 6.96367 16.4934 6.97827 16.6018C7.31561 19.0868 7.65185 21.5733 7.98919 24.0584C8.94776 23.956 9.89485 23.7602 10.823 23.4732C10.8971 23.45 10.978 23.4209 11.0148 23.3343C11.0459 23.2639 11.0398 23.1724 11.0319 23.0875C10.8032 20.5686 10.2167 18.1001 9.63388 15.6503C11.0348 15.4359 12.4359 15.2227 13.838 15.0082C13.9714 14.988 14.121 14.9542 14.1885 14.805C14.2731 14.6178 14.182 14.3663 14.0909 14.1674C12.1546 9.91984 9.51733 6.29649 6.90881 2.71957C6.47898 2.1305 6.03169 1.52435 5.47386 1.197C5.36627 1.13463 5.24082 1.08342 5.14304 1.15308C5.07006 1.20561 5.03214 1.31405 5.00132 1.41777C4.53819 2.93523 4.45305 4.71374 4.1087 6.30117C3.62514 8.52836 3.14158 10.7556 2.65944 12.9839L1.82516 16.83L1.82248 16.8291Z" fill="black" stroke="#8D8D8D" stroke-width="0.695584" stroke-linecap="round" stroke-linejoin="round"/>
</g>
<defs>
<clipPath id="clip0_2956_16452">
<rect width="13.2733" height="23.8025" fill="white" transform="translate(0.985352 0.564941)"/>
</clipPath>
</defs>
</svg>
