<svg width="310" height="74" viewBox="0 0 310 74" fill="none" xmlns="http://www.w3.org/2000/svg">
<path d="M0.384983 43.83C0.384983 43.4609 0.381107 43.0917 0.384983 42.7225C0.392735 42.2514 0.388859 41.8225 0.753188 41.3724C1.02062 41.0419 0.55552 40.4126 1.10976 40.0364C1.18728 39.9837 1.17953 39.8219 1.19503 39.7059C1.31518 38.8937 1.90431 37.6069 2.40817 37.0233C2.84614 36.517 3.27636 35.9791 3.5903 35.4341C3.91975 34.8646 4.6174 34.5868 4.81119 34.0559C5.00498 33.525 5.27241 33.293 5.81115 33.1207C6.08246 33.0328 6.38478 32.7445 6.46229 32.4949C6.64058 31.9112 7.10181 31.4963 7.60179 31.3417C8.1134 31.187 8.28781 30.7053 8.69477 30.6244C9.13274 30.5365 9.36529 30.2904 9.67536 30.0759C10.28 29.6575 11.0474 29.5028 11.6714 29.095C11.966 28.9016 12.3729 28.8594 12.7101 28.7083C13.1055 28.5325 13.4853 28.3215 13.8613 28.1106C14.183 27.9313 14.6326 27.9488 14.8535 27.6043C15.2643 27.6922 15.4697 27.4179 15.679 27.1929C15.9155 26.9433 16.179 26.8167 16.5511 26.8589C16.6712 26.873 16.8418 26.8624 16.9232 26.7991C17.365 26.444 17.7138 25.9272 18.4503 26.1276C18.7603 25.7092 19.4386 25.8182 19.7409 25.3893C20.1517 25.4737 20.33 25.1818 20.5742 24.9814C20.7176 24.8619 20.892 24.6545 21.0316 24.6685C21.9501 24.7634 22.5121 24.004 23.3416 23.9126C23.7718 23.4274 24.202 23.4134 24.6322 23.9126C25.0586 23.8634 25.2446 24.0181 25.2136 24.4189C25.1826 24.8478 24.8919 25.3682 24.4966 25.3611C23.9888 25.3506 23.6555 25.6495 23.233 25.7338C22.7757 25.8252 22.6168 26.1698 22.2951 26.3632C22.1943 26.4265 22.0548 26.5038 21.9501 26.4862C21.2912 26.3632 20.9037 26.88 20.361 27.0312C19.8262 27.1824 19.2874 27.4144 18.8456 27.6957C18.1092 28.1633 17.1286 28.2582 16.5666 28.9684C16.5085 29.0423 16.3379 29.0669 16.2139 29.0739C15.2837 29.1302 14.5938 29.6927 13.8031 30.0337C13.4698 30.1779 13.028 30.1744 12.807 30.5365C12.5822 30.9092 12.1792 30.8846 11.7722 30.9479C11.3575 31.0112 10.904 31.2045 10.6017 31.4682C9.93117 32.0413 9.01259 32.3085 8.43122 33.0047C8.2258 33.2543 7.62117 33.1664 7.48164 33.5461C7.24134 34.2106 6.60957 34.5763 6.19874 35.1001C5.98557 35.3708 5.92355 35.74 5.60573 35.9791C5.34993 36.1725 4.69491 35.9721 4.86157 36.5873C4.63677 36.8088 4.40422 37.0268 4.19105 37.2589C4.11354 37.3432 4.04377 37.4733 4.0554 37.5718C4.11354 37.9691 3.97401 38.2785 3.64069 38.5281C3.73758 38.9887 3.26473 39.1293 3.03605 39.4071C2.96241 39.4985 2.84614 39.5969 2.83451 39.6989C2.80738 40.0048 2.87715 40.3212 2.80738 40.6165C2.76087 40.8275 2.47406 40.9962 2.4353 41.2072C2.35003 41.6783 2.35003 42.1635 2.31515 42.6417C1.82292 42.9511 2.04384 43.4152 2.01671 43.8195C1.9857 44.3082 2.00896 44.8039 2.00896 45.2962C2.00896 45.5915 1.94307 45.8903 2.27252 46.1259C2.58646 46.3509 2.27252 46.7482 2.44305 46.9767C2.62909 47.2229 2.72599 47.5112 2.88877 47.7291C3.21047 48.1616 3.56317 48.58 3.89649 49.0089C4.39647 49.6523 5.11738 50.1551 5.72976 50.7282C5.96619 50.9497 6.30726 50.911 6.59407 51.0833C7.15607 51.4243 7.81108 51.6704 8.43509 51.9376C9.05523 52.2048 9.61722 52.6092 10.3226 52.7006C10.6211 53.3475 11.5125 52.7955 11.8652 53.3334C12.435 53.4073 12.838 53.9382 13.4776 53.8081C13.869 54.1772 14.3961 54.1843 14.9039 54.2476C15.179 54.8312 15.962 54.2933 16.2992 54.7644C16.3573 54.8453 16.5162 54.9015 16.6325 54.9086C16.9697 54.9261 17.3108 54.9156 17.648 54.9156C17.9386 55.5695 18.834 55.014 19.1983 55.5449C19.2487 55.6188 19.427 55.6328 19.551 55.6504C19.989 55.7137 20.4579 55.5168 20.861 55.9282C21.1478 56.22 21.7796 55.8438 22.1129 56.3184C22.1982 56.4415 22.6129 56.3923 22.8726 56.3817C22.9656 56.3782 23.0547 56.2551 23.1478 56.1883C23.1013 56.1461 23.0509 56.1004 23.0044 56.0582C22.9075 55.9703 22.8299 55.8578 22.7137 55.8016C22.3261 55.6188 21.9269 55.45 21.5277 55.2848C20.8765 55.0211 20.2758 54.7152 19.7564 54.244C19.4037 53.9241 19.1828 53.3651 18.5084 53.4354C18.1247 53.0908 17.7371 52.7463 17.3534 52.4017C16.4775 52.4299 16.6751 51.5192 16.1015 51.2239C15.5899 50.9602 15.1403 50.5172 14.8108 50.0637C14.4 49.4976 14.1248 48.8507 13.8225 48.2249C13.7489 48.0702 13.8535 47.8416 13.7721 47.6905C13.5434 47.2826 13.152 46.924 13.0318 46.4951C12.9001 46.0345 13.0202 45.5177 12.9931 45.0254C12.9853 44.8672 12.8535 44.7125 12.7799 44.5543C12.5241 44.0304 12.5008 44.0234 12.8497 43.4257C13.09 43.0108 13.1559 42.6382 12.7334 42.2936C12.6869 42.2549 12.6481 42.2057 12.6094 42.1635C13.5163 41.6396 12.5396 40.5989 13.3186 40.0223C13.431 39.9415 13.4388 39.6813 13.4078 39.5161C13.2683 38.7566 13.6713 38.1519 14.0512 37.5401C14.3612 37.0444 14.5628 36.4959 14.9155 36.0213C15.2372 35.5853 15.5395 35.1282 15.931 34.7485C16.2953 34.3969 16.3263 33.8801 16.772 33.5742C17.148 33.3176 17.6131 33.0258 17.7526 32.6601C17.9852 32.0413 18.4968 31.6862 18.9425 31.2608C19.4076 30.8143 19.8727 30.3642 20.3882 29.9634C20.6944 29.7243 21.2254 29.749 21.2486 29.1935C21.2564 29.0247 21.6168 28.7223 21.8067 28.7258C22.4656 28.7399 22.5741 28.0508 23.0974 27.9699C23.6981 27.8785 23.9501 27.4144 24.3183 27.091C24.702 26.757 25.1748 26.5671 25.574 26.2893C25.9888 26.0046 26.4073 25.7514 26.8647 25.5299C27.2562 25.3401 27.7174 25.2627 28.0003 24.8865C28.3026 24.4857 28.7445 24.2185 29.2638 24.106C30.0429 23.9372 30.4188 23.1672 31.225 23.0547C31.8296 22.3023 32.8606 22.1722 33.6629 21.7011C34.2443 21.3601 34.9729 21.2265 35.4419 20.7061C36.2403 20.5233 36.8333 19.8834 37.6899 19.8483C37.9961 19.8342 38.186 19.7182 38.3643 19.5318C38.6356 19.2506 38.9108 19.0185 39.3875 19.0818C39.5426 19.1029 39.748 18.9763 39.8914 18.8744C40.4999 18.4314 41.1471 18.2837 41.9107 17.9532C42.5851 17.6614 43.4959 17.7669 43.9494 17.0531C44.0036 16.9688 44.1625 16.8879 44.2711 16.8879C44.6819 16.8949 45.0811 16.902 45.3292 16.5258C45.8679 16.7156 46.0346 15.9351 46.5733 16.1355C46.771 15.7628 47.2516 15.8261 47.5578 15.6187C47.7051 15.5202 47.9105 15.3901 48.0655 15.4147C48.8523 15.5413 49.4065 15.0772 50.0422 14.8276C50.329 14.7151 50.6584 14.6202 50.8677 14.4268C51.2049 14.1209 51.701 14.5041 51.9762 14.1736C52.2282 13.8678 52.5576 13.9275 52.8832 13.924C53.2824 13.9205 53.4607 13.4037 53.9374 13.5548C54.3947 13.699 54.5537 13.0907 54.9878 13.1892C55.449 13.2982 55.697 12.9536 56.042 12.82C56.573 12.6161 57.0807 12.3278 57.7047 12.4438C58.1311 12.5247 58.2745 11.9692 58.7589 12.0641C59.2163 12.152 59.631 12.0711 60.038 11.7371C60.2666 11.5473 60.8286 11.8461 61.1155 11.4453C61.1697 11.3715 61.348 11.3469 61.4682 11.3469C61.9953 11.3469 62.5379 11.4066 62.9255 10.9742C63.4254 11.0832 63.782 10.7984 64.1851 10.6121C64.6967 10.3765 65.2161 10.162 65.844 10.2112C66.1153 10.2323 66.3943 9.94052 66.6928 9.88075C67.0067 9.81747 67.3594 9.93349 67.5997 9.62058C67.6579 9.54323 67.8478 9.47994 67.9408 9.50807C68.5299 9.67683 68.8361 9.06507 69.4059 9.11429C69.9834 9.16703 70.5376 9.15648 71.0919 8.79435C71.4562 8.55527 72.1422 8.94905 72.5647 8.45331C72.6461 8.35838 72.9522 8.3619 73.1344 8.40057C73.6538 8.51308 73.9716 8.11227 74.3941 8.03843C74.8514 7.96109 75.4328 8.16852 75.7894 7.98218C76.2157 7.76068 76.5878 7.59895 77.0684 7.65169C77.3746 7.2122 77.8707 7.19814 78.3203 7.29659C78.921 7.43019 79.2931 7.00125 79.7853 6.9239C80.2427 6.85359 80.7194 6.88523 81.1884 6.87468C81.5682 6.3473 82.1574 6.56528 82.6651 6.55474C83.0256 6.5477 83.2659 6.42816 83.5527 6.24534C83.7891 6.09416 84.1805 6.16096 84.4906 6.08361C84.665 6.04142 84.8046 5.83398 84.9751 5.81992C85.4479 5.78124 86.0216 5.95704 86.3743 5.76718C86.8006 5.53865 87.1727 5.40856 87.6533 5.42966C88.1262 5.45427 88.6029 5.43317 89.0757 5.43317C89.2773 5.43317 89.6183 5.49997 89.6649 5.42262C90.1261 4.67726 91.1571 5.43669 91.626 4.78625C92.0175 4.75461 92.4167 4.75461 92.8043 4.68781C93.1105 4.63507 93.188 5.27847 93.5639 4.87063C93.8314 4.58233 94.2926 4.83899 94.4786 4.67374C94.9282 4.27997 95.436 4.33974 95.9592 4.32216C96.4747 4.30458 97.0561 4.48037 97.4204 3.95651C98.0289 3.95651 98.6413 3.95651 99.2498 3.95651C99.7924 3.95651 100.335 3.98112 100.878 3.94947C101.319 3.92486 101.595 3.4678 102.137 3.56624C102.498 3.63304 102.711 3.10566 103.188 3.20411C103.509 3.27091 103.862 3.22169 104.203 3.21466C104.85 3.20411 105.54 3.36232 106.067 2.84549C106.474 2.84549 106.881 2.86658 107.288 2.84197C107.796 2.81033 108.35 3.01777 108.788 2.53961C108.904 2.41304 109.296 2.48335 109.56 2.47984C110.373 2.47281 111.191 2.43413 111.997 2.4939C112.563 2.53609 112.982 2.27943 113.466 2.13528C113.897 2.00871 114.404 2.10716 114.881 2.10716H116.509C116.947 1.54813 117.594 1.75908 118.172 1.75557C118.315 1.75557 118.458 1.97004 118.602 2.08606C119.183 1.27038 120.299 2.14935 120.974 1.45672C121.187 1.23522 121.722 1.2528 122.047 1.56571C122.261 1.76963 122.509 1.8294 122.737 1.64306C122.943 1.47078 123.125 1.35124 123.431 1.36179C124.175 1.38289 124.923 1.38289 125.667 1.36179C126.005 1.35124 126.105 1.60087 126.311 1.73799C127.024 0.996139 127.962 1.4532 128.788 1.3864C129.729 1.31257 130.683 1.36882 131.632 1.36882H137.124C138.004 1.36882 138.888 1.35476 139.768 1.37585C140.07 1.38289 140.245 1.24577 140.469 1.10865C140.562 1.04888 140.841 1.29499 141.027 1.28444C141.19 1.27389 141.33 1.05942 141.504 1.0102C141.822 0.925822 141.946 1.30905 142.159 1.33015C142.83 1.39343 143.508 1.37234 144.182 1.35827C144.283 1.35827 144.384 1.21412 144.477 1.12623C144.764 0.862536 145.12 1.05942 145.434 1.00317C146.016 1.64658 146.795 1.33718 147.492 1.32312C147.69 1.3196 147.88 0.869568 148.14 1.01372C149.457 1.74854 150.888 1.33015 152.252 1.34421C157.538 1.40398 162.829 1.36179 168.116 1.37937C168.682 1.37937 169.309 1.17896 169.817 1.67822C169.945 1.80479 170.325 1.73447 170.592 1.73447C172.763 1.73447 174.933 1.73447 177.1 1.73447C177.98 1.73447 178.867 1.67822 179.743 1.75205C180.507 1.81534 181.371 1.39695 182.034 2.07903C182.038 2.08254 182.131 2.02981 182.173 1.99465C182.638 1.6079 183.096 1.6079 183.565 1.99465C183.797 2.18802 184.038 2.15286 184.258 1.95246C184.34 1.88214 184.522 1.77666 184.534 1.78721C185.076 2.34975 185.797 2.08606 186.429 2.08958C189.615 2.1177 192.805 2.06145 195.987 2.12122C197.219 2.14583 198.514 1.75908 199.696 2.45523C199.886 2.56773 200.227 2.46929 200.498 2.46929C202.262 2.46929 204.025 2.47281 205.785 2.46929C206.196 2.46929 206.545 2.48687 206.866 2.8033C207.037 2.97206 207.37 2.82439 207.537 2.59938C207.684 2.39897 208.017 2.41655 208.072 2.48687C208.409 2.91581 208.882 2.84549 209.347 2.84197C210.025 2.83846 210.711 2.78572 211.378 2.85252C212.343 2.94745 213.374 2.51851 214.277 3.19004C214.44 3.30958 214.804 3.20762 215.075 3.20762C216.362 3.20762 217.653 3.19708 218.939 3.21466C219.385 3.22169 219.881 3.05293 220.242 3.50296C220.319 3.6014 220.61 3.55921 220.808 3.57679C221.777 3.65766 222.796 3.33771 223.699 3.93541C223.831 4.02331 224.094 3.94596 224.3 3.94596C225.315 3.94596 226.335 3.91431 227.35 3.95651C227.986 3.98463 228.691 3.71391 229.241 4.28348C229.331 4.37841 229.625 4.31512 229.827 4.31512C230.3 4.31512 230.776 4.31512 231.249 4.31512C231.656 4.31512 232.183 4.17097 232.443 4.34677C232.861 4.63155 233.249 4.7089 233.726 4.68781C234.133 4.67023 234.54 4.68429 234.947 4.68429C235.42 4.68429 235.896 4.68781 236.369 4.68429C236.776 4.67726 236.935 5.15893 237.423 5.07104C237.881 4.99017 238.369 5.05346 238.842 5.05346C239.249 5.05346 239.667 5.00072 240.059 5.06752C240.485 5.14136 240.795 5.51755 241.319 5.43669C241.78 5.36637 242.264 5.42614 242.741 5.42262C243.268 5.41911 243.578 5.96055 244.206 5.8164C244.714 5.69686 245.299 5.72147 245.822 5.8164C246.171 5.87969 246.427 6.24182 246.88 6.16799C247.283 6.1047 247.597 6.26995 247.966 6.47036C248.314 6.66021 248.884 6.52661 249.353 6.53013C249.896 6.53013 250.45 6.60044 250.977 6.51255C251.57 6.4141 251.888 6.95203 252.442 6.90984C252.981 6.86765 253.524 6.90281 254.066 6.90281C254.566 7.5427 255.306 7.17001 255.934 7.26846C256.314 7.32823 256.512 7.74662 256.989 7.65169C257.31 7.5884 257.768 7.51457 257.985 7.66224C258.706 8.15446 259.504 7.9857 260.275 7.99976C260.752 8.00679 260.981 8.51308 261.535 8.39705C261.984 8.30213 262.481 8.37948 262.953 8.37948C263.395 9.13539 264.399 8.4076 264.919 8.98772C264.988 9.06507 265.139 9.08968 265.263 9.11429C265.825 9.23735 266.43 8.90686 266.992 9.36392C267.407 9.70144 268.031 9.41666 268.554 9.48698C268.616 9.49401 268.725 9.48698 268.74 9.5151C269.035 10.0706 269.756 9.6698 270.139 10.0319C270.225 10.1128 270.345 10.2077 270.457 10.2148C270.988 10.257 271.519 10.271 272.05 10.2921C272.372 10.7668 272.903 10.5066 273.337 10.598C273.829 10.7 274.213 11.157 274.798 10.9601C275.162 11.4734 275.759 11.2344 276.251 11.3504C276.74 11.4664 277.139 11.7864 277.72 11.716C278.248 11.6528 278.589 12.1555 279.092 12.254C279.275 12.2891 279.437 12.4122 279.62 12.4298C280.069 12.472 280.496 12.3911 280.918 12.7427C281.197 12.9712 281.775 12.7532 282.162 13.14C282.371 13.3474 282.937 13.031 283.243 13.4212C283.433 13.6638 283.844 13.5232 284.092 13.8045C284.375 14.1244 285.053 13.6849 285.317 14.2088C286.581 14.2404 287.453 15.1792 288.643 15.3936C288.898 15.7382 289.274 15.7558 289.693 15.7839C289.984 15.8015 290.263 16.0019 290.542 16.1355C291.433 16.5574 292.344 16.9441 293.228 17.3696C293.666 17.577 294.278 17.6051 294.522 18.122C294.569 18.2169 294.751 18.3575 294.813 18.3364C295.716 18.0411 295.968 19.0888 296.72 19.0888C297.181 19.5072 297.886 19.5705 298.324 20.0662C298.538 20.3088 299.076 20.2526 299.282 20.6077C299.495 20.9733 299.999 20.8573 300.27 21.1245C300.545 21.3952 300.793 21.7644 301.138 21.8875C302.251 22.2918 302.863 23.1883 303.685 23.8739C304.58 24.6228 305.394 25.4561 306.289 26.205C306.882 26.7007 307.363 27.2632 307.553 27.9453C307.696 28.4551 308.433 28.543 308.394 29.1091C308.925 29.5837 308.731 30.3185 309.188 30.8459C309.541 31.2538 309.669 31.7776 309.63 32.3402C309.572 33.198 309.603 34.0629 309.622 34.9208C309.63 35.304 309.599 35.631 309.223 35.8912C309.146 35.9439 309.13 36.2393 309.347 36.3764C309.448 36.4397 309.51 36.5451 309.591 36.633C308.967 36.8897 309.398 37.5331 309.022 37.8988C308.537 38.3664 308.572 39.1082 308.01 39.5442C308.138 40.163 307.758 40.5638 307.297 40.94C307.216 41.0068 307.161 41.1615 307.184 41.2564C307.278 41.6783 307.014 41.9244 306.723 42.1987C306.312 42.5889 305.754 42.8737 305.553 43.4152C305.347 43.9672 304.758 44.2168 304.425 44.6563C304.227 44.9129 304.359 45.4403 303.723 45.2821C303.386 45.5845 303.049 45.8868 302.716 46.1927C302.429 46.4529 302.142 46.7131 301.851 46.9767C301.565 47.2369 301.285 47.5076 300.987 47.7573C300.751 47.9542 300.336 47.8276 300.146 48.1475C299.879 48.5976 299.227 48.5589 298.875 48.9281C298.565 49.255 298.235 49.5715 297.867 49.8351C297.522 50.0813 297.134 50.3133 296.724 50.4364C295.898 50.686 295.204 51.0727 294.635 51.6669C294.518 51.79 294.293 51.9341 294.15 51.913C293.58 51.8216 293.282 52.138 292.964 52.4545C292.6 52.8166 292.247 53.2069 291.604 53.0346C291.181 53.4002 290.518 53.4284 290.162 53.889C290.127 53.9347 288.697 54.5183 288.619 54.5077C288.313 54.4655 288.119 54.6132 287.937 54.8031C287.67 55.0808 287.402 55.3516 286.922 55.2531C286.604 55.1863 286.433 55.4113 286.267 55.5906C285.988 55.8895 285.67 55.9844 285.228 56.0196C284.817 56.0512 284.348 56.2551 284.053 56.5188C283.592 56.9302 283.139 57.2009 282.476 57.0989C281.972 57.0216 281.55 57.1517 281.259 57.5455C281.038 57.8443 280.716 57.8724 280.371 57.8338C279.941 57.7845 279.794 58.3506 279.317 58.21C278.926 58.0939 278.74 58.5053 278.465 58.5475C277.895 58.6354 277.476 59.0678 276.802 58.9764C276.267 58.9026 275.786 59.4511 275.174 59.3702C274.899 59.9538 274.151 59.4546 273.775 59.8835C273.438 60.2667 272.659 59.8026 272.395 60.4109C271.736 60.1437 271.345 60.8785 270.736 60.7836C270.178 60.6957 269.914 61.3707 269.267 61.1879C268.969 61.1035 268.694 61.6133 268.225 61.5395C267.922 61.4938 267.562 61.4235 267.294 61.7153C266.98 62.0528 266.535 61.8243 266.159 61.9016C265.98 61.9403 265.814 62.0352 265.643 62.1091C264.504 62.6153 264.496 62.6892 263.647 62.6048C263.101 62.5521 262.841 62.9599 262.388 63.0021C261.946 63.0443 261.438 62.8298 261.081 63.2728C261.023 63.3431 260.849 63.3431 260.725 63.3642C260.213 63.4556 259.616 63.1568 259.186 63.5471C258.783 63.9127 258.14 63.54 257.76 64.0428C257.574 64.2889 257 63.9549 256.678 64.3135C256.38 64.6475 255.899 64.5069 255.543 64.4506C255 64.3663 254.725 64.8022 254.283 64.8339C253.81 64.869 253.334 64.8409 252.861 64.8409C252.496 65.3648 251.919 65.189 251.403 65.2101C251.066 65.2241 250.733 65.2276 250.396 65.2347C250.113 65.8007 249.388 65.3964 249.004 65.755C248.915 65.8359 248.803 65.9273 248.687 65.9449C248.109 66.0363 247.481 65.7691 246.946 66.1488C246.466 66.4934 245.911 66.2894 245.396 66.3035C244.966 66.314 244.822 66.7922 244.342 66.7043C243.95 66.634 243.532 66.6902 243.125 66.6902C242.481 67.3829 241.605 67.0383 240.853 67.0243C240.268 67.0137 239.958 67.4954 239.392 67.4391C238.861 67.3899 238.315 67.4391 237.776 67.4497C237.524 67.8294 237.121 67.8188 236.714 67.7942C236.183 68.304 235.489 68.1142 234.85 68.1704C234.214 68.2267 233.497 67.9243 232.966 68.4939C232.497 68.5079 232.017 68.5853 231.563 68.5185C231.036 68.4412 230.73 68.8068 230.303 68.8982C229.869 68.9896 229.373 68.7435 228.982 69.1373C228.877 69.2428 228.625 69.2639 228.439 69.2674C227.761 69.2814 227.083 69.2885 226.404 69.2674C225.807 69.2498 225.416 69.8088 224.734 69.6647C224.152 69.5451 223.521 69.6401 222.908 69.6401C221.819 70.3432 220.583 69.9178 219.412 69.9881C218.924 70.0198 218.719 70.5296 218.153 70.3995C217.707 70.2975 217.211 70.3784 216.734 70.3784C215.862 71.0816 214.816 70.6843 213.85 70.7194C213.292 70.7405 212.87 70.9972 212.385 71.0851C211.734 71.2046 211.025 71.1835 210.362 71.0956C209.653 71.0007 209.234 71.6652 208.486 71.5105C207.843 71.3769 207.138 71.4824 206.459 71.4824C206.122 71.4824 205.754 71.4085 205.448 71.5C204.963 71.6441 204.564 71.957 203.979 71.8656C203.518 71.7918 203.033 71.8515 202.556 71.8515C202.014 71.8515 201.456 71.9254 200.932 71.834C200.332 71.7285 200.041 72.3121 199.467 72.2348C199.002 72.1715 198.522 72.2207 198.045 72.2207H196.417C195.328 72.9344 194.088 72.5266 192.925 72.5723C191.099 72.6426 189.262 72.5301 187.437 72.611C186.134 72.6707 184.762 72.2102 183.538 72.959C181.708 72.959 179.875 72.9626 178.046 72.9485C177.945 72.9485 177.852 72.7938 177.739 72.7411C177.352 72.5582 177.344 72.5618 177.046 72.7024C176.879 72.7833 176.724 72.9204 176.549 72.9485C176.286 72.9907 176.011 72.959 175.739 72.959C163.538 72.959 151.333 72.959 139.132 72.959C138.613 72.959 138.039 73.1032 137.675 72.5934C137.361 72.6497 136.981 72.4492 136.729 72.7446C136.473 73.0469 136.028 73.0716 135.826 72.938C135.101 72.4633 134.311 72.6004 133.535 72.5969C130.485 72.5864 127.435 72.6004 124.381 72.5864C123.609 72.5828 122.811 72.7411 122.09 72.2488C121.896 72.1188 121.451 72.1469 121.179 72.4317C121.075 72.5407 120.714 72.6321 120.672 72.5829C120.141 71.9957 119.42 72.3121 118.788 72.2242C118.528 72.1891 118.458 72.4071 118.292 72.4774C118.129 72.5442 117.815 72.625 117.765 72.5653C117.478 72.2137 117.094 72.2102 116.683 72.2277C116.412 72.2383 116.137 72.2594 115.869 72.2277C114.842 72.0977 113.738 72.5688 112.769 71.8797C112.602 71.7601 112.242 71.8621 111.97 71.8621C110.207 71.8621 108.443 71.9219 106.684 71.841C105.451 71.7848 104.157 72.2172 102.974 71.507C102.785 71.3945 102.443 71.4894 102.172 71.4894C100.885 71.4894 99.587 71.398 98.3118 71.5211C97.5212 71.5984 97.0173 70.9656 96.2344 71.0956C95.5794 71.2046 94.8817 71.1167 94.2035 71.1167C93.6221 70.4839 92.8353 70.7968 92.1338 70.7581C91.3896 70.7159 90.6416 70.7476 89.8974 70.7476C89.4246 70.7476 88.9478 70.7335 88.475 70.7511C87.9982 70.7687 87.6107 70.6983 87.1921 70.41C86.9363 70.2307 86.4053 70.3784 85.9983 70.3784C85.5255 70.3784 85.0487 70.3819 84.5759 70.3784C84.0565 70.3714 83.4984 70.4733 83.1186 70.0092H81.6961C80.8822 69.408 79.9171 69.7209 79.0179 69.6401C78.5102 69.5944 77.9715 69.7948 77.5102 69.3412C77.3475 69.183 76.8397 69.2006 76.549 69.2885C75.7506 69.5381 75.208 68.8595 74.4716 68.8947C73.7274 68.9299 72.9794 68.9017 72.2352 68.9017C71.5918 68.2091 70.7081 68.7048 69.9679 68.5185C69.4834 68.3954 69.088 68.0509 68.5028 68.1493C68.0416 68.2267 67.5493 68.2161 67.0842 68.1493C66.6579 68.0896 66.3517 67.6888 65.8246 67.7802C65.4331 67.8505 64.9138 67.9349 64.627 67.7696C63.627 67.1825 62.5573 67.4813 61.5224 67.4497C61.0224 67.4356 60.6659 67.2458 60.2666 67.0594C59.7473 66.8168 59.2124 66.5496 58.6078 66.6973C58.0109 66.8449 57.7008 66.2648 57.1466 66.3105C56.6079 66.3527 56.0614 66.3246 55.5187 66.3105C55.4684 66.3105 55.418 66.2332 55.3753 66.184C55.0769 65.8535 54.5885 65.8007 54.2048 65.6144C53.8328 65.4351 53.2591 65.4984 52.8095 65.5933C52.201 65.7234 51.9375 65.0765 51.3406 65.189C50.8871 65.2734 50.3949 65.2171 49.922 65.196C49.8135 65.1925 49.7127 65.0694 49.6042 65.0097C48.9298 64.644 48.2399 64.3311 47.4105 64.4647C46.802 64.5631 46.4105 63.8248 45.7516 64.0955C45.4648 63.6314 44.8563 63.874 44.5346 63.6701C44.1703 63.4381 43.8525 63.3502 43.4455 63.3572C43.1122 63.3607 42.7827 63.3291 42.4494 63.315C42.1665 62.749 41.4301 63.1955 41.0541 62.7982C40.7014 62.422 39.9573 62.8474 39.6549 62.2778C39.6278 62.2251 39.3914 62.2286 39.2712 62.2602C38.6937 62.4079 38.2868 62.0493 37.8062 61.8946C37.3915 61.761 37.0891 61.4129 36.5504 61.4938C36.1977 61.5465 35.9729 61.0262 35.5001 61.1422C35.0117 61.2617 34.8024 60.6605 34.2404 60.7484C33.7637 60.8223 33.38 60.1859 32.787 60.4074C32.5195 60.0277 31.9537 60.1226 31.6397 59.7956C31.3219 59.4651 30.7483 59.8519 30.3684 59.4229C30.1747 59.2014 29.7018 59.001 29.3879 58.9694C28.9034 58.9237 28.5468 58.7127 28.1282 58.5826C27.6554 58.435 27.0391 58.7549 26.6631 58.224C26.1942 58.2135 25.7213 58.1713 25.2562 58.1994C24.8221 58.224 24.6826 57.7142 24.202 57.8056C23.8144 57.8795 23.3919 57.8197 22.985 57.8197C22.485 57.1939 21.7525 57.5244 21.1168 57.4576C20.7215 57.4154 20.5432 56.9442 20.0626 57.0778C19.5665 57.215 19.365 56.5505 18.803 56.6946C18.4386 56.7895 18.0665 56.7122 17.71 56.4204C17.4077 56.1778 16.8379 56.4344 16.4619 56.0266C16.2527 55.7981 15.6868 56.125 15.3728 55.7559C15.2798 55.6469 15.0201 55.6117 14.8419 55.6152C14.369 55.6188 13.9659 55.5941 13.5589 55.2672C13.3264 55.0808 12.8109 55.3375 12.4737 54.9789C12.183 54.6695 11.5086 55.0984 11.2451 54.5745C10.8342 54.5324 10.528 54.3355 10.2567 54.0577C10.1327 53.9311 9.94667 53.78 9.78389 53.78C9.36917 53.7729 8.97771 53.7729 8.72966 53.4002C8.33432 53.4846 8.1134 53.0451 7.8886 53.0627C7.41187 53.0944 7.26459 52.6514 6.83437 52.6373C6.54756 52.6268 6.26463 52.4158 5.98557 52.2892C5.87317 52.2365 5.77239 52.1662 5.66387 52.0994C5.2259 51.8322 5.03211 51.3188 4.45849 51.1747C3.8461 51.02 3.54379 50.4961 3.10582 50.1375C2.70273 49.807 2.35391 49.4273 1.94694 49.1038C1.49735 48.7417 1.53223 48.0842 0.950855 47.8065C0.861711 47.7643 0.803573 47.6096 0.799698 47.5041C0.784194 47.0752 0.791946 46.6427 0.791946 46.2138C0.315218 45.936 0.36948 45.5036 0.381107 45.0747C0.392735 44.6457 0.381107 44.2133 0.381107 43.7843L0.384983 43.83ZM224.172 6.25589C224.172 6.29456 224.172 6.35082 224.183 6.37894C224.207 6.43168 224.269 6.502 224.319 6.50551C224.579 6.53716 224.842 6.55474 225.106 6.56528C225.707 6.59341 226.304 6.61451 226.904 6.63912C227.447 7.22627 228.172 6.82194 228.803 6.93445C229.393 7.52863 230.172 7.22978 230.873 7.30713C231.063 7.32823 231.315 7.32823 231.416 7.4337C231.803 7.82748 232.319 7.55676 232.734 7.69036C233.214 7.84506 233.621 8.12633 234.203 8.05953C234.776 7.99624 235.408 7.9189 235.861 8.41112C236.609 8.26697 237.164 9.00178 237.935 8.78732C238.04 8.75919 238.245 8.79435 238.292 8.86467C238.574 9.25844 239.032 9.21977 239.385 9.12836C239.954 8.98069 240.102 9.61355 240.652 9.54323C241.206 9.47291 241.877 9.31118 242.311 9.88427C242.896 9.89833 243.52 9.76473 243.974 10.2534C244.66 10.1128 245.233 10.4187 245.846 10.6085C246.148 10.7035 246.628 10.5453 246.803 10.7035C247.152 11.0199 247.539 11.0621 247.904 10.9707C248.466 10.8265 248.648 11.4348 249.167 11.375C249.531 11.3328 249.935 11.2484 250.291 11.5789C250.652 11.9129 251.186 11.6598 251.64 11.7301C251.694 11.7371 251.748 11.8039 251.783 11.8532C252.062 12.254 252.64 11.9235 252.861 12.1344C253.26 12.5177 253.694 12.4438 254.151 12.4649C254.283 12.472 254.477 12.4473 254.527 12.5106C254.927 13.0204 255.586 12.6548 255.996 12.8657C256.485 13.1189 256.938 13.2314 257.477 13.2068C257.597 13.1997 257.795 13.2243 257.833 13.2912C258.12 13.8045 258.768 13.3685 259.082 13.6849C259.473 14.0822 259.954 13.8783 260.395 13.9416C260.516 13.9592 260.674 13.9943 260.736 14.0717C261.031 14.4619 261.601 14.135 261.822 14.3494C262.217 14.7362 262.659 14.6518 263.112 14.6764C263.24 14.6834 263.45 14.6659 263.488 14.7256C263.787 15.2143 264.43 14.8627 264.725 15.13C265.074 15.4499 265.515 15.2811 265.81 15.4429C266.225 15.6679 266.597 15.8542 267.085 15.7839C267.349 16.4132 268.066 15.9843 268.488 16.2796C268.837 16.5222 269.232 16.8211 269.632 16.8598C270.116 16.902 270.476 17.0988 270.895 17.236C271.248 17.352 271.616 17.3028 271.98 17.5629C272.29 17.7844 272.914 17.5137 273.201 17.9848C273.666 17.8548 273.852 18.4489 274.24 18.354C274.79 18.2204 275.05 18.6845 275.496 18.7548C275.728 18.79 275.914 19.0537 276.147 19.0923C276.531 19.1556 276.965 19.022 277.22 19.4193C277.736 19.3138 277.949 19.9643 278.449 19.8377C278.93 19.7182 279.158 20.0944 279.496 20.2315C280.755 20.7483 281.957 21.3777 283.22 21.8839C283.968 22.1828 284.627 22.6293 285.433 22.8368C285.778 22.9282 286.003 23.3395 286.34 23.5223C286.712 23.7263 287.158 23.8106 287.546 23.9935C287.891 24.1552 288.007 24.6017 288.472 24.6439C289.096 24.6966 289.228 25.4912 289.949 25.442C290.08 25.4315 290.228 25.6881 290.379 25.8112C291.061 26.3632 291.608 27.0417 292.495 27.4109C292.906 27.5832 293.429 27.9348 293.375 28.5289C293.949 29.0493 294.445 29.6997 295.123 30.0619C295.964 30.5119 295.565 31.4331 296.208 31.8936C296.282 32.3507 295.968 32.8886 296.538 33.2473C296.553 33.6059 296.569 33.9645 296.588 34.3231C296.607 34.6466 296.479 34.8892 296.421 35.2091C296.367 35.5115 296.538 35.638 296.603 35.8947C296.681 36.2041 296.572 36.5838 296.631 36.9073C296.766 37.6632 296.08 38.2187 296.115 38.9359C295.673 39.161 295.886 39.7622 295.394 39.9591C295.611 40.4478 294.898 40.5989 294.914 41.0912C294.925 41.4252 294.336 41.7522 294.278 42.1178C294.189 42.6487 293.58 42.6206 293.452 42.8913C293.29 43.2323 293.057 43.482 292.84 43.7703C292.371 44.3961 291.522 44.5402 290.98 45.0641C290.518 45.5141 290.022 45.936 289.546 46.372C288.79 46.4318 288.503 47.0611 287.98 47.4057C287.84 47.5006 287.612 47.483 287.429 47.5287C287.247 47.5709 287.003 47.5744 286.898 47.6869C286.546 48.0596 286.112 48.3022 285.615 48.4569C285.112 48.6151 284.678 48.8577 284.344 49.241C284.042 49.589 283.693 49.807 283.147 49.7648C282.953 49.7508 282.72 50.0039 282.526 50.1586C282.329 50.3133 282.158 50.5735 281.86 50.4715C281.306 50.2817 281.104 50.9356 280.6 50.8547C280.042 50.7669 279.701 51.2661 279.193 51.3294C278.918 51.8251 278.263 51.3716 277.953 51.7267C277.693 52.0255 277.321 51.8638 277.046 51.9763C276.701 52.1169 276.438 52.4193 276.12 52.6267C276.027 52.69 275.868 52.7041 275.748 52.6865C275.193 52.6057 274.752 52.9361 274.279 53.01C273.806 53.0838 273.438 53.4424 273.038 53.4002C272.496 53.344 272.221 53.7307 271.779 53.8046C271.345 53.8749 271.019 54.1632 270.531 54.2194C270.062 54.2722 269.624 54.6238 269.062 54.5534C268.899 54.5324 268.663 54.6203 268.546 54.7328C268.263 55.007 267.887 54.8101 267.612 54.9261C267.267 55.0738 267 55.3129 266.55 55.3023C266.271 55.2953 265.996 55.5871 265.698 55.6328C265.302 55.6926 264.888 55.6399 264.481 55.6539C264.36 55.6574 264.194 55.6961 264.136 55.7735C263.841 56.1708 263.271 55.8473 263.054 56.0547C262.655 56.4274 262.225 56.3676 261.767 56.3958C261.585 56.4063 261.395 56.4766 261.233 56.5575C260.55 56.8915 259.888 57.2747 259.05 57.1306C259 57.1236 258.915 57.1657 258.888 57.2079C258.62 57.6087 258.151 57.5666 257.802 57.4751C257.233 57.324 257.085 57.9638 256.535 57.8935C255.981 57.8232 255.31 57.665 254.876 58.2346C254.368 58.2979 253.787 58.0306 253.376 58.5123C252.849 58.544 252.318 58.5932 251.791 58.6002C251.26 58.6073 250.787 58.6354 250.307 58.9448C250.043 59.1135 249.605 59.0362 249.229 59.2577C248.892 59.4581 248.322 59.3245 247.853 59.3491C247.729 59.3561 247.547 59.3632 247.493 59.4335C247.012 60.0839 245.97 59.3245 245.543 60.0804C245.001 60.0804 244.458 60.0804 243.919 60.0804C243.485 60.657 242.83 60.4074 242.257 60.4461C241.853 60.4707 241.45 60.4636 241.043 60.4671C240.675 61.0016 240.063 60.868 239.582 60.7906C238.974 60.6922 238.706 61.3145 238.113 61.202C237.737 61.1316 237.199 61.093 236.954 61.2793C236.586 61.5606 236.237 61.5465 235.846 61.5536C235.439 61.5571 235.032 61.5536 234.625 61.5571C234.571 61.5571 234.497 61.5993 234.462 61.6414C234.121 62.0985 233.59 61.9579 233.168 61.8981C232.625 61.8208 232.35 62.2497 231.908 62.2813C231.435 62.3165 230.947 62.3517 230.489 62.2743C229.9 62.1723 229.513 62.5485 229.024 62.6435C228.272 62.7876 227.416 62.4185 226.757 63.0302C226.079 63.0302 225.381 63.1181 224.726 63.0056C223.939 62.872 223.354 63.3361 222.653 63.3959C221.684 63.4767 220.684 63.1919 219.75 63.7404C219.463 63.9092 218.943 63.8213 218.552 63.7545C218.025 63.6596 217.719 64.0639 217.292 64.1237C216.827 64.1869 216.335 64.1975 215.874 64.1237C215.288 64.0287 214.893 64.3698 214.405 64.4893C214.025 64.5842 213.595 64.5069 213.192 64.5069C212.719 64.5069 212.227 64.5702 211.773 64.4893C211.285 64.4014 211.145 64.8936 210.715 64.8831C209.835 64.8585 208.951 64.8761 208.072 64.8761C207.734 64.8761 207.308 64.7565 207.068 64.8972C206.014 65.5195 204.862 65.1362 203.762 65.2452C203.564 65.2628 203.273 65.2101 203.188 65.305C202.766 65.7972 202.2 65.5933 201.692 65.6074C200.742 65.632 199.793 65.6144 198.843 65.6144C197.901 66.3422 196.785 65.871 195.754 65.973C195.084 66.0363 194.398 65.9836 193.719 65.9836C193.041 65.9836 192.359 65.9484 191.685 65.9941C191.049 66.0363 190.324 65.7339 189.813 66.3387C189.716 66.2613 189.634 66.1558 189.522 66.1136C189.351 66.0504 189.08 65.9414 188.991 66.0082C188.727 66.2015 188.514 66.3914 188.123 66.3633C187.584 66.3246 187.037 66.3527 186.495 66.3527H170.829C170.286 66.3527 169.743 66.3492 169.201 66.3527C168.596 66.3598 167.988 66.3703 167.383 66.3809C166.93 67.0559 166.554 66.075 166.065 66.3316C165.813 66.4652 165.391 66.2437 165.154 66.5566C165.046 66.7008 164.957 66.7324 164.864 66.6234C164.689 66.4125 164.472 66.3457 164.174 66.3457C159.833 66.3562 155.492 66.3597 151.155 66.3387C150.764 66.3387 150.55 66.5109 150.31 66.7078C149.946 66.1804 149.357 66.3738 148.845 66.3562C148.236 66.3316 147.624 66.3492 147.016 66.3492C138.946 66.3492 130.877 66.3562 122.807 66.3422C122.04 66.3422 121.199 66.5813 120.536 65.98C120.028 66.0398 119.455 65.7902 119.036 66.2859C118.974 66.3598 118.586 66.3457 118.52 66.2613C118.218 65.8816 117.803 65.9836 117.416 65.9836C114.366 65.98 111.311 66.0187 108.261 65.9554C107.37 65.9379 106.37 66.3598 105.56 65.632C105.552 65.6249 105.288 65.8464 105.145 65.9625C104.924 65.7163 104.676 65.5792 104.288 65.5968C103.544 65.632 102.796 65.6074 102.052 65.6074H100.017C99.273 65.6074 98.5095 65.523 97.7847 65.6285C97.0018 65.7445 96.4127 65.2874 95.7112 65.2487C94.9011 65.203 94.0833 65.2382 93.2694 65.2382H90.8276C89.9478 65.2382 89.0564 65.1714 88.1843 65.2558C87.3587 65.3366 86.6727 64.9464 85.9092 64.8796C85.3045 64.8268 84.6883 64.869 84.0798 64.869C83.4015 64.869 82.7077 64.7882 82.0488 64.8936C81.3861 64.9991 80.9597 64.5245 80.3822 64.5069C79.7737 64.4858 79.1613 64.5034 78.5528 64.5034H76.925C76.3165 64.5034 75.6808 64.4084 75.0995 64.528C74.4173 64.6686 74.0259 64.1131 73.429 64.1307C72.8864 64.1483 72.3437 64.1307 71.8011 64.1307C71.2585 64.1307 70.7043 64.0674 70.1772 64.1483C69.588 64.2362 69.1966 63.874 68.7121 63.7826C68.1927 63.6877 67.6307 63.7615 67.0881 63.7615C66.5455 63.7615 65.9874 63.6877 65.4641 63.7791C64.8634 63.8846 64.5533 63.3959 64.0029 63.3677C62.4294 63.2904 60.8015 63.7299 59.2861 63.0232C58.3869 62.9494 57.4179 63.2552 56.6079 62.654H53.9645C53.17 61.9508 52.1778 62.3974 51.2825 62.2954C50.8135 62.2427 50.3329 62.2849 49.86 62.2849C49.2825 61.645 48.488 62.0001 47.7903 61.9227C47.7477 61.9192 47.6469 62.0212 47.6547 62.0423C47.6934 62.1302 47.7516 62.2638 47.8252 62.2743C48.3291 62.3587 48.8562 62.1302 49.3407 62.5485C49.7631 62.9142 50.5577 62.3587 50.9763 62.9564C51.4414 62.9775 51.9065 62.988 52.3716 63.0232C52.8793 63.0619 53.2204 63.5541 53.8366 63.4099C54.2591 63.3115 54.7901 63.2728 55.0963 63.7369C55.7474 63.5154 56.1466 64.1412 56.7513 64.1342C57.3288 64.1272 57.9721 63.9549 58.414 64.4928C58.9217 64.5596 59.507 64.2784 59.9101 64.7776C60.5069 64.8057 61.1038 64.8374 61.7046 64.8585C62.096 64.8725 62.4449 64.8585 62.8131 65.1362C63.0572 65.3226 63.6076 65.1362 63.9681 65.2487C64.3208 65.3577 64.5804 65.6144 65.0262 65.6179C65.6579 65.6249 66.3866 65.3472 66.8982 65.9519C67.4369 65.9554 67.9834 66.0046 68.5183 65.9554C69.0803 65.9027 69.402 66.3703 69.9795 66.3703C70.8709 66.3703 71.8593 66.0257 72.6577 66.7043C73.2003 66.7043 73.7429 66.7289 74.2855 66.6973C74.832 66.6621 75.1343 67.3547 75.7467 67.0735C76.7777 67.193 77.8862 66.7676 78.8319 67.4426C79.3745 67.4426 79.9481 67.5446 80.452 67.418C81.0915 67.2563 81.3783 67.8435 81.9209 67.8188C82.3938 67.7977 82.8705 67.8153 83.3434 67.8153C83.7503 67.8153 84.1689 67.8751 84.5604 67.8013C85.0914 67.7028 85.3898 68.1247 85.82 68.1739C86.289 68.2267 86.7812 68.2443 87.2386 68.1739C87.8238 68.079 88.2192 68.4411 88.7075 68.5361C89.2269 68.6345 89.7889 68.5572 90.3315 68.5572H91.7539C92.2965 68.5572 92.8392 68.5326 93.3818 68.5642C93.8353 68.5923 94.3507 68.3779 94.7345 68.7048C95.2073 69.1092 95.7577 68.842 96.2654 68.9228C96.7693 69.0037 97.3584 68.7119 97.7692 69.2111C97.7847 69.2287 97.9591 69.1584 98.0444 69.1057C98.5289 68.8209 99.0909 68.8138 99.5366 69.0318C99.8389 69.1795 100.095 69.3025 100.44 69.299C101.591 69.2885 102.746 69.2955 103.897 69.2955C104.168 69.2955 104.536 69.19 104.695 69.3131C105.529 69.9565 106.494 69.5697 107.393 69.6541C107.998 69.7104 108.614 69.6752 109.222 69.6612C109.695 69.6506 110.156 69.619 110.49 70.0268C110.536 70.0831 110.831 70.069 110.866 70.0127C111.195 69.4959 111.459 69.9459 111.773 70.0127C112.067 70.0725 112.443 70.1463 112.699 69.844C112.951 69.5451 113.4 69.5768 113.618 69.6928C114.028 69.9108 114.397 70.0655 114.893 70.0444C115.842 70.0092 116.792 70.0338 117.741 70.0338C118.621 70.0338 119.513 69.967 120.385 70.0514C121.28 70.1393 122.28 69.6471 123.071 70.396C123.168 70.3116 123.253 70.2132 123.361 70.1499C123.466 70.0901 123.613 70.0163 123.71 70.0444C123.885 70.0971 124.036 70.2237 124.199 70.3116C124.493 70.4698 124.602 69.9424 124.753 70.1112C125.074 70.4628 125.462 70.403 125.854 70.403C128.768 70.403 131.687 70.4065 134.601 70.403C135.012 70.403 135.396 70.3854 135.683 70.7405C135.733 70.8038 136.051 70.7335 136.21 70.6632C136.9 70.3679 137.322 70.2589 137.853 70.5542C138.434 70.8777 138.954 70.8214 139.52 70.6245C140.326 70.3397 141.171 70.3257 141.985 70.5823C142.086 70.614 142.248 70.7194 142.264 70.7019C142.679 70.2378 142.981 70.4171 143.427 70.7265C143.663 70.8882 144.217 70.9269 144.5 70.5331C144.613 70.3749 144.671 70.3854 144.795 70.5366C145.027 70.8109 145.322 70.9163 145.624 70.6175C145.954 70.2905 146.454 70.287 146.706 70.4804C147.291 70.9198 147.752 70.955 148.26 70.4452C148.725 70.8882 149.333 70.7757 149.903 70.7757C157.701 70.7757 165.499 70.7757 173.298 70.7757C173.569 70.7757 173.844 70.8038 174.108 70.7651C174.282 70.737 174.441 70.6105 174.608 70.5296C174.937 70.3714 174.941 70.3679 175.301 70.5472C175.414 70.6034 175.518 70.7757 175.604 70.7651C176.507 70.628 177.48 71.0992 178.328 70.4944C178.371 70.4663 178.542 70.5296 178.604 70.5929C178.937 70.9198 179.371 70.7827 179.743 70.7546C180.034 70.7335 180.309 70.4311 180.592 70.4311C180.875 70.4311 181.146 70.7054 181.445 70.7546C181.677 70.7968 182.007 70.8952 182.197 70.6491C182.437 70.3362 182.786 70.3608 183.103 70.4171C183.328 70.4557 183.549 70.7405 183.731 70.7089C183.948 70.6737 184.076 70.3503 184.398 70.403C184.964 70.4909 185.619 70.1815 186.088 70.7159C186.103 70.7335 186.204 70.7159 186.224 70.6913C186.557 70.2202 187.076 70.4171 187.518 70.41C188.941 70.3889 190.367 70.403 191.789 70.403C192.061 70.403 192.429 70.5085 192.588 70.3854C193.421 69.742 194.386 70.1323 195.285 70.0444C195.82 69.9917 196.37 70.0338 196.913 70.0338H198.336C198.878 70.0338 199.432 69.9706 199.96 70.0514C200.545 70.1393 200.94 69.7912 201.428 69.6858C201.878 69.5873 202.374 69.6647 202.847 69.6647C203.32 69.6647 203.816 69.5908 204.266 69.6823C204.816 69.7948 205.064 69.2955 205.525 69.2955C206.068 69.2955 206.649 69.183 207.141 69.3271C207.641 69.4748 208.002 68.6591 208.467 69.2463C209.145 68.7189 209.963 69.0213 210.715 68.9193C211.475 68.8174 212.347 69.2639 212.99 68.5642C213.599 68.5642 214.223 68.4939 214.816 68.5783C215.463 68.6697 215.847 68.1528 216.482 68.1599C217.374 68.1704 218.362 68.4974 219.16 67.8224H220.381C220.854 67.8224 221.335 67.861 221.804 67.8118C222.172 67.7731 222.401 67.4356 222.858 67.4321C223.827 67.4251 224.858 67.7063 225.742 67.0875C226.284 67.0875 226.866 66.975 227.362 67.1157C228.013 67.2985 228.28 66.7113 228.831 66.7008C229.528 66.6867 230.327 67.0102 230.9 66.3527C231.373 66.3527 231.865 66.2824 232.319 66.3703C232.916 66.4828 233.226 65.9695 233.78 65.9589C234.412 65.9484 235.137 66.2789 235.687 65.7023C236.354 65.6742 237.016 65.646 237.683 65.6144C237.745 65.6144 237.83 65.6038 237.861 65.5687C238.326 65.0308 238.981 65.3226 239.547 65.2487C239.807 65.2136 240.187 65.2944 240.307 65.1644C240.633 64.8128 241.036 64.8303 241.408 64.8936C241.888 64.978 242.078 64.5385 242.462 64.5104C242.977 64.4752 243.555 64.6581 243.919 64.1377C244.462 64.1377 245.024 64.0569 245.543 64.1588C246.101 64.2678 246.237 63.6209 246.811 63.7439C247.318 63.8529 247.884 63.765 248.419 63.7334C248.52 63.7264 248.605 63.5646 248.71 63.4873C249.031 63.2482 249.52 63.5928 249.811 63.2271C250.055 62.9212 250.435 63.0021 250.737 63.0513C251.206 63.1251 251.423 62.7068 251.791 62.6786C252.396 62.6329 253.012 62.6646 253.62 62.6646C254.074 62.1759 254.702 62.2743 255.283 62.3095C255.682 62.3341 255.865 62.088 256.144 61.9438C256.411 61.8067 256.853 62.0915 257.078 61.7856C257.43 61.3074 258.198 61.8454 258.481 61.2723C258.5 61.2301 258.593 61.1879 258.644 61.1949C259.651 61.3531 260.512 60.5937 261.531 60.8152C261.643 60.8398 261.857 60.8082 261.891 60.7414C262.19 60.1683 262.903 60.6535 263.314 60.2421C263.709 59.8448 264.341 60.1718 264.857 60.0804C264.977 60.0593 265.139 60.0347 265.201 59.9609C265.597 59.4827 266.426 59.9362 266.756 59.3456C267.349 59.5671 267.721 58.9764 268.213 58.9975C268.833 59.0221 269.217 58.3963 269.88 58.6002C270.434 58.7725 270.744 58.0728 271.337 58.2275C271.752 58.3365 271.911 57.7213 272.387 57.8654C272.957 58.0377 273.383 57.6966 273.845 57.4997C274.128 57.3802 274.414 57.1482 274.693 57.1552C275.143 57.1693 275.403 56.8845 275.755 56.786C276.116 56.6841 276.488 56.7509 276.848 56.4696C277.151 56.234 277.786 56.5259 278.069 56.0512C278.546 56.1954 278.716 55.5801 279.104 55.6715C279.651 55.7981 279.922 55.3551 280.36 55.2742C280.592 55.232 280.84 54.9015 280.999 54.9437C281.616 55.109 281.968 54.5324 282.464 54.5675C283.147 54.6203 283.36 54.1105 283.774 53.8397C283.867 53.78 284.034 53.8257 284.166 53.8081C284.356 53.78 284.647 53.794 284.709 53.6921C284.91 53.3616 285.364 53.5585 285.561 53.3088C285.805 52.9994 286.15 53.0944 286.472 53.0662C286.588 53.0557 286.736 52.9959 286.805 52.9151C287.139 52.5248 287.623 52.3595 288.073 52.124C288.786 51.7513 289.658 51.6177 290.204 50.9708C290.294 50.8653 290.569 50.8969 290.751 50.8547C290.933 50.8126 291.17 50.802 291.282 50.693C291.786 50.2043 292.445 50.0004 293.084 49.7262C293.418 49.582 293.797 49.4589 294.084 49.255C294.642 48.8542 295.1 48.3655 295.778 48.0596C296.332 47.81 296.72 47.2967 297.332 47.0119C297.945 46.7271 298.344 46.1294 299.038 45.8446C299.499 45.6548 299.82 45.1801 300.204 44.8321C300.634 44.4418 301.068 44.048 301.499 43.6578C301.882 43.3097 302.27 42.9651 302.65 42.6135C303.061 42.2338 303.429 41.8541 303.7 41.3513C303.909 40.9576 304.231 40.5462 304.549 40.2017C305.208 39.4844 305.677 38.7566 305.557 37.8038C305.514 37.4487 305.696 37.2343 305.96 37.0268C306.216 36.8264 306.413 36.626 306.39 36.2604C306.347 35.5255 306.413 34.7837 306.359 34.0489C306.332 33.6938 306.615 33.5426 306.743 33.293C306.134 32.8816 306.429 32.2874 306.39 31.7706C306.371 31.4893 306.045 31.3241 306.057 31.1659C306.088 30.6947 305.46 30.5084 305.561 30.0478C305.177 29.654 304.96 29.1618 304.766 28.6872C304.557 28.1809 303.816 27.9945 303.867 27.3652C303.437 26.9749 303.018 26.5671 302.568 26.1944C301.692 25.4701 301.01 24.5525 299.871 24.0884C299.398 23.895 299.235 23.2903 298.658 23.1848C298.069 23.0793 297.852 22.5731 297.456 22.2672C297.22 22.0844 296.987 22.0949 296.728 22.0668C296.549 22.0457 296.224 21.9156 296.231 21.8875C296.371 21.3003 295.759 21.448 295.522 21.2405C295.138 20.8995 294.588 20.889 294.204 20.4987C293.84 20.126 293.243 19.9467 292.801 19.581C292.499 19.3314 292.003 19.2787 291.6 19.1205C291.313 19.008 291.146 18.6353 290.751 18.7583C290.27 18.906 290.104 18.354 289.697 18.3892C289.356 18.4208 289.263 17.9954 289.057 18.0341C288.309 18.1782 287.925 17.7387 287.538 17.3309C287.193 16.9652 286.794 16.8387 286.301 16.909C285.922 16.9652 285.716 16.691 285.429 16.5855C285.081 16.4554 284.635 16.5609 284.232 16.5258C284.127 16.5152 283.992 16.3922 283.941 16.2902C283.685 15.7909 283.061 15.8085 282.643 15.5378C282.259 15.2917 281.616 15.4745 281.244 15.0596C280.55 15.2354 280.003 14.7713 279.375 14.7116C279.007 14.6764 278.724 14.5955 278.527 14.3354C278.263 13.9873 277.906 13.9135 277.476 13.9521C277.143 13.9803 276.875 13.8502 276.565 13.7236C276.062 13.5232 275.503 13.3544 274.961 13.2419C274.341 13.1118 273.678 13.3087 273.077 12.8763C272.821 12.6899 272.31 12.7989 271.914 12.7743C271.577 12.2258 270.686 12.7427 270.38 12.1204C269.907 12.1168 269.434 12.1204 268.961 12.1028C268.841 12.0993 268.674 12.0606 268.616 11.9832C268.318 11.5895 267.864 11.702 267.504 11.7582C267.019 11.8321 266.88 11.3504 266.449 11.3574C265.806 11.3645 265.108 11.5332 264.585 10.9988C263.876 10.9672 263.151 11.1254 262.496 10.6542C262.287 10.5031 261.826 10.5804 261.504 10.6437C261.031 10.7351 260.826 10.3062 260.45 10.2675C259.791 10.2007 259.023 10.4785 258.485 10.1304C257.83 9.70848 257.186 9.9581 256.547 9.90536C256.082 9.86669 255.605 9.94404 255.291 9.52213C254.806 9.58894 254.434 9.40963 254.016 9.18461C253.713 9.02288 253.214 9.10375 252.818 9.16703C252.349 9.24086 252.21 8.73458 251.764 8.77325C251.225 8.81896 250.667 8.717 250.14 8.80138C249.493 8.90334 249.035 8.48847 248.473 8.42518C247.578 8.31971 246.609 8.64668 245.795 8.04898H243.152C242.431 7.33878 241.501 7.79936 240.675 7.68685C240.342 7.64114 239.993 7.70794 239.66 7.66927C239.485 7.64817 239.326 7.51105 239.167 7.42316C238.729 7.18408 238.067 7.48996 237.761 6.94148C237.447 6.98719 237.14 6.89929 236.807 7.09618C236.261 7.41964 236.226 7.37745 235.575 7.11728C235.458 7.07157 235.358 6.95555 235.245 6.95203C234.702 6.93445 234.16 6.945 233.617 6.945C233.075 6.945 232.528 6.98719 231.989 6.93093C231.493 6.8782 231.129 6.49497 230.524 6.54067C229.842 6.59341 229.032 6.86413 228.459 6.20666C227.036 6.20666 225.61 6.20666 224.187 6.2137C224.187 6.2137 224.187 6.23479 224.183 6.26292L224.172 6.25589ZM294.569 34.97C294.569 34.7239 294.623 34.4637 294.553 34.2352C294.491 34.0207 294.239 33.8555 294.177 33.641C294.107 33.4125 294.131 33.1488 294.169 32.9062C294.266 32.2663 293.883 31.7495 293.518 31.31C293.127 30.8389 292.813 30.3502 292.538 29.8263C292.483 29.7243 292.476 29.5872 292.394 29.5134C291.588 28.768 290.728 28.0613 289.972 27.2773C289.639 26.9292 289.108 26.982 288.832 26.6374C288.433 26.1346 287.724 26.0503 287.243 25.6213C286.817 25.2381 286.077 25.1537 285.615 24.7916C285.112 24.3978 284.522 24.2009 283.972 23.9161C283.864 23.8599 283.732 23.8317 283.635 23.7685C282.441 22.9668 280.713 22.1828 279.089 21.6976C278.914 21.6449 278.744 21.5359 278.608 21.4199C278.317 21.1702 278.081 20.8784 277.589 20.9522C277.43 20.9769 277.224 20.8643 277.073 20.7659C276.5 20.4038 275.771 20.3264 275.232 19.8764C275.027 19.7041 274.6 19.9713 274.286 19.7393C274.05 19.5635 273.736 19.4685 273.457 19.3385C273.178 19.2084 272.899 19.0712 272.616 18.9482C272.445 18.8744 272.252 18.7372 272.097 18.7654C271.302 18.9025 270.752 18.4314 270.132 18.1536C269.794 18.0024 269.356 18.0059 269.128 17.6508C269.093 17.5981 268.86 17.6157 268.736 17.6508C268.155 17.8126 267.748 17.4504 267.275 17.2782C266.864 17.1305 266.535 16.7648 266.019 16.909C265.597 16.575 265.108 16.473 264.558 16.5363C264.438 16.5504 264.229 16.5293 264.198 16.466C263.899 15.8929 263.143 16.4132 262.787 15.9527C262.492 15.573 261.895 15.9949 261.531 15.5694C261.217 15.2038 260.426 15.6679 260.147 15.0632C259.558 15.2776 259.186 14.7608 258.686 14.7045C258.287 14.6588 257.865 14.7467 257.469 14.6799C257.109 14.6202 256.88 14.265 256.411 14.3002C256.14 14.3213 255.861 14.033 255.562 13.9697C255.182 13.8888 254.655 14.0225 254.415 13.8326C254.039 13.5337 253.655 13.5408 253.295 13.6076C252.803 13.6955 252.648 13.1575 252.241 13.2243C251.547 13.3404 251.093 12.6196 250.388 12.8165C250.078 12.3489 249.57 12.4966 249.117 12.479C248.597 12.4579 248.268 11.9129 247.652 12.0958C247.117 12.254 246.675 11.8989 246.187 11.7723C245.621 11.6281 244.977 11.7407 244.365 11.7336C244.311 11.7336 244.245 11.6844 244.21 11.6387C243.861 11.2027 243.33 11.477 242.912 11.3539C242.427 11.2133 242.028 10.8617 241.446 10.9883C241.191 11.0445 240.749 11.0832 240.667 10.9707C240.198 10.3062 239.377 10.8757 238.838 10.4714C238.195 9.98975 237.408 10.3835 236.702 10.257C236.64 10.2464 236.559 10.2359 236.528 10.2007C236.133 9.68738 235.547 9.93701 235.04 9.89482C234.59 9.85614 234.137 9.97217 233.741 9.57487C233.586 9.41666 233.098 9.50455 232.768 9.52917C232.338 9.56081 232.199 9.08617 231.714 9.13187C230.908 9.20922 230.09 9.15297 229.276 9.15297C228.637 8.43924 227.757 8.93147 227.005 8.7838C226.943 8.76974 226.835 8.79435 226.815 8.76622C226.23 7.94702 225.067 8.85763 224.463 8.11578C223.59 8.09117 222.722 8.06656 221.85 8.04547C221.784 8.04547 221.715 8.03843 221.649 8.04547C221.288 8.09117 221.04 7.95054 220.765 7.73959C220.478 7.51809 219.998 7.82045 219.664 7.47238C219.304 7.0997 218.773 7.37393 218.323 7.30713C217.629 7.20166 216.827 7.59544 216.254 6.94148C215.781 6.94148 215.288 6.86413 214.835 6.95555C214.285 7.06454 214.025 6.58286 213.575 6.57232C212.967 6.55474 212.351 6.52309 211.746 6.57935C211.06 6.64263 210.49 6.40004 209.87 6.22776C209.374 6.08712 208.789 6.14689 208.254 6.2137C207.622 6.29105 207.141 5.96055 206.587 5.84805C206.2 5.76718 205.777 5.81289 205.37 5.8375C205.006 5.86211 204.766 5.72499 204.486 5.52459C204.049 5.21167 203.851 5.83398 203.467 5.82695C203.347 5.82695 203.184 5.79531 203.118 5.72147C202.925 5.51755 202.711 5.44724 202.417 5.45778C201.739 5.47888 201.06 5.46482 200.382 5.46482C200.08 5.0183 199.576 5.01127 199.13 5.11323C198.525 5.25035 198.161 4.7968 197.665 4.74055C197.13 4.68078 196.584 4.72648 196.041 4.72648H194.413C193.871 4.72648 193.324 4.76164 192.785 4.71593C192.27 4.67374 191.661 4.94447 191.247 4.54366C190.634 3.94596 190.359 4.87766 189.863 4.73351C189.739 4.69835 189.53 4.78274 189.468 4.71945C188.929 4.1991 188.235 4.36786 187.592 4.36435C185.557 4.35028 183.522 4.36435 181.487 4.3538C181.231 4.3538 180.894 4.36786 180.739 4.23426C180.359 3.90728 180.131 3.95299 179.724 4.22723C179.328 4.49092 178.778 4.39599 178.235 4.20613C177.332 3.8897 177.235 3.90025 176.03 4.287C175.867 4.33974 175.65 4.32919 175.487 4.27997C175.313 4.22723 175.174 4.00924 175.011 4.00221C174.267 3.97057 173.519 3.95299 172.774 4.00221C172.073 4.0444 171.286 3.71743 170.697 4.34325C169.953 4.35028 169.209 4.34325 168.468 4.36786C168.131 4.37841 168.042 4.03385 167.821 4.01276C167.449 3.98112 167.019 3.85455 166.709 4.24481C166.631 4.33974 166.244 4.38544 166.193 4.32216C165.903 3.96705 165.519 3.98112 165.112 3.98815C164.368 3.9987 163.62 3.98112 162.876 3.9987C162.697 4.00221 162.484 4.06901 162.352 4.17801C162.046 4.43115 161.833 4.34677 161.496 4.17801C160.856 3.86158 160.162 3.90377 159.453 4.2202C158.988 4.42763 158.616 4.46631 158.193 4.12527C157.876 3.87212 157.434 3.87212 157.112 4.13581C156.635 4.52608 156.104 4.30106 155.597 4.3327C155.29 3.86509 154.779 3.98815 154.329 3.9987C153.62 4.01276 152.864 3.81939 152.252 4.3538C152.201 4.39951 151.973 4.3538 151.895 4.28348C151.698 4.1112 151.519 3.94596 151.209 3.99166C150.57 4.08659 149.86 3.75258 149.279 4.2202C148.57 4.78977 148.109 3.92135 147.477 3.9776C147.186 4.00573 146.988 4.07604 146.775 4.24832C146.659 4.33974 146.403 4.35731 146.24 4.31512C146.066 4.2659 145.915 3.99518 145.783 4.00924C145.016 4.09714 144.167 3.69985 143.485 4.30458C142.655 4.27645 141.772 4.67023 141.004 4.03385C140.915 3.96002 140.601 4.00924 140.473 4.09714C139.861 4.53662 139.279 4.5085 138.663 4.11472C138.524 4.02331 138.186 3.95651 138.136 4.01276C137.849 4.36083 137.473 4.36435 137.059 4.36083C135.907 4.34677 134.752 4.3538 133.601 4.36083C133.334 4.36083 132.95 4.28348 132.826 4.41005C132.322 4.91985 131.694 4.70539 131.129 4.71593C129.636 4.74758 128.144 4.72297 126.652 4.73C126.388 4.73 126.001 4.67374 125.888 4.80032C125.509 5.22222 125.032 5.0851 124.586 5.09213C123.501 5.10971 122.416 5.09213 121.33 5.09916C121.071 5.09916 120.703 5.06049 120.571 5.19058C120.117 5.65467 119.563 5.41911 119.055 5.44372C118.982 5.44724 118.854 5.18003 118.823 5.02533C118.807 4.94095 118.931 4.75109 119.005 4.74406C119.408 4.71242 119.842 4.6421 120.214 4.74406C120.78 4.89524 120.923 4.14285 121.482 4.33974C121.621 4.38896 121.997 4.23074 121.997 4.21316C121.931 3.88267 121.625 3.99166 121.396 3.98815C120.175 3.98112 118.955 3.98112 117.734 3.98815C117.466 3.98815 117.071 3.91431 116.958 4.04089C116.524 4.52608 115.966 4.30458 115.459 4.35731C114.428 4.46279 113.323 4.07956 112.373 4.72648C111.765 4.72648 111.133 4.81438 110.548 4.70539C109.819 4.56475 109.339 5.07807 108.68 5.12378C107.784 5.18706 106.788 4.71242 105.978 5.44724C105.97 5.45427 105.707 5.23277 105.564 5.11674C104.974 5.74609 104.184 5.38395 103.486 5.46482C103.285 5.48943 103.009 5.39098 102.889 5.48239C102.192 5.99923 101.381 5.80234 100.606 5.8375C100.54 5.8375 100.444 5.81289 100.409 5.84101C99.6723 6.47036 98.7576 6.11525 97.9281 6.20666C97.7382 6.22776 97.4553 6.19963 97.3739 6.30159C97.0677 6.68131 96.6375 6.62505 96.2693 6.55825C95.7809 6.47036 95.6143 6.90984 95.215 6.95555C94.4515 7.04696 93.5872 6.62154 92.9399 7.31417C92.126 7.31417 91.3121 7.32823 90.4982 7.30713C90.1958 7.3001 90.0292 7.49347 89.8044 7.57082C89.4478 7.69036 89.006 7.59192 88.6416 7.70091C88.223 7.82397 87.8936 8.12985 87.3781 8.06656C86.913 8.00679 86.4285 8.07711 85.9557 8.04898C85.4712 8.02086 85.2348 8.62207 84.6999 8.42518C84.1147 8.70294 83.51 8.9385 82.8356 8.78732C82.2543 8.65723 81.8512 9.0053 81.3706 9.15297C80.9558 9.27954 80.6419 9.71199 80.1187 9.53268C79.5838 9.34634 79.3319 9.90536 78.8629 9.90536C78.2156 9.90536 77.5916 9.84208 76.9715 10.2394C76.6033 10.4749 75.9018 10.0776 75.5181 10.6015C74.9832 10.6156 74.4445 10.6226 73.9096 10.6437C73.7197 10.6507 73.4367 10.6402 73.3553 10.7421C73.0491 11.1254 72.6112 11.0586 72.2507 10.9918C71.7624 10.9039 71.6073 11.3961 71.1926 11.382C70.9213 11.3715 70.6384 11.3328 70.3826 11.3926C70.0841 11.4629 69.7973 11.607 69.5338 11.7547C69.0803 12.0079 68.6346 12.2118 68.0687 12.1309C67.9059 12.1063 67.6695 12.1942 67.5532 12.3067C67.3323 12.5177 67.0649 12.4368 66.8207 12.5001C66.5222 12.5739 66.1928 12.8939 65.9796 12.8271C65.3401 12.6372 65.0494 13.365 64.5146 13.2173C63.7278 13.0028 63.2162 13.8396 62.4449 13.6041C62.158 14.0717 61.6426 13.9381 61.2007 13.9943C60.8286 14.5287 60.2356 14.2686 59.7279 14.3389C59.6116 14.3565 59.4799 14.4338 59.4101 14.5182C59.1116 14.8838 58.6388 14.5674 58.3016 14.7748C57.9334 14.9999 57.5807 15.2847 57.1698 15.4077C56.8016 15.5167 56.3675 15.4323 55.9645 15.4464C55.9141 15.4464 55.8521 15.5132 55.8172 15.5624C55.5924 15.8859 55.2397 15.805 54.9102 15.812C54.5149 15.8226 54.3327 16.3113 53.8521 16.1953C53.701 16.1601 53.4297 16.241 53.3328 16.3535C52.9219 16.8387 52.3987 16.9723 51.7514 16.9301C51.2437 16.8949 50.3096 17.2395 49.86 17.6614C49.5422 17.9637 49.2244 18.0516 48.798 18.0341C48.55 18.0235 48.2864 17.9497 48.0423 18.1606C47.7671 18.3997 47.5733 18.8638 47.1082 18.7443C46.5462 18.6036 46.3485 19.1802 45.8447 19.1486C45.5462 19.1275 44.3563 19.7041 44.147 19.8658C43.9377 20.0311 42.7634 20.5479 42.4494 20.6112C42.2673 20.6464 42.0851 20.7061 41.9184 20.78C41.3564 21.0331 40.7944 21.2933 40.2402 21.5605C39.6278 21.8558 38.9495 22.0351 38.4108 22.45C37.593 22.2215 37.2674 22.9211 36.7093 23.1813C36.376 23.336 36.0194 23.5118 35.659 23.5364C35.2908 23.561 35.0388 23.6665 34.7985 23.9021C34.5272 24.1693 34.221 24.4119 33.9303 24.665C33.4652 24.5209 33.2986 25.0096 32.8839 25.0623C32.473 25.115 32.1164 25.4455 31.7095 25.5932C31.2134 25.7725 30.8335 26.0643 30.4266 26.3667C30.0933 26.6163 29.5855 26.6585 29.3142 27.0382C29.0197 27.4496 28.5352 27.6324 28.0662 27.8293C28.2367 28.4235 27.5546 28.2336 27.3686 28.4621C27.1011 28.7926 26.6205 28.6415 26.357 28.9649C26.0779 29.306 25.7213 29.6048 25.357 29.879C25.0702 30.0935 24.6632 30.192 24.4307 30.4381C24.2989 30.5752 24.4423 30.9479 24.0508 30.9338C23.7175 30.9233 23.5974 31.1518 23.4036 31.303C23.2524 31.4225 23.1168 31.651 22.9617 31.6581C22.6672 31.6757 22.4889 31.7987 22.2641 31.9393C21.9346 32.1433 22.0509 32.4913 21.8416 32.7128C21.0199 32.646 21.1595 33.4406 20.737 33.7571C20.1944 34.1614 19.5355 34.5446 19.4231 35.2794C18.3611 36.0389 17.9541 37.1569 17.3805 38.2011C17.1596 38.6054 16.8728 39.0098 16.71 39.4246C16.5433 39.8465 16.8418 40.4056 16.272 40.7361C16.272 41.0419 16.2992 41.3549 16.2643 41.6572C16.2216 42.0088 16.4697 42.4237 16.1092 42.6979C15.6286 43.0636 16.2759 43.1444 16.2759 43.38C16.2682 43.932 16.3224 44.491 16.2604 45.0395C16.1984 45.6055 16.9154 45.9501 16.6867 46.5513C16.4968 47.0541 17.2875 47.3389 17.0976 47.8768C17.0666 47.9647 17.1247 48.1229 17.2022 48.1967C17.5743 48.5554 17.9425 48.9175 18.3534 49.241C18.7642 49.5609 18.7526 50.1059 19.2022 50.4082C19.5781 50.6614 19.8804 51.0094 20.2176 51.3118C20.6013 51.6564 20.9851 52.0044 21.3726 52.349C21.954 52.2787 22.1052 52.8834 22.5044 52.9819C23.0702 53.119 23.3881 53.4706 23.764 53.794C24.5353 53.6815 24.6632 54.7011 25.4423 54.5781C26.5701 55.3269 27.9538 55.6574 29.0817 56.4063C29.477 56.3254 29.7018 56.7614 29.9227 56.7474C30.3995 56.7157 30.5584 57.2607 30.9731 57.1446C31.57 56.9794 31.8684 57.5419 32.4343 57.5666C32.9536 57.5876 33.5428 57.8162 33.942 58.2346C34.473 58.0693 34.659 58.8217 35.1822 58.6248C35.7326 58.4209 35.8799 59.0889 36.4419 59.0362C37.0543 58.9799 37.7945 58.7057 38.3449 59.2753C39.0077 59.3069 39.6743 59.335 40.3371 59.3667C40.3991 59.3667 40.4883 59.3737 40.5193 59.4089C40.9805 59.9503 41.6355 59.6585 42.2052 59.7323C42.4649 59.7675 42.8525 59.6831 42.9688 59.8132C43.3486 60.2421 43.8757 60.1859 44.2633 60.0734C44.9145 59.887 45.178 60.5304 45.7323 60.4812C46.2012 60.439 46.6818 60.4707 47.1547 60.4707C47.5617 60.4707 47.9841 60.534 48.3717 60.4566C48.9104 60.3476 49.1934 60.8047 49.6313 60.8328C50.2399 60.8715 50.8522 60.875 51.4607 60.8328C52.015 60.7941 52.3289 61.3215 52.9258 61.2301C53.5188 61.1387 54.1428 61.209 54.7513 61.2125C54.8831 61.2125 55.0769 61.1774 55.1389 61.2406C55.8094 61.9157 56.6737 61.4481 57.4295 61.5746C57.7551 61.6274 58.2396 61.4903 58.3985 61.6485C58.8597 62.1055 59.3946 61.9262 59.9062 61.9438C60.6504 61.9719 61.3984 61.9438 62.1425 61.9544C62.4022 61.9544 62.7898 61.9051 62.9022 62.0317C63.282 62.4606 63.7665 62.3024 64.2084 62.313C65.2238 62.3341 66.2432 62.32 67.2587 62.32C68.1268 63.0302 69.1811 62.5696 70.1423 62.6786C70.6771 62.7384 71.3167 62.531 71.743 62.7349C72.1771 62.9423 72.5453 63.083 73.0259 63.0654C73.4987 63.0443 73.9755 63.0619 74.4483 63.0619C75.6692 63.0619 76.8901 63.0443 78.111 63.0724C78.549 63.083 78.828 63.54 79.3706 63.4521C79.8978 63.3642 80.452 63.4345 80.9946 63.4345H84.0449C84.1805 63.4345 84.3162 63.4345 84.4519 63.4345C84.5836 63.4381 84.7813 63.3994 84.8394 63.4627C85.3743 64.0393 86.0913 63.7404 86.727 63.7932C87.1959 63.8318 87.6766 63.8002 88.1494 63.8002H89.7773C90.2501 63.8002 90.7733 63.9127 91.1881 63.7721C91.688 63.5998 92.0485 64.4542 92.5097 63.8424C92.7927 63.9338 92.9516 64.2116 93.3391 64.1834C94.0794 64.1307 94.8313 64.1694 95.5755 64.1694H99.8467C100.525 64.1694 101.226 64.2678 101.874 64.1448C102.672 63.9901 103.164 64.7425 103.955 64.5596C104.401 64.4541 104.901 64.542 105.374 64.542H111.478C111.951 64.542 112.428 64.542 112.9 64.542C113.443 64.542 113.986 64.542 114.528 64.542C114.893 65.2276 115.249 64.4436 115.617 64.535C115.745 64.5667 115.939 64.4858 116.017 64.5491C116.637 65.0378 117.381 64.9077 118.094 64.9077C123.315 64.9112 128.536 64.9077 133.756 64.9077C134.163 64.9077 134.57 64.9112 134.977 64.9077C135.38 64.9042 135.772 64.8655 136.066 65.2241C136.121 65.2944 136.469 65.2628 136.586 65.1749C136.799 65.0132 136.981 64.8725 137.283 64.9042C137.853 64.9675 138.508 64.7038 138.942 65.2733C139.307 64.5877 139.663 65.3191 140.031 65.2909C140.706 65.2382 141.388 65.298 142.062 65.2628C142.272 65.2523 142.62 64.9604 142.655 64.9956C143.155 65.523 143.81 65.2628 144.372 65.2628C152.713 65.2839 161.054 65.2769 169.395 65.2769C170.139 65.2769 170.895 65.3331 171.631 65.2628C172.395 65.189 173.259 65.6109 173.918 64.9323C173.918 64.9323 174.019 64.985 174.053 65.0237C174.387 65.3999 174.681 65.3507 175.049 65.0237C175.259 64.8374 175.643 65.4913 175.898 64.9675C175.995 65.0167 176.108 65.0483 176.181 65.1151C176.398 65.3155 176.639 65.3612 176.875 65.1819C177.476 64.7214 178.061 64.7635 178.681 65.1503C178.825 65.2417 179.166 65.312 179.208 65.2593C179.545 64.8268 180.026 64.9112 180.487 64.9112C183.945 64.9112 187.406 64.9112 190.863 64.9112C191.196 64.9112 191.677 65.0167 191.84 64.8585C192.359 64.3592 192.975 64.5631 193.541 64.5526C195.44 64.5245 197.339 64.542 199.239 64.5385C199.502 64.5385 199.89 64.5983 200.006 64.4717C200.448 63.9971 201.002 64.208 201.51 64.1799C202.049 64.1483 202.595 64.1729 203.138 64.1729C204.006 63.4627 205.06 63.9338 206.021 63.8107C206.421 63.7615 206.839 63.8354 207.238 63.7967C207.808 63.7404 208.475 64.0463 208.909 63.4451C209.587 63.4416 210.265 63.4662 210.936 63.417C211.165 63.3994 211.254 62.9915 211.579 63.0724C211.754 63.1146 211.901 63.2552 212.068 63.3326C212.397 63.4873 212.413 63.0583 212.668 63.0619C213.211 63.0654 213.777 62.974 214.288 63.0865C214.912 63.2271 215.238 62.7349 215.754 62.6892C216.788 62.6013 217.889 62.974 218.839 62.3235C219.312 62.3235 219.8 62.2673 220.261 62.3376C220.839 62.4255 221.242 62.095 221.73 61.979C222.172 61.87 222.684 61.8946 223.145 61.9719C223.73 62.0669 224.125 61.7258 224.614 61.6063C224.994 61.5114 225.424 61.5887 225.827 61.5887C226.3 61.5887 226.788 61.5289 227.249 61.6063C227.734 61.6872 227.877 61.216 228.303 61.2055C229.075 61.1879 229.912 61.4516 230.575 60.8504C231.117 60.8504 231.683 60.759 232.195 60.8715C232.869 61.0191 233.237 60.4179 233.865 60.4636C234.365 60.4988 234.962 60.6781 235.334 60.1402C235.737 60.1296 236.156 60.0558 236.54 60.1296C237.024 60.221 237.195 59.7745 237.594 59.7394C238.23 59.6796 238.958 59.9995 239.462 59.3772C240.005 59.3772 240.551 59.3386 241.09 59.3878C241.648 59.4405 241.912 58.8393 242.559 58.9764C243.167 59.103 243.834 59.0995 244.439 58.667C244.753 58.442 245.338 58.8112 245.76 58.4561C246.206 58.0799 246.787 58.3541 247.299 58.2697C247.423 58.2486 247.609 58.2521 247.659 58.1818C247.946 57.7881 248.388 57.8513 248.756 57.9181C249.245 58.006 249.411 57.5666 249.811 57.5208C250.384 57.454 250.981 57.7213 251.539 57.2888C252.027 56.9126 252.892 57.44 253.338 56.7931C253.783 56.7157 254.291 56.9899 254.679 56.6173C255.078 56.2376 255.57 56.4555 256.016 56.4344C256.376 56.4204 256.613 56.2868 256.903 56.1215C257.151 55.9809 257.554 56.0301 257.88 56.0618C258.322 56.1039 258.457 55.5977 258.938 55.6645C259.299 55.7137 259.702 55.7875 260.062 55.4605C260.423 55.1301 260.961 55.3902 261.407 55.3058C261.519 55.2848 261.589 55.0879 261.698 55.0633C262.256 54.9507 262.806 54.8347 263.31 54.5781C264.139 54.7749 264.752 54.0683 265.55 54.1421C265.818 53.6217 266.484 54.0366 266.779 53.7378C267.178 53.3334 267.651 53.5303 268.089 53.467C268.209 53.4495 268.384 53.4284 268.438 53.3545C268.728 52.9537 269.302 53.2702 269.519 53.0733C269.922 52.7111 270.341 52.7287 270.806 52.7322C270.938 52.7322 271.151 52.7604 271.19 52.7006C271.418 52.349 271.945 52.465 272.178 52.1802C272.511 51.7724 273.069 52.1802 273.453 51.8111C273.736 51.5368 274.228 51.2731 274.608 51.2942C275.143 51.3224 275.445 50.8407 275.86 50.911C276.41 51.0024 276.662 50.5278 277.12 50.5172C278.108 50.4961 278.79 49.698 279.798 49.6734C280.042 49.6664 280.247 49.2199 280.527 49.0652C280.794 48.9175 281.158 49.1249 281.48 48.9281C282.371 48.3866 283.395 48.0631 284.325 47.585C284.546 47.4725 284.821 47.4092 284.96 47.2158C285.205 46.8783 285.643 46.8924 285.945 46.692C286.309 46.4529 286.522 46.0099 287.077 46.0485C287.705 45.3383 288.755 45.1133 289.367 44.3609C289.767 43.8722 290.313 43.482 290.79 43.046C291.03 42.828 291.278 42.6206 291.507 42.392C291.724 42.1741 292.038 41.9526 292.092 41.6959C292.169 41.3408 292.425 41.1509 292.673 40.9962C293.007 40.7888 292.859 40.4442 293.08 40.2087C293.282 40.0012 293.371 39.7059 293.526 39.4598C293.902 38.8445 294.406 38.2117 294.127 37.4909C293.956 37.0444 294.979 36.7034 294.166 36.3061C294.728 35.9721 294.542 35.4552 294.565 34.9876L294.569 34.97ZM123.276 3.61547C123.032 3.61547 122.892 3.59085 122.768 3.6225C122.656 3.65062 122.559 3.73852 122.454 3.80181C122.559 3.86158 122.656 3.96002 122.768 3.9776C122.962 4.00573 123.168 4.00573 123.361 3.9776C123.474 3.96002 123.571 3.86158 123.675 3.80181C123.513 3.72797 123.35 3.65062 123.276 3.61898V3.61547Z" fill="#5377FC"/>
</svg>
