<svg width="400" height="375" viewBox="0 0 400 375" fill="none" xmlns="http://www.w3.org/2000/svg">
<rect x="69" y="55.5" width="262" height="264" rx="131" fill="#EAF9FF"/>
<path d="M336.65 121.931C339.33 111.215 341.697 101.038 338.545 89.2899C334.651 74.772 322.6 60.7267 306.696 54.2338C292.72 48.5249 275.781 48.5434 262.616 55.4035C259.699 56.4082 256.997 57.808 254.54 59.5571C253.116 60.5808 251.806 61.7176 250.616 62.9698C250.592 62.9903 250.577 63.0132 250.553 63.0337C250.467 63.0821 250.382 63.1306 250.291 63.1959C248.655 64.4953 247.22 66.0137 246.054 67.6981C244.916 69.3451 243.825 71.2769 244.613 73.3354C245.287 75.0904 246.783 76.4232 248.265 77.6435C249.994 79.0778 251.843 80.4095 253.808 81.5476C254.749 82.0912 255.728 82.5914 256.73 83.0435C257.182 83.3328 257.656 83.574 258.163 83.7612C258.253 83.8588 258.354 83.9503 258.479 84.0214C259.567 84.7149 260.727 85.3744 261.979 85.7064C262.22 85.7192 262.459 85.7679 262.698 85.8167C263.09 85.8991 263.487 85.9013 263.884 85.8676C264.679 85.8001 265.322 85.4726 265.907 84.9933C266.598 84.4258 267.187 83.7393 267.856 83.1564C268.41 82.4965 269.004 81.8567 269.611 81.2383C275.343 78.2677 280.083 73.2903 287.045 73.8964C297.247 74.7926 301.621 81.5572 309.049 88.8588C315.251 94.9575 314.975 107.667 311.043 115.369C307.589 122.137 304.589 129.059 299.301 135.35C297.166 137.887 295.813 140.787 290.734 141.649C285.108 142.593 275.764 141.466 269.809 138.488C267.061 137.113 263.845 134.539 262.417 132.22C259.129 126.9 258.722 121.479 258.256 115.943C258.624 112.206 259.36 108.509 259.799 104.774C259.974 103.311 260.119 101.821 260.155 100.337C260.225 99.7953 260.304 99.2558 260.41 98.715C260.455 98.5554 260.501 98.3874 260.546 98.2279C260.8 97.3208 261.113 96.3941 261.188 95.4462C261.191 95.4378 261.193 95.4294 261.195 95.421C261.089 94.7031 260.93 93.9796 260.805 93.2654C260.793 93.2439 260.773 93.2201 260.754 93.1879C260.562 92.9712 260.359 92.7605 260.146 92.5559C259.6 92.0229 259.062 91.4923 258.607 90.894C258.087 90.3956 257.533 89.9237 256.948 89.4976C256.826 89.3187 256.675 89.1496 256.468 89.0193C255.492 88.3753 254.517 87.7313 253.541 87.0874C253.413 86.9972 253.285 86.907 253.157 86.8168C251.093 85.4159 248.873 84.089 246.491 83.2147C245.053 82.5139 243.478 81.8834 241.899 81.623C241.494 81.555 241.09 81.5146 240.685 81.51C240.69 81.4932 240.692 81.4848 240.705 81.4704C239.702 81.7967 238.652 82.0647 237.799 82.632C237.199 83.0347 236.692 83.5542 236.248 84.1092C233.946 89.1797 232.248 94.5096 231.241 99.9872C230.789 102.442 230.371 104.969 230.569 107.46C230.559 107.494 230.567 107.532 230.566 107.568C230.559 107.72 230.585 107.854 230.624 107.974C230.619 107.991 230.629 108.02 230.632 108.04C230.127 113.594 230.39 119.4 231.216 124.647C233.317 138.057 240.989 148.941 252.663 155.971C265.704 163.828 282.346 165.519 295.25 164.146C308.151 162.781 314.002 158.323 321.86 150.522C329.713 142.711 333.962 132.643 336.636 121.917L336.65 121.931ZM249.37 71.7221C249.235 71.0415 249.316 70.3308 249.51 69.6696C249.407 70.329 249.36 71.0132 249.37 71.7221ZM240.28 86.7669C240.201 86.8261 240.123 86.8769 240.044 86.9361C240.081 86.8652 240.125 86.805 240.163 86.7341C240.197 86.7434 240.239 86.7552 240.272 86.7645L240.28 86.7669Z" fill="#5377FC"/>
<path d="M288.087 52.7986C289.568 52.4068 291.24 52.4666 292.52 51.7288C293.8 50.9911 294.603 49.4768 295.584 48.3565C296.565 47.2363 297.893 46.4575 298.554 45.1932C299.214 43.9289 299.097 42.3116 299.533 40.9482C300.056 39.3016 301.124 37.7436 301.299 36.0178C301.475 34.2921 300.746 32.6033 300.426 30.8748C300.099 29.1079 300.073 27.0996 299.096 25.4951C298.118 23.8906 296.419 23.0262 294.9 21.9044C293.381 20.7825 291.791 19.2695 289.892 18.8291C287.891 18.3692 285.917 19.0671 284.214 19.8951C279.407 22.2368 275.411 25.5841 273.447 30.0606C271.465 34.5685 271.715 39.8091 273.146 44.891C273.997 47.918 275.776 50.8873 278.71 52.4048C281.44 53.811 284.819 53.6691 288.097 52.7925L288.087 52.7986Z" fill="white"/>
<path d="M299.521 28.6566C298.14 25.6535 293.732 24.3397 290.42 25.2704C287.098 26.2071 284.801 28.8067 283.313 31.5783C280.872 36.1118 280.167 41.6377 282.356 46.5602C283.261 48.588 284.863 50.6387 287.209 51.2222C288.915 51.6446 291.769 51.5098 293.16 50.6671C294.551 49.8244 295.556 48.9735 296.538 47.7538C298.873 44.8569 299.964 41.0508 300.845 37.5119C301.726 33.973 301.237 29.9424 298.764 26.8423" fill="black"/>
<path d="M322.522 62.4255C324.004 62.0338 325.675 62.0935 326.956 61.3558C328.236 60.618 329.039 59.1037 330.02 57.9835C331.001 56.8632 332.329 56.0844 332.989 54.8202C333.65 53.5559 333.533 51.9386 333.968 50.5752C334.492 48.9286 335.559 47.3706 335.735 45.6448C335.91 43.919 335.182 42.2303 334.862 40.5017C334.542 38.7732 334.509 36.7266 333.531 35.1221C332.554 33.5176 330.855 32.6532 329.336 31.5313C327.817 30.4095 326.227 28.8964 324.328 28.4561C322.326 27.9961 320.353 28.6941 318.65 29.522C313.843 31.8638 309.847 35.211 307.883 39.6876C305.9 44.1954 306.15 49.436 307.582 54.518C308.433 57.5449 310.212 60.5143 313.145 62.0317C315.875 63.4379 319.255 63.2961 322.533 62.4195L322.522 62.4255Z" fill="white"/>
<path d="M333.956 38.2835C332.575 35.2804 328.167 33.9666 324.856 34.8973C321.534 35.8341 319.237 38.4337 317.749 41.2052C315.308 45.7388 314.603 51.2647 316.792 56.1872C317.697 58.2149 319.299 60.2656 321.645 60.8491C323.35 61.2715 326.18 61.483 327.571 60.6403C328.962 59.7976 329.305 59.4409 330.287 58.2212C332.623 55.3244 334.4 50.6778 335.281 47.1389C336.162 43.6 335.673 39.5694 333.2 36.4692" fill="black"/>
<path d="M310.047 34.5606C305.828 39.901 304.358 46.9697 305.803 53.5858C306.42 56.3843 307.726 58.8777 309.902 60.781C312.052 62.6497 314.689 63.8397 317.518 64.214C320.591 64.6203 323.668 63.9139 326.424 62.5473C329.444 61.0461 331.805 58.6365 333.425 55.6844C336.664 49.7803 337.929 42.0925 334.852 35.8895C333.321 32.8083 330.762 30.2728 327.649 28.8141C324.537 27.3553 321.066 26.7564 317.938 28.2272C316.608 28.8515 317.733 30.8323 319.053 30.214C321.285 29.1718 324.006 29.7062 326.182 30.6405C328.614 31.6917 330.722 33.4493 332.133 35.7001C335.401 40.897 334.653 47.416 332.305 52.8449C331.133 55.5509 329.385 58.0595 326.892 59.6806C324.609 61.1615 321.88 62.11 319.146 62.0703C314.543 62.0058 309.784 59.0727 308.403 54.521C306.448 48.0795 307.853 41.0196 312.007 35.7514C312.386 35.2687 312.102 34.4741 311.623 34.1862C311.045 33.8343 310.44 34.0909 310.062 34.5737L310.047 34.5606Z" fill="black"/>
<path d="M275.611 24.9336C271.392 30.2741 269.922 37.3428 271.367 43.9589C271.984 46.7574 273.29 49.2508 275.466 51.154C277.642 53.0573 280.253 54.2127 283.082 54.5871C286.155 54.9934 289.232 54.287 291.988 52.9204C295.007 51.4191 297.369 49.0095 298.989 46.0575C302.228 40.1533 303.493 32.4656 300.415 26.2626C298.885 23.1814 296.326 20.6459 293.213 19.1871C290.101 17.7283 286.63 17.1294 283.502 18.6002C282.172 19.2245 283.297 21.2053 284.616 20.5871C286.849 19.5449 289.57 20.0792 291.746 21.0136C294.178 22.0648 296.286 23.8224 297.697 26.0731C300.965 31.27 300.217 37.7891 297.869 43.2179C296.697 45.9239 294.949 48.4325 292.456 50.0537C290.173 51.5346 287.444 52.483 284.71 52.4434C280.107 52.3789 275.348 49.4457 273.967 44.894C272.012 38.4525 273.417 31.3927 277.571 26.1245C277.95 25.6417 277.666 24.8471 277.187 24.5592C276.609 24.2073 276.004 24.464 275.626 24.9467L275.611 24.9336Z" fill="black"/>
<path d="M340.173 250.93C325.806 261.88 314.885 263.579 299.622 252.997C295.463 250.115 291.608 247.329 287.379 251.517C283.167 255.686 285.717 259.62 288.649 263.834C298.848 278.498 298.039 293.443 286.987 304.428C275.414 315.939 259.925 317.218 245.75 307.118C241.843 304.332 238.066 302.431 233.88 304.157C229.329 306.032 231.818 310.613 231.67 314.091C231.505 317.981 221.237 330.341 217.869 330.184C214.005 330.008 212.152 326.863 210.612 323.797C205.208 313.11 208.567 294.959 217.216 287.6C228.416 278.078 243.365 277.035 254.852 284.981C255.609 285.506 256.218 286.312 257.027 286.707C261.335 288.8 266.208 293.329 270.393 288.581C274.318 284.131 271.986 279.059 268.235 274.425C260.229 264.517 260.647 244.465 268.479 236.309C280.548 223.747 297.081 222.073 310.152 232.227C314.041 235.249 318.34 237.544 322.935 235.415C327.451 233.322 326.259 229.169 325.31 224.903C324.188 219.892 336.701 208.355 341.443 209.415C343.366 209.844 344.376 211.474 345.316 213.156C352.233 225.464 350.128 241.109 340.181 250.912L340.173 250.93Z" fill="#373E51"/>
<path d="M329.948 230.641C331.271 229.861 332.898 229.467 333.934 228.407C334.969 227.347 335.335 225.665 335.979 224.316C336.623 222.967 337.693 221.854 337.989 220.453C338.285 219.051 337.736 217.518 337.789 216.081C337.85 214.347 338.459 212.551 338.163 210.834C337.867 209.117 336.71 207.68 335.935 206.095C335.143 204.474 334.578 202.538 333.203 201.25C331.828 199.963 329.957 199.586 328.191 198.911C326.424 198.237 324.484 197.203 322.534 197.291C320.481 197.387 318.766 198.596 317.348 199.857C313.345 203.423 310.395 207.742 309.708 212.604C309.02 217.466 310.665 222.503 313.415 227.032C315.051 229.73 317.566 232.121 320.803 232.796C323.814 233.418 327.033 232.367 329.957 230.632L329.948 230.641Z" fill="white"/>
<path d="M334.369 205.067C332.228 202.536 327.625 202.457 324.684 204.253C321.734 206.057 320.22 209.194 319.532 212.277C318.401 217.323 319.21 222.86 322.647 227.029C324.066 228.746 326.163 230.297 328.582 230.227C330.34 230.174 333.055 229.272 334.169 228.081C335.282 226.889 336.022 225.794 336.64 224.349C338.111 220.915 338.137 216.938 338.032 213.276C337.928 209.614 336.37 205.847 333.151 203.517" fill="black"/>
<path d="M365.739 230.641C367.061 229.861 368.689 229.467 369.724 228.407C370.76 227.347 371.125 225.665 371.769 224.316C372.413 222.967 373.483 221.854 373.779 220.453C374.075 219.051 373.527 217.518 373.579 216.081C373.64 214.347 374.249 212.551 373.953 210.834C373.657 209.117 372.5 207.68 371.726 206.095C370.951 204.509 370.368 202.538 368.993 201.25C367.618 199.963 365.747 199.586 363.981 198.911C362.215 198.237 360.274 197.203 358.325 197.291C356.271 197.387 354.557 198.596 353.139 199.857C349.136 203.423 346.186 207.742 345.498 212.604C344.802 217.501 346.456 222.503 349.205 227.032C350.841 229.73 353.356 232.121 356.593 232.796C359.604 233.418 362.824 232.367 365.747 230.632L365.739 230.641Z" fill="white"/>
<path d="M370.159 205.067C368.019 202.536 363.415 202.457 360.474 204.253C357.524 206.057 356.01 209.194 355.323 212.277C354.192 217.323 355.001 222.86 358.438 227.029C359.856 228.746 361.954 230.297 364.373 230.227C366.13 230.174 368.915 229.614 370.029 228.422C371.143 227.231 371.378 226.793 371.995 225.347C373.466 221.913 373.927 216.938 373.823 213.276C373.718 209.614 372.161 205.847 368.941 203.517" fill="black"/>
<path d="M346.203 207.058C343.575 213.366 344.063 220.602 347.239 226.611C348.587 229.152 350.519 231.21 353.13 232.463C355.706 233.69 358.568 234.128 361.396 233.725C364.468 233.287 367.244 231.771 369.533 229.704C372.039 227.435 373.666 224.465 374.432 221.171C375.963 214.583 375.111 206.804 370.473 201.636C368.167 199.069 365.016 197.308 361.623 196.739C358.229 196.169 354.722 196.529 352.103 198.797C350.989 199.761 352.608 201.373 353.713 200.418C355.584 198.806 358.351 198.587 360.7 198.903C363.328 199.262 365.834 200.392 367.801 202.188C372.352 206.331 373.388 212.84 372.587 218.727C372.187 221.662 371.177 224.561 369.211 226.804C367.409 228.854 365.034 230.51 362.389 231.21C357.933 232.393 352.555 230.842 349.997 226.813C346.377 221.11 345.829 213.9 348.413 207.68C348.648 207.111 348.161 206.419 347.622 206.27C346.969 206.086 346.456 206.498 346.221 207.067L346.203 207.058Z" fill="black"/>
<path d="M310.413 207.058C307.785 213.366 308.272 220.602 311.448 226.611C312.797 229.152 314.729 231.21 317.339 232.463C319.95 233.716 322.778 234.128 325.606 233.725C328.678 233.287 331.454 231.771 333.742 229.704C336.248 227.435 337.876 224.465 338.641 221.171C340.173 214.583 339.32 206.804 334.682 201.636C332.376 199.069 329.226 197.308 325.832 196.739C322.439 196.169 318.932 196.529 316.312 198.797C315.199 199.761 316.817 201.373 317.922 200.418C319.793 198.806 322.56 198.587 324.91 198.903C327.538 199.262 330.044 200.392 332.011 202.188C336.562 206.331 337.597 212.84 336.797 218.727C336.396 221.662 335.387 224.561 333.42 226.804C331.619 228.854 329.243 230.51 326.598 231.21C322.143 232.393 316.765 230.842 314.207 226.813C310.587 221.11 310.038 213.9 312.623 207.68C312.858 207.111 312.371 206.419 311.831 206.27C311.178 206.086 310.665 206.498 310.43 207.067L310.413 207.058Z" fill="black"/>
<path d="M133.825 310.521C129.712 312.177 126.615 314.531 122.18 314.469L123.035 314.31C115.503 316.603 107.328 315.461 99.8462 313.302L100.701 313.143C90.3334 309.745 80.3379 303.612 76.537 292.77L76.6979 293.629C76.3761 291.912 75.1996 290.354 74.0231 288.797C71.9919 287.398 75.783 284.026 72.0422 282.947C72.143 274.043 70.2125 263.741 75.7636 255.599C76.2966 253.722 76.8296 251.846 77.5235 250.828L76.8296 251.846C83.9293 242.526 92.0447 233.906 104.172 232.533L103.317 232.692C110.849 230.4 118.009 230.842 125.491 233.001L124.636 233.161C131.957 234.461 137.196 238.815 142.435 243.17L141.419 242.47C144.466 244.568 145.27 248.86 147.463 251.117L147.302 250.258C149.655 253.374 148.589 257.126 150.781 259.383L150.62 258.525C151.103 261.1 150.73 263.835 151.213 266.41L151.052 265.552C152.229 267.109 149.825 268.446 150.147 270.163L151.002 270.004C149.614 272.039 149.081 273.915 146.678 275.252L147.532 275.093C144.113 275.73 141.871 277.925 138.985 276.686L139.84 276.527C138.291 277.704 136.26 276.306 134.55 276.624L135.405 276.465C131.986 277.102 129.1 275.864 125.359 274.784L126.214 274.625C124.343 274.085 121.618 273.704 119.587 272.306L120.603 273.005C115.846 271.227 112.799 269.129 108.737 266.333L109.752 267.032C107.56 264.775 106.917 261.341 106.434 258.766L106.595 259.624C106.434 258.766 106.273 257.907 106.967 256.889C106.967 256.889 101.999 258.704 107.128 257.748C107.128 257.748 107.822 256.73 107.661 255.871C107.661 255.871 102.693 257.686 107.822 256.73C108.677 256.571 108.516 255.712 109.21 254.694C109.21 254.694 104.242 256.509 109.371 255.553C110.225 255.393 110.919 254.376 111.774 254.216L110.919 254.376C114.499 254.597 117.385 255.836 119.577 258.092L118.562 257.393C119.577 258.092 120.754 259.65 121.769 260.349L120.754 259.65C123.107 262.765 124.605 266.04 125.249 269.474L125.088 268.615C126.586 271.89 125.359 274.784 124.293 278.537C123.438 278.696 123.921 281.271 122.372 282.449L123.066 281.431C119.969 283.785 118.048 287.697 113.774 288.494L114.629 288.334C111.21 288.972 107.791 289.609 104.211 289.388C104.211 289.388 106.031 294.38 105.066 289.229C97.906 288.787 93.2 282.556 89.5096 277.025C86.8348 272.193 80.4192 266.281 74.2247 270.99C71.9919 287.398 87.0151 301.479 101.817 304.938C116.62 308.398 132.056 301.078 139.206 287.307C143.741 278.465 143.681 268.703 141.057 259.419C138.271 249.276 130.519 240.949 120.312 238.409C112.83 236.25 104.444 238.702 98.4098 244.269C90.2945 252.89 89.9825 265.387 95.332 275.051C106.403 291.645 126.978 297.583 145.893 299.387C155.617 299.351 164.215 293.306 167.735 283.765C168.268 281.889 168.64 279.154 169.173 277.278C172.632 257.975 164.498 238.168 148.087 226.123C140.977 221.229 133.174 217.353 124.838 215.354C116.501 213.354 107.793 214.089 99.2452 215.682C88.2942 218.612 78.6805 223.958 69.7104 232.738C52.7859 250.998 49.4366 275.611 58.9088 297.834C66.4001 314.206 80.086 325.871 96.9195 330.729C98.7899 331.269 101.515 331.649 103.385 332.189C111.561 333.33 119.576 333.613 127.107 331.32C134.479 328.169 139.497 321.903 139.758 313.858C139.437 312.141 138.421 311.442 137.244 309.884C136.229 309.185 135.213 308.486 133.825 310.521Z" fill="#FFC240"/>
<path d="M161.343 288.653C161.205 289.567 161.018 290.455 160.79 291.315C159.591 291.147 158.266 291.35 156.852 292.111C149.556 295.994 145.768 303.302 138.961 307.574C138.739 307.713 138.504 307.828 138.281 307.958C134.539 309.42 130.517 310.383 126.462 311.023C125.156 311.231 123.86 311.349 122.566 311.43C118.315 311.405 114.02 310.908 109.997 310.495C109.212 310.41 108.5 310.481 107.836 310.622C101.586 309.841 95.3594 308.95 88.9723 309.563C82.3769 310.197 82.4675 318.47 86.3825 321.943C100.001 334.001 126.498 330.714 142.346 325.636C159.003 320.301 172.294 307.579 174.948 289.83C176.257 281.092 162.639 279.988 161.345 288.661L161.343 288.653Z" fill="#FFC240"/>
<path d="M91.6548 230.078C92.8109 229.072 94.3369 228.387 95.1594 227.159C95.9819 225.93 96.032 224.215 96.4168 222.775C96.8016 221.335 97.6486 220.049 97.6819 218.621C97.7151 217.194 96.895 215.792 96.6825 214.374C96.4238 212.663 96.6923 210.792 96.0864 209.163C95.4804 207.535 94.0798 206.339 93.0279 204.927C91.9759 203.515 91.0413 201.69 89.4543 200.68C87.8673 199.67 85.9604 199.643 84.1013 199.305C82.2423 198.968 80.1464 198.31 78.2478 198.753C76.2483 199.224 74.7864 200.722 73.6248 202.218C70.3477 206.445 68.2431 211.218 68.4607 216.108C68.6762 221.034 71.2188 225.634 74.7516 229.568C76.854 231.913 79.7635 233.796 83.0671 233.864C86.1388 233.923 89.1083 232.303 91.6618 230.068L91.6548 230.078Z" fill="white"/>
<path d="M90.8181 202.387C88.2505 200.298 83.7143 201.063 81.155 203.362C78.5888 205.671 77.6775 209.021 77.5685 212.169C77.384 217.321 79.1956 222.598 83.3377 226.055C85.0462 227.478 87.391 228.614 89.7543 228.102C91.4713 227.729 93.9724 226.347 94.8477 224.976C95.723 223.604 96.2485 222.396 96.5899 220.866C97.4038 217.231 96.6991 213.329 95.9241 209.76C95.149 206.191 92.9273 202.784 89.3367 201.09" fill="black"/>
<path d="M126.811 223.524C127.967 222.518 129.493 221.833 130.316 220.605C131.138 219.376 131.188 217.661 131.573 216.221C131.958 214.781 132.805 213.495 132.838 212.067C132.871 210.64 132.051 209.238 131.839 207.82C131.58 206.109 131.849 204.238 131.243 202.609C130.637 200.981 129.236 199.785 128.184 198.373C127.109 196.93 126.198 195.136 124.611 194.126C123.024 193.116 121.117 193.089 119.258 192.752C117.399 192.414 115.303 191.756 113.404 192.199C111.405 192.67 109.943 194.168 108.781 195.664C105.504 199.891 103.399 204.664 103.617 209.554C103.832 214.481 106.375 219.08 109.908 223.014C112.01 225.359 114.92 227.242 118.223 227.31C121.295 227.369 124.265 225.749 126.818 223.514L126.811 223.524Z" fill="white"/>
<path d="M125.974 195.833C123.407 193.744 118.871 194.509 116.311 196.808C113.745 199.117 112.834 202.467 112.725 205.615C112.54 210.767 114.352 216.044 118.494 219.501C120.202 220.924 122.547 222.06 124.911 221.548C126.628 221.175 129.26 220.115 130.135 218.744C131.01 217.372 131.161 216.9 131.502 215.37C132.316 211.736 131.855 206.775 131.08 203.206C130.305 199.637 128.084 196.23 124.493 194.536" fill="black"/>
<path d="M103.291 203.991C101.868 210.653 103.675 217.655 107.899 222.963C109.69 225.205 111.966 226.869 114.76 227.618C117.555 228.368 120.408 228.254 123.112 227.341C126.049 226.349 128.497 224.356 130.366 221.91C132.411 219.228 133.464 216.02 133.611 212.652C133.906 205.916 131.639 198.448 126.134 194.233C123.398 192.14 119.98 190.991 116.542 191.054C113.201 191.117 109.725 192.112 107.569 194.815C106.652 195.963 108.538 197.247 109.448 196.108C110.99 194.186 113.668 193.465 116.033 193.344C118.681 193.214 121.35 193.863 123.612 195.263C128.843 198.49 131.055 204.679 131.35 210.594C131.496 213.544 131.037 216.57 129.517 219.128C128.124 221.467 126.095 223.524 123.625 224.695C119.466 226.67 113.898 226.135 110.645 222.655C106.042 217.729 104.18 210.764 105.576 204.196C105.702 203.595 105.097 203.006 104.539 202.958C103.865 202.898 103.436 203.395 103.31 203.996L103.291 203.991Z" fill="black"/>
<path d="M68.1346 210.545C66.7116 217.207 68.5191 224.209 72.7425 229.517C74.534 231.759 76.8096 233.423 79.6039 234.172C82.3592 234.903 85.2518 234.808 87.9558 233.895C90.8926 232.903 93.341 230.91 95.2094 228.464C97.2544 225.782 98.3074 222.574 98.4547 219.206C98.7493 212.47 96.4831 205.002 90.9781 200.787C88.2416 198.694 84.824 197.545 81.3859 197.608C78.045 197.671 74.569 198.666 72.4129 201.369C71.4957 202.517 73.3816 203.801 74.2918 202.662C75.8335 200.74 78.5114 200.019 80.8772 199.898C83.5245 199.768 86.1937 200.417 88.4553 201.817C93.6866 205.044 95.8991 211.233 96.1938 217.148C96.3395 220.098 95.8805 223.124 94.3606 225.682C92.9677 228.021 90.9383 230.078 88.4685 231.249C84.3093 233.224 78.7421 232.689 75.4891 229.209C70.886 224.283 69.0235 217.318 70.42 210.75C70.5462 210.149 69.9404 209.56 69.3831 209.512C68.7083 209.452 68.2796 209.949 68.1534 210.55L68.1346 210.545Z" fill="black"/>
<path d="M158.702 85.2145C152.11 87.432 145.283 88.9351 138.556 90.746C142.359 84.6856 146.692 79.7392 151.576 75.4043C156.744 70.8209 156.642 67.3669 150.515 64.2054C146.184 59.0594 141.753 58.8687 137.221 63.6335C136.307 64.5939 135.633 65.7791 134.849 66.858C134.476 66.8771 134.239 67.0675 134.146 67.4272C132.466 68.1145 131.294 69.289 130.642 70.9929C128.275 71.6389 127.524 74.9971 123.542 74.7487C125.379 67.6622 127.055 60.8538 128.918 54.1037C129.883 50.6338 129.651 48.2096 125.228 47.7271C123.458 47.5346 121.751 47.0083 120.144 46.2473C113.773 43.215 111.389 45.8189 110.272 52.1962C109.132 58.6883 106.943 64.9927 105.209 71.3825C102.396 66.0992 101.185 61.1893 99.7671 56.3444C95.852 42.9479 99.2227 44.1113 84.5875 47.5898C79.9829 48.6846 79.4376 50.7575 80.7408 54.901C82.908 61.7779 84.5445 68.8248 86.4055 75.8022C81.4779 72.8514 77.8125 69.1992 74.0888 65.5988C64.7054 56.5047 64.7957 56.607 55.8533 66.5468C53.4992 69.1609 53.1535 70.9359 55.8071 73.3594C60.5257 77.6867 65.0849 82.1926 69.7124 86.6167C69.8365 87.352 69.9272 87.8611 70.0513 88.5963C69.8636 88.9724 69.6736 89.34 69.4836 89.7076C62.406 89.0899 55.8784 86.181 48.978 84.8102C47.247 84.4624 44.7789 82.6671 44.5203 86.4895L44.6951 86.6052C44.4102 87.2244 44.1253 87.8437 43.8321 88.4652C43.8276 88.4483 43.8337 88.4376 43.8376 88.4185C43.2975 89.6671 42.6112 90.8737 42.2364 92.1682C39.5564 101.526 39.5917 101.489 48.8507 103.907C54.5785 105.403 60.2706 107.036 65.9744 108.611L66.0074 109.95C61.4827 111.412 56.9581 112.874 52.4418 114.334C49.616 114.471 46.9656 115.266 44.4255 116.474C36.4273 119.323 42.6509 123.725 43.2373 127.509C43.3656 127.99 43.4938 128.471 43.6221 128.952C43.5642 134.439 46.3518 134.529 50.7479 133.328C86.5828 123.546 122.467 113.949 158.342 104.283C171.762 100.671 169.439 102.39 166.712 89.9036C165.613 84.8371 163.666 83.5437 158.71 85.2122L158.702 85.2145Z" fill="#A0DEF5"/>
<path d="M93.8178 115.304C94.8941 114.21 96.3633 113.407 97.0904 112.117C97.8175 110.828 97.7382 109.113 98.0131 107.646C98.288 106.179 99.0352 104.83 98.9607 103.403C98.8862 101.976 97.9633 100.642 97.6446 99.245C97.2579 97.5587 97.3844 95.6708 96.6578 94.094C95.9312 92.5172 94.4452 91.4342 93.2905 90.1083C92.11 88.7532 91.0668 87.0356 89.4091 86.1525C87.7513 85.2694 85.849 85.3927 83.9709 85.202C82.0928 85.0112 79.9544 84.5198 78.0958 85.1106C76.1385 85.7369 74.7946 87.3466 73.7498 88.93C70.8025 93.4038 69.0649 98.3296 69.6503 103.191C70.2364 108.088 73.117 112.476 76.9342 116.124C79.2061 118.297 82.2475 119.947 85.5449 119.756C88.6105 119.573 91.4478 117.724 93.824 115.294L93.8178 115.304Z" fill="white"/>
<path d="M91.3807 88.6511C88.6644 86.7689 84.2015 87.8889 81.8242 90.3826C79.4408 92.887 78.7851 96.3008 78.9137 99.4493C79.1181 104.603 81.3214 109.725 85.7098 112.848C87.5197 114.133 89.942 115.082 92.2587 114.386C93.9416 113.878 96.3301 112.304 97.099 110.867C97.8679 109.43 98.3005 108.184 98.5255 106.631C99.0626 102.942 98.0662 99.1044 97.0248 95.6049C95.9834 92.1053 93.5125 88.882 89.8066 87.4742" fill="black"/>
<path d="M128.36 106.006C129.436 104.911 130.905 104.109 131.632 102.819C132.359 101.529 132.28 99.8144 132.555 98.3478C132.83 96.8812 133.577 95.5316 133.503 94.1048C133.428 92.6781 132.505 91.344 132.187 89.9468C131.8 88.2604 131.926 86.3726 131.2 84.7958C130.473 83.219 128.987 82.136 127.832 80.8101C126.678 79.4842 125.609 77.7373 123.951 76.8542C122.293 75.9712 120.391 76.0944 118.513 75.9037C116.635 75.713 114.496 75.2215 112.638 75.8123C110.68 76.4386 109.337 78.0483 108.292 79.6317C105.344 84.1055 103.607 89.0314 104.192 93.8925C104.778 98.7537 107.659 103.178 111.476 106.825C113.748 108.999 116.789 110.649 120.087 110.458C123.152 110.274 125.99 108.425 128.366 105.995L128.36 106.006Z" fill="white"/>
<path d="M125.922 79.3529C123.206 77.4707 118.743 78.5907 116.366 81.0844C113.983 83.5888 113.327 87.0026 113.455 90.151C113.66 95.3047 115.863 100.427 120.252 103.55C122.061 104.835 124.484 105.783 126.8 105.087C128.483 104.58 131.027 103.317 131.796 101.88C132.565 100.443 132.679 99.9602 132.904 98.4076C133.441 94.7182 132.608 89.8062 131.567 86.3066C130.525 82.8071 128.054 79.5838 124.348 78.176" fill="black"/>
<path d="M103.448 88.3688C102.532 95.1262 104.861 101.969 109.47 106.931C111.424 109.028 113.818 110.508 116.659 111.037C119.46 111.549 122.335 111.227 124.961 110.104C127.813 108.884 130.103 106.703 131.781 104.118C133.616 101.281 134.424 97.9984 134.317 94.6272C134.103 87.8846 131.281 80.6141 125.478 76.8412C122.593 74.9682 119.1 74.0907 115.679 74.424C112.257 74.7573 108.965 76.0142 107.02 78.8799C106.193 80.0973 108.169 81.2293 108.99 80.0225C110.381 77.9841 112.996 77.0542 115.344 76.7476C117.973 76.4108 120.682 76.8481 123.041 78.0667C128.498 80.8751 131.169 86.8748 131.909 92.7525C132.276 95.6829 132.047 98.7378 130.725 101.409C129.513 103.851 127.646 106.063 125.273 107.425C121.277 109.721 115.688 109.625 112.184 106.409C107.225 101.857 104.844 95.0553 105.741 88.3936C105.821 87.7841 105.173 87.2442 104.614 87.241C103.937 87.2333 103.548 87.7633 103.467 88.3727L103.448 88.3688Z" fill="black"/>
<path d="M68.9063 97.667C67.9902 104.424 70.3192 111.267 74.9283 116.229C76.8826 118.326 79.2758 119.807 82.117 120.335C84.9583 120.863 87.7935 120.525 90.4193 119.402C93.2714 118.182 95.5611 116.002 97.2388 113.416C99.0746 110.58 99.8822 107.297 99.7752 103.925C99.561 97.1829 96.7397 89.9123 90.9358 86.1394C88.051 84.2664 84.5585 83.389 81.137 83.7222C77.7154 84.0555 74.4232 85.3125 72.4782 88.1781C71.6508 89.3956 73.6269 90.5275 74.4482 89.3208C75.8397 87.2823 78.4541 86.3525 80.8026 86.0458C83.4311 85.709 86.1401 86.1463 88.4994 87.365C93.956 90.1734 96.6274 96.1731 97.3669 102.051C97.7344 104.981 97.5051 108.036 96.1832 110.707C94.9713 113.149 93.1039 115.361 90.7309 116.723C86.7348 119.02 81.1465 118.923 77.6423 115.707C72.6837 111.155 70.3026 104.354 71.1992 97.6918C71.2796 97.0824 70.6316 96.5425 70.0726 96.5392C69.3955 96.5316 69.0058 97.0615 68.9253 97.671L68.9063 97.667Z" fill="black"/>
</svg>
